<svg xmlns="http://www.w3.org/2000/svg" xmlns:xlink="http://www.w3.org/1999/xlink" width="1280" height="800" style="background:#0070f0"><defs><path id="a" d="M0 0h642v804H0z"/><path id="c" d="M280.537 427.131L363.538 316 492 488H149l86.076-129 45.461 68.131z"/></defs><g fill="none" fill-rule="evenodd"><g transform="translate(640 -2)"><mask id="b" fill="#fff"><use xlink:href="#a"/></mask><use stroke="#FFF" stroke-width="4" xlink:href="#a"/><g stroke="#FFF" mask="url(#b)"><path d="M-1310 1413L104-1m-1436 1414L82-1m-1436 1414L60-1m-1436 1414L38-1m-1436 1414L16-1m-1306 1414L124-1m-1395 1414L143-1m-1395 1414L162-1m-1395 1414L181-1m-1395 1414L200-1m-1395 1414L219-1m-1395 1414L238-1m-1395 1414L257-1m-1395 1414L276-1m-1395 1414L295-1m-1395 1414L314-1m-1395 1414L333-1m-1395 1414L352-1m-1395 1414L371-1m-1395 1414L390-1m-1395 1414L409-1M-986 1413L428-1M-967 1413L447-1M-948 1413L466-1M-929 1413L485-1M-910 1413L504-1M-891 1413L523-1M-872 1413L542-1M-853 1413L561-1M-834 1413L580-1M-815 1413L599-1M-796 1413L618-1M-777 1413L637-1M-758 1413L656-1M-739 1413L675-1M-720 1413L694-1M-701 1413L713-1M-682 1413L732-1M-663 1413L751-1M-644 1413L770-1M-625 1413L789-1M-606 1413L808-1M-587 1413L827-1M-568 1413L846-1M-549 1413L865-1M-530 1413L884-1M-511 1413L903-1M-492 1413L922-1M-473 1413L941-1M-454 1413L960-1M-435 1413L979-1M-416 1413L998-1M-397 1413L1017-1M-378 1413L1036-1M-359 1413L1055-1M-340 1413L1074-1M-321 1413L1093-1M-302 1413L1112-1M-283 1413L1131-1M-264 1413L1150-1M-245 1413L1169-1M-226 1413L1188-1M-207 1413L1207-1M-188 1413L1226-1M-169 1413L1245-1M-150 1413L1264-1M-131 1413L1283-1M-112 1413L1302-1M-93 1413L1321-1M-74 1413L1340-1M-55 1413L1359-1M-36 1413L1378-1M-17 1413L1397-1M2 1413L1416-1M21 1413L1435-1M40 1413L1454-1M59 1413L1473-1M78 1413L1492-1M97 1413L1511-1M116 1413L1530-1M135 1413L1549-1M154 1413L1568-1M173 1413L1587-1M192 1413L1606-1M211 1413L1625-1M230 1413L1644-1M249 1413L1663-1M268 1413L1682-1M287 1413L1701-1M306 1413L1720-1M325 1413L1739-1M344 1413L1758-1M363 1413L1777-1M382 1413L1796-1M401 1413L1815-1M420 1413L1834-1"/></g><g mask="url(#b)"><use fill="#0070F0" xlink:href="#c"/><path stroke="#FFF" stroke-width="4" d="M235.076 362.603L152.739 486H488.01L363.538 319.342l-83.093 111.255-45.369-67.994z"/></g></g><g opacity=".3" stroke="#FFF"><path stroke-width="4" d="M172 299h296v201H172z"/><path stroke-width="2" d="M321 433h113v33H321z"/><path d="M205.5 382.5v24h229v-24h-229zm0-50v24h229v-24h-229z"/></g></g></svg>