<svg xmlns="http://www.w3.org/2000/svg" xmlns:xlink="http://www.w3.org/1999/xlink" width="1280" height="1124" style="background:#0070f0"><defs><path id="a" d="M0 0h300v1128H0z"/><path id="c" d="M60 138h182v26H60v-26zm0 65h182v26H60v-26zm0 66h182v26H60v-26zm0 65h182v26H60v-26zm0 65h182v26H60v-26zm0 66h182v26H60v-26zm0 65h182v26H60v-26z"/></defs><g fill="none" fill-rule="evenodd"><g transform="translate(-2 -2)"><mask id="b" fill="#fff"><use xlink:href="#a"/></mask><use fill="#FFF" fill-opacity="0" stroke="#FFF" stroke-width="4" xlink:href="#a"/><g stroke="#FFF" stroke-linecap="square" mask="url(#b)"><path d="M3.058 0L-1397 1402.213M23.058 0L-1377 1402.213M43.058 0L-1357 1402.213M63.058 0L-1337 1402.213M83.058 0L-1317 1402.213M103.058 0L-1297 1402.213M123.058 0L-1277 1402.213M143.058 0L-1257 1402.213M163.058 0L-1237 1402.213M183.058 0L-1217 1402.213M203.058 0L-1197 1402.213M223.058 0L-1177 1402.213M243.058 0L-1157 1402.213M263.058 0L-1137 1402.213M283.058 0L-1117 1402.213M303.058 0L-1097 1402.213M323.058 0L-1077 1402.213M343.058 0L-1057 1402.213M363.058 0L-1037 1402.213M383.058 0L-1017 1402.213M403.058 0L-997 1402.213M423.058 0L-977 1402.213M443.058 0L-957 1402.213M463.058 0L-937 1402.213M483.058 0L-917 1402.213M503.058 0L-897 1402.213M523.058 0L-877 1402.213M543.058 0L-857 1402.213M563.058 0L-837 1402.213M583.058 0L-817 1402.213M603.058 0L-797 1402.213M623.058 0L-777 1402.213M643.058 0L-757 1402.213M663.058 0L-737 1402.213M683.058 0L-717 1402.213M703.058 0L-697 1402.213M723.058 0L-677 1402.213M743.058 0L-657 1402.213M763.058 0L-637 1402.213M783.058 0L-617 1402.213M803.058 0L-597 1402.213M823.058 0L-577 1402.213M843.058 0L-557 1402.213M863.058 0L-537 1402.213M883.058 0L-517 1402.213M903.058 0L-497 1402.213M923.058 0L-477 1402.213M943.058 0L-457 1402.213M963.058 0L-437 1402.213M983.058 0L-417 1402.213M1003.058 0L-397 1402.213M1023.058 0L-377 1402.213M1043.058 0L-357 1402.213M1063.058 0L-337 1402.213M1083.058 0L-317 1402.213M1103.058 0L-297 1402.213M1123.058 0L-277 1402.213M1143.058 0L-257 1402.213M1163.058 0L-237 1402.213M1183.058 0L-217 1402.213M1203.058 0L-197 1402.213M1223.058 0L-177 1402.213M1243.058 0L-157 1402.213M1263.058 0L-137 1402.213M1283.058 0L-117 1402.213M1303.058 0L-97 1402.213M1323.058 0L-77 1402.213M1343.058 0L-57 1402.213M1363.058 0L-37 1402.213M1383.058 0L-17 1402.213M1403.058 0L3 1402.213M1423.058 0L23 1402.213M1443.058 0L43 1402.213M1463.058 0L63 1402.213M1483.058 0L83 1402.213M1503.058 0L103 1402.213M1523.058 0L123 1402.213M1543.058 0L143 1402.213M1563.058 0L163 1402.213M1583.058 0L183 1402.213M1603.058 0L203 1402.213M1623.058 0L223 1402.213M1643.058 0L243 1402.213M1663.058 0L263 1402.213M1683.058 0L283 1402.213"/></g><g opacity=".3"><use fill="#0070F0" xlink:href="#c"/><path stroke="#FFF" d="M60.5 138.5v25h181v-25h-181zm0 65v25h181v-25h-181zm0 66v25h181v-25h-181zm0 65v25h181v-25h-181zm0 65v25h181v-25h-181zm0 66v25h181v-25h-181zm0 65v25h181v-25h-181z"/></g></g><path stroke="#FFF" stroke-width="4" d="M298-2h245v1128H298zM1037-2h245v1128h-245z"/></g></svg>