<svg xmlns="http://www.w3.org/2000/svg" xmlns:xlink="http://www.w3.org/1999/xlink" width="1280" height="1124" style="background:#0070f0"><defs><path id="a" d="M0 0h300v1128H0z"/><path id="c" d="M62 138h180v26H62v-26zm0 65h180v26H62v-26zm0 66h180v26H62v-26zm0 65h180v26H62v-26zm0 65h180v26H62v-26zm0 66h180v26H62v-26zm0 65h180v26H62v-26z"/><path id="d" d="M0 0h984v160H0z"/><path id="f" d="M0 0h984v70H0z"/></defs><g fill="none" fill-rule="evenodd"><g stroke="#FFF" opacity=".3"><path opacity=".3" d="M349.5 260.5h43v783h-43zM425.5 260.5h43v783h-43zM501.5 260.5h43v783h-43zM577.5 260.5h43v783h-43zM653.5 260.5h43v783h-43zM729.5 260.5h43v783h-43zM805.5 260.5h43v783h-43zM881.5 260.5h43v783h-43zM957.5 260.5h43v783h-43zM1033.5 260.5h43v783h-43zM1109.5 260.5h43v783h-43zM1185.5 260.5h43v783h-43z"/></g><path stroke="#FFF" stroke-width="4" d="M351 806h876v236H351zM1035 534h192v236h-192zM579 534h420v236H579zM351 534h192v236H351zM959 262h268v236H959zM351 262h572v236H351z" opacity=".3"/><g transform="translate(-2 -2)"><mask id="b" fill="#fff"><use xlink:href="#a"/></mask><use fill="#FFF" fill-opacity="0" stroke="#FFF" stroke-width="4" xlink:href="#a"/><g stroke="#FFF" stroke-linecap="square" mask="url(#b)"><path d="M3.058 0L-1397 1402.213M23.058 0L-1377 1402.213M43.058 0L-1357 1402.213M63.058 0L-1337 1402.213M83.058 0L-1317 1402.213M103.058 0L-1297 1402.213M123.058 0L-1277 1402.213M143.058 0L-1257 1402.213M163.058 0L-1237 1402.213M183.058 0L-1217 1402.213M203.058 0L-1197 1402.213M223.058 0L-1177 1402.213M243.058 0L-1157 1402.213M263.058 0L-1137 1402.213M283.058 0L-1117 1402.213M303.058 0L-1097 1402.213M323.058 0L-1077 1402.213M343.058 0L-1057 1402.213M363.058 0L-1037 1402.213M383.058 0L-1017 1402.213M403.058 0L-997 1402.213M423.058 0L-977 1402.213M443.058 0L-957 1402.213M463.058 0L-937 1402.213M483.058 0L-917 1402.213M503.058 0L-897 1402.213M523.058 0L-877 1402.213M543.058 0L-857 1402.213M563.058 0L-837 1402.213M583.058 0L-817 1402.213M603.058 0L-797 1402.213M623.058 0L-777 1402.213M643.058 0L-757 1402.213M663.058 0L-737 1402.213M683.058 0L-717 1402.213M703.058 0L-697 1402.213M723.058 0L-677 1402.213M743.058 0L-657 1402.213M763.058 0L-637 1402.213M783.058 0L-617 1402.213M803.058 0L-597 1402.213M823.058 0L-577 1402.213M843.058 0L-557 1402.213M863.058 0L-537 1402.213M883.058 0L-517 1402.213M903.058 0L-497 1402.213M923.058 0L-477 1402.213M943.058 0L-457 1402.213M963.058 0L-437 1402.213M983.058 0L-417 1402.213M1003.058 0L-397 1402.213M1023.058 0L-377 1402.213M1043.058 0L-357 1402.213M1063.058 0L-337 1402.213M1083.058 0L-317 1402.213M1103.058 0L-297 1402.213M1123.058 0L-277 1402.213M1143.058 0L-257 1402.213M1163.058 0L-237 1402.213M1183.058 0L-217 1402.213M1203.058 0L-197 1402.213M1223.058 0L-177 1402.213M1243.058 0L-157 1402.213M1263.058 0L-137 1402.213M1283.058 0L-117 1402.213M1303.058 0L-97 1402.213M1323.058 0L-77 1402.213M1343.058 0L-57 1402.213M1363.058 0L-37 1402.213M1383.058 0L-17 1402.213M1403.058 0L3 1402.213M1423.058 0L23 1402.213M1443.058 0L43 1402.213M1463.058 0L63 1402.213M1483.058 0L83 1402.213M1503.058 0L103 1402.213M1523.058 0L123 1402.213M1543.058 0L143 1402.213M1563.058 0L163 1402.213M1583.058 0L183 1402.213M1603.058 0L203 1402.213M1623.058 0L223 1402.213M1643.058 0L243 1402.213M1663.058 0L263 1402.213M1683.058 0L283 1402.213"/></g><g mask="url(#b)" opacity=".3"><use fill="#0070F0" xlink:href="#c"/><path stroke="#FFF" d="M62.5 138.5v25h179v-25h-179zm0 65v25h179v-25h-179zm0 66v25h179v-25h-179zm0 65v25h179v-25h-179zm0 65v25h179v-25h-179zm0 66v25h179v-25h-179zm0 65v25h179v-25h-179z"/></g></g><g transform="translate(298 68)"><mask id="e" fill="#fff"><use xlink:href="#d"/></mask><use stroke="#FFF" stroke-width="4" xlink:href="#d"/><g stroke="#FFF" stroke-linecap="square" mask="url(#e)"><path d="M262.693 0L63 200M242.693 0L43 200M222.693 0L23 200M202.693 0L3 200M182.693 0L-17 200M162.693 0L-37 200M142.693 0L-57 200M122.693 0L-77 200M102.693 0L-97 200M82.693 0L-117 200M62.693 0L-137 200M42.693 0L-157 200M22.693 0L-177 200M282.693 0L83 200M302.693 0L103 200M322.693 0L123 200M342.693 0L143 200M362.693 0L163 200M382.693 0L183 200M402.693 0L203 200M422.693 0L223 200M442.693 0L243 200M462.693 0L263 200M482.693 0L283 200M502.693 0L303 200M522.693 0L323 200M542.693 0L343 200M562.693 0L363 200M582.693 0L383 200M602.693 0L403 200M622.693 0L423 200M642.693 0L443 200M662.693 0L463 200M682.693 0L483 200M702.693 0L503 200M722.693 0L523 200M742.693 0L543 200M762.693 0L563 200M782.693 0L583 200M802.693 0L603 200M822.693 0L623 200M842.693 0L643 200M862.693 0L663 200M882.693 0L683 200M902.693 0L703 200M922.693 0L723 200M942.693 0L743 200M962.693 0L763 200M982.693 0L783 200M1002.693 0L803 200M1022.693 0L823 200M1042.693 0L843 200M1062.693 0L863 200M1082.693 0L883 200M1102.693 0L903 200M1122.693 0L923 200M1142.693 0L943 200M1162.693 0L963 200"/></g></g><g transform="translate(298 -2)"><mask id="g" fill="#fff"><use xlink:href="#f"/></mask><use stroke="#FFF" stroke-width="4" xlink:href="#f"/><g stroke="#FFF" stroke-linecap="square" mask="url(#g)"><path d="M253.844 2L154 101.997M233.844 2L134 101.997M213.844 2L114 101.997M193.844 2L94 101.997M173.844 2L74 101.997M153.844 2L54 101.997M133.844 2L34 101.997M113.844 2L14 101.997M93.844 2L-6 101.997M73.844 2L-26 101.997M53.844 2L-46 101.997M33.844 2L-66 101.997M13.844 2L-86 101.997M273.844 2L174 101.997M293.844 2L194 101.997M313.844 2L214 101.997M333.844 2L234 101.997M353.844 2L254 101.997M373.844 2L274 101.997M393.844 2L294 101.997M413.844 2L314 101.997M433.844 2L334 101.997M453.844 2L354 101.997M473.844 2L374 101.997M493.844 2L394 101.997M513.844 2L414 101.997M533.844 2L434 101.997M553.844 2L454 101.997M573.844 2L474 101.997M593.844 2L494 101.997M613.844 2L514 101.997M633.844 2L534 101.997M653.844 2L554 101.997M673.844 2L574 101.997M693.844 2L594 101.997M713.844 2L614 101.997M733.844 2L634 101.997M753.844 2L654 101.997M773.844 2L674 101.997M793.844 2L694 101.997M813.844 2L714 101.997M833.844 2L734 101.997M853.844 2L754 101.997M873.844 2L774 101.997M893.844 2L794 101.997M913.844 2L814 101.997M933.844 2L834 101.997M953.844 2L854 101.997M973.844 2L874 101.997M993.844 2L894 101.997M1013.844 2L914 101.997M1033.844 2L934 101.997M1053.844 2L954 101.997M1073.844 2L974 101.997"/></g></g></g></svg>