<svg xmlns="http://www.w3.org/2000/svg" width="741" height="133" viewBox="0 0 741 133">
  <g fill="none" fill-rule="evenodd">
    <path fill="#FFF" d="M262.608496,113.794702 L247,65.205298 L256.863037,65.205298 L266.91759,99.294702 C267.683651,101.791391 268.066681,104.480132 268.162439,104.480132 L268.353954,104.480132 C268.353954,104.480132 268.832743,101.791391 269.598804,99.294702 L280.132144,65.3013245 L288.654575,65.3013245 L299.092158,99.294702 C299.858219,101.791391 300.432765,104.480132 300.432765,104.480132 L300.62428,104.480132 C300.62428,104.480132 301.007311,101.791391 301.773372,99.294702 L311.923682,65.205298 L321.690961,65.205298 L306.082466,113.794702 L295.836398,113.794702 L285.781845,82.5860927 C285.015784,80.089404 284.441238,77.3046358 284.441238,77.3046358 L284.249723,77.3046358 C284.249723,77.3046358 283.675177,80.089404 282.909116,82.5860927 L272.950321,113.794702 L262.608496,113.794702 Z M330.158673,113.794702 L330.158673,46 L339.447164,46 L339.447164,70.8708609 C339.447164,73.1754967 339.255649,74.9039735 339.255649,74.9039735 L339.447164,74.9039735 C341.553833,70.1986755 347.682322,64.0529801 357.353844,64.0529801 C368.749003,64.0529801 374.015673,70.294702 374.015673,82.6821192 L374.015673,113.794702 L364.727182,113.794702 L364.727182,84.794702 C364.727182,77.9768212 363.290817,72.5993377 355.534448,72.5993377 C348.256868,72.5993377 342.224136,77.5927152 340.213226,84.602649 C339.63868,86.5231788 339.447164,88.7317881 339.447164,91.0364238 L339.447164,113.794702 L330.158673,113.794702 Z M387.367025,55.5066225 L387.367025,46 L396.751274,46 L396.751274,55.5066225 L387.367025,55.5066225 Z M387.462782,113.794702 L387.462782,65.205298 L396.751274,65.205298 L396.751274,113.794702 L387.462782,113.794702 Z M412.879597,96.0298013 L412.879597,73.3675497 L406.559592,73.3675497 L406.559592,65.8774834 L413.16687,65.8774834 L413.16687,51.8576159 L422.168088,51.8576159 L422.168088,65.8774834 L433.850521,65.8774834 L433.850521,73.3675497 L422.168088,73.3675497 L422.168088,94.9735099 C422.168088,104.672185 428.966881,105.92053 432.509914,105.92053 C433.850521,105.92053 434.712339,105.728477 434.712339,105.728477 L434.712339,113.986755 C434.712339,113.986755 433.371732,114.178808 431.45658,114.178808 C425.232333,114.178808 412.879597,112.258278 412.879597,96.0298013 Z M441.360656,89.5 C441.360656,74.0397351 451.798239,64.0529801 465.587339,64.0529801 C479.280682,64.0529801 486.558263,74.2317881 486.558263,86.8112583 C486.558263,88.0596026 486.27099,90.8443709 486.27099,90.8443709 L450.93642,90.8443709 C451.415208,101.503311 458.980062,106.880795 467.59825,106.880795 C475.929165,106.880795 481.961896,101.215232 481.961896,101.215232 L485.792202,108.033113 C485.792202,108.033113 478.610379,114.94702 467.023704,114.94702 C451.798239,114.94702 441.360656,103.903974 441.360656,89.5 Z M451.223693,83.8344371 L477.078257,83.8344371 C476.790984,75.4801325 471.620071,71.4470199 465.395824,71.4470199 C458.309759,71.4470199 452.5643,75.8642384 451.223693,83.8344371 Z M497.419916,133 L497.419916,65.205298 L505.942346,65.205298 L505.942346,69.3344371 C505.942346,71.2549669 505.750831,72.8874172 505.750831,72.8874172 L505.942346,72.8874172 C505.942346,72.8874172 510.059925,64.0529801 522.221145,64.0529801 C535.244185,64.0529801 543.479342,74.4238411 543.479342,89.5 C543.479342,104.960265 534.190851,114.94702 521.550842,114.94702 C510.921743,114.94702 506.708407,106.976821 506.708407,106.976821 L506.516892,106.976821 C506.516892,106.976821 506.708407,108.705298 506.708407,111.201987 L506.708407,133 L497.419916,133 Z M506.421134,89.692053 C506.421134,98.3344371 511.209016,106.976821 520.114477,106.976821 C527.775089,106.976821 534.095093,100.639073 534.095093,89.5960265 C534.095093,79.0331126 528.445392,72.2152318 520.40175,72.2152318 C513.124169,72.2152318 506.421134,77.3046358 506.421134,89.692053 Z M550.510689,100.15894 C550.510689,84.1225166 571.57737,83.4503311 579.71677,83.4503311 L581.823438,83.4503311 L581.823438,82.5860927 C581.823438,74.615894 577.322829,71.9271523 571.19434,71.9271523 C563.725244,71.9271523 557.692512,76.6324503 557.692512,76.6324503 L553.862206,69.8145695 C553.862206,69.8145695 560.852514,64.0529801 571.960401,64.0529801 C584.217379,64.0529801 591.11193,70.7748344 591.11193,83.0662252 L591.11193,113.794702 L582.493742,113.794702 L582.493742,109.18543 C582.493742,106.976821 582.685257,105.344371 582.685257,105.344371 L582.493742,105.344371 C582.493742,105.344371 578.567678,114.94702 566.981004,114.94702 C558.650089,114.94702 550.510689,109.857616 550.510689,100.15894 Z M559.894938,99.6788079 C559.894938,103.615894 562.959183,107.456954 568.991914,107.456954 C576.844041,107.456954 581.919196,99.1986755 581.919196,91.9966887 L581.919196,90.4602649 L579.525255,90.4602649 C572.534947,90.4602649 559.894938,90.9403974 559.894938,99.6788079 Z M604.559039,133 L604.559039,65.205298 L613.081469,65.205298 L613.081469,69.3344371 C613.081469,71.2549669 612.889953,72.8874172 612.889953,72.8874172 L613.081469,72.8874172 C613.081469,72.8874172 617.199047,64.0529801 629.360268,64.0529801 C642.383307,64.0529801 650.618465,74.4238411 650.618465,89.5 C650.618465,104.960265 641.329973,114.94702 628.689965,114.94702 C618.060866,114.94702 613.84753,106.976821 613.84753,106.976821 L613.656015,106.976821 C613.656015,106.976821 613.84753,108.705298 613.84753,111.201987 L613.84753,133 L604.559039,133 Z M613.560257,89.692053 C613.560257,98.3344371 618.348139,106.976821 627.2536,106.976821 C634.914211,106.976821 641.234216,100.639073 641.234216,89.5960265 C641.234216,79.0331126 635.584515,72.2152318 627.540873,72.2152318 C620.263292,72.2152318 613.560257,77.3046358 613.560257,89.692053 Z M658.224358,89.5 C658.224358,74.0397351 668.661941,64.0529801 682.451041,64.0529801 C696.144384,64.0529801 703.421965,74.2317881 703.421965,86.8112583 C703.421965,88.0596026 703.134692,90.8443709 703.134692,90.8443709 L667.800122,90.8443709 C668.27891,101.503311 675.843764,106.880795 684.461952,106.880795 C692.792867,106.880795 698.825598,101.215232 698.825598,101.215232 L702.655904,108.033113 C702.655904,108.033113 695.474081,114.94702 683.887406,114.94702 C668.661941,114.94702 658.224358,103.903974 658.224358,89.5 Z M668.087395,83.8344371 L693.941958,83.8344371 C693.654685,75.4801325 688.483773,71.4470199 682.259526,71.4470199 C675.17346,71.4470199 669.428002,75.8642384 668.087395,83.8344371 Z M714.283618,113.794702 L714.283618,65.205298 L723.284836,65.205298 L723.284836,73.6556291 C723.284836,75.6721854 723.093321,77.3046358 723.093321,77.3046358 L723.284836,77.3046358 C725.487262,70.1986755 731.136963,64.6291391 738.606059,64.6291391 C739.850908,64.6291391 741,64.8211921 741,64.8211921 L741,74.0397351 C741,74.0397351 739.755151,73.7516556 738.318786,73.7516556 C732.381812,73.7516556 726.923626,77.9768212 724.721201,85.1788079 C723.859382,87.9635762 723.572109,90.9403974 723.572109,93.9172185 L723.572109,113.794702 L714.283618,113.794702 Z"/>
    <path fill="#0054E8" d="M101.288926,127.514187 C97.0056072,126.15194 94.5912623,121.423189 95.8963361,116.952225 L117.124012,44.2297691 C118.232467,40.4323884 116.663229,36.3411494 113.350414,34.3914301 C109.449968,32.0958678 104.505213,33.5354019 102.305994,37.6067197 L58.4524414,118.7909 C57.5750695,120.41514 56.2083431,121.691451 54.5645955,122.421547 C50.4443816,124.251601 45.683,122.248737 43.929752,117.948024 L0.647446333,11.7766299 C-0.546896138,8.84691068 -0.0648185673,5.46540497 1.89501703,3.02561619 C4.77197903,-0.555898293 9.8857544,-1.02487963 13.316954,1.97811704 L153.747283,124.883182 C154.300034,125.366952 154.897787,125.791757 155.531602,126.151247 C160.777475,129.126619 167.34088,127.099715 170.191377,121.62403 L208.547033,47.9444242 C210.723768,43.7630068 209.957647,38.5791143 206.674898,35.2767894 C202.644723,31.2225812 196.228973,31.3462243 192.344918,35.5529541 L109.489793,125.291425 C107.374029,127.58296 104.205496,128.441759 101.288926,127.514187 Z"/>
    <path fill="#FFF" stroke="#FFF" stroke-width="2" d="M23.8192254,92.6529662 C24.3719767,93.1367358 24.969729,93.5615415 25.6035443,93.9210311 C30.8494173,96.8964036 37.4128222,94.8694994 40.2633193,89.3938139 L78.618975,15.7142083 C80.7957104,11.5327909 80.0295892,6.34889851 76.7468405,3.0465736 C72.7166657,-1.00763463 66.3009151,-0.883991496 62.4168605,3.32273827 L0,71.5107914 L23.8192254,92.6529662 Z" transform="translate(129.928 32.23)"/>
  </g>
</svg>
