<svg xmlns="http://www.w3.org/2000/svg" xmlns:xlink="http://www.w3.org/1999/xlink" width="1280" height="1124" style="background:#0070f0"><defs><path id="a" d="M0 0h1284v162H0z"/><path id="c" d="M142 96h170v26H142V96zm208 0h170v26H350V96zm207 0h170v26H557V96zm208 0h170v26H765V96zm207 0h170v26H972V96z"/></defs><g fill="none" fill-rule="evenodd"><g stroke="#FFF" opacity=".3"><path opacity=".3" d="M68.5 192.5h65v783h-65zM166.5 192.5h65v783h-65zM264.5 192.5h65v783h-65zM362.5 192.5h65v783h-65zM460.5 192.5h65v783h-65zM558.5 192.5h65v783h-65zM656.5 192.5h65v783h-65zM754.5 192.5h65v783h-65zM852.5 192.5h65v783h-65zM950.5 192.5h65v783h-65zM1048.5 192.5h65v783h-65zM1146.5 192.5h65v783h-65z"/></g><path stroke="#FFF" stroke-width="4" d="M462 738h356v236H462zM70 738h356v236H70zM952 466h258v236H952zM658 466h258v236H658zM364 466h258v236H364zM70 466h258v236H70zM560 194h650v236H560zM70 194h454v236H70z" opacity=".3"/><g transform="translate(-2 -2)"><mask id="b" fill="#fff"><use xlink:href="#a"/></mask><use stroke="#FFF" stroke-width="4" xlink:href="#a"/><g stroke="#FFF" stroke-linecap="square" mask="url(#b)"><path d="M263.693 0L64 200M243.693 0L44 200M223.693 0L24 200M203.693 0L4 200M183.693 0L-16 200M163.693 0L-36 200M143.693 0L-56 200M123.693 0L-76 200M103.693 0L-96 200M83.693 0L-116 200M63.693 0L-136 200M43.693 0L-156 200M23.693 0L-176 200M283.693 0L84 200M303.693 0L104 200M323.693 0L124 200M343.693 0L144 200M363.693 0L164 200M383.693 0L184 200M403.693 0L204 200M423.693 0L224 200M443.693 0L244 200M463.693 0L264 200M483.693 0L284 200M503.693 0L304 200M523.693 0L324 200M543.693 0L344 200M563.693 0L364 200M583.693 0L384 200M603.693 0L404 200M623.693 0L424 200M643.693 0L444 200M663.693 0L464 200M683.693 0L484 200M703.693 0L504 200M723.693 0L524 200M743.693 0L544 200M763.693 0L564 200M783.693 0L584 200M803.693 0L604 200M823.693 0L624 200M843.693 0L644 200M863.693 0L664 200M883.693 0L684 200M903.693 0L704 200M923.693 0L724 200M943.693 0L744 200M963.693 0L764 200M983.693 0L784 200M1003.693 0L804 200M1023.693 0L824 200M1043.693 0L844 200M1063.693 0L864 200M1083.693 0L884 200M1103.693 0L904 200M1123.693 0L924 200M1143.693 0L944 200M1163.693 0L964 200M1183.693 0L984 200M1203.693 0L1004 200M1223.693 0L1024 200M1243.693 0L1044 200M1263.693 0L1064 200M1283.693 0L1084 200M1303.693 0L1104 200M1323.693 0L1124 200M1343.693 0L1144 200M1363.693 0L1164 200M1383.693 0L1184 200M1403.693 0L1204 200M1423.693 0L1224 200"/></g><g opacity=".3"><use fill="#0070F0" xlink:href="#c"/><path stroke="#FFF" d="M142.5 96.5v25h169v-25h-169zm208 0v25h169v-25h-169zm207 0v25h169v-25h-169zm208 0v25h169v-25h-169zm207 0v25h169v-25h-169z"/></g></g></g></svg>