<svg xmlns="http://www.w3.org/2000/svg" xmlns:xlink="http://www.w3.org/1999/xlink" width="1280" height="800" style="background:#0070f0"><defs><path id="a" d="M0 0h386v804H0z"/><path id="c" d="M167.035 419.17L221 347l83 111H82l55.5-83 29.535 44.17z"/></defs><g fill="none" fill-rule="evenodd"><g transform="translate(896 -2)"><mask id="b" fill="#fff"><use xlink:href="#a"/></mask><use stroke="#FFF" stroke-width="4" xlink:href="#a"/><g stroke="#FFF" mask="url(#b)"><path d="M-1524 1413L-110-1m-1436 1414L-132-1m-1436 1414L-154-1m-1436 1414L-176-1m-1436 1414L-198-1m-1306 1414L-90-1m-1395 1414L-71-1m-1395 1414L-52-1m-1395 1414L-33-1m-1395 1414L-14-1m-1395 1414L5-1m-1395 1414L24-1m-1395 1414L43-1m-1395 1414L62-1m-1395 1414L81-1m-1395 1414L100-1m-1395 1414L119-1m-1395 1414L138-1m-1395 1414L157-1m-1395 1414L176-1m-1395 1414L195-1m-1395 1414L214-1m-1395 1414L233-1m-1395 1414L252-1m-1395 1414L271-1m-1395 1414L290-1m-1395 1414L309-1m-1395 1414L328-1m-1395 1414L347-1m-1395 1414L366-1m-1395 1414L385-1m-1395 1414L404-1M-991 1413L423-1M-972 1413L442-1M-953 1413L461-1M-934 1413L480-1M-915 1413L499-1M-896 1413L518-1M-877 1413L537-1M-858 1413L556-1M-839 1413L575-1M-820 1413L594-1M-801 1413L613-1M-782 1413L632-1M-763 1413L651-1M-744 1413L670-1M-725 1413L689-1M-706 1413L708-1M-687 1413L727-1M-668 1413L746-1M-649 1413L765-1M-630 1413L784-1M-611 1413L803-1M-592 1413L822-1M-573 1413L841-1M-554 1413L860-1M-535 1413L879-1M-516 1413L898-1M-497 1413L917-1M-478 1413L936-1M-459 1413L955-1M-440 1413L974-1M-421 1413L993-1M-402 1413L1012-1M-383 1413L1031-1M-364 1413L1050-1M-345 1413L1069-1M-326 1413L1088-1M-307 1413L1107-1M-288 1413L1126-1M-269 1413L1145-1M-250 1413L1164-1M-231 1413L1183-1M-212 1413L1202-1M-193 1413L1221-1M-174 1413L1240-1M-155 1413L1259-1M-136 1413L1278-1M-117 1413L1297-1M-98 1413L1316-1M-79 1413L1335-1M-60 1413L1354-1M-41 1413L1373-1M-22 1413L1392-1M-3 1413L1411-1M16 1413L1430-1M35 1413L1449-1M54 1413L1468-1M73 1413L1487-1M92 1413L1506-1M111 1413L1525-1M130 1413L1544-1M149 1413L1563-1M168 1413L1582-1M187 1413L1601-1M206 1413L1620-1"/></g><g mask="url(#b)"><use fill="#0070F0" xlink:href="#c"/><path stroke="#FFF" stroke-width="4" d="M137.5 378.598L85.743 456h214.264L221 350.34l-54.056 72.291-29.444-44.033z"/></g></g><g opacity=".3" stroke="#FFF"><path stroke-width="4" d="M200 227h496v346H200z"/><path stroke-width="2" d="M514 539h148v-33H514z"/><path d="M233.5 455.5v24h429v-24h-429zm0-50v24h429v-24h-429zm0-50v24h429v-24h-429zm89.5-36c16.292 0 29.5-13.208 29.5-29.5s-13.208-29.5-29.5-29.5-29.5 13.208-29.5 29.5 13.208 29.5 29.5 29.5zm-60-58.382L233.809 319.5h58.382L263 261.118z"/></g></g></svg>