<svg width="60" height="60" viewBox="0 0 60 60" fill="none" xmlns="http://www.w3.org/2000/svg">
<rect width="60" height="60" fill="white"/>
<rect width="60" height="60" fill="#C13C2B"/>
<path d="M46.99 35.9998H47.2496V34.8426H47.254L47.6857 35.9998H47.9103L48.3421 34.8426H48.3465V35.9998H48.6061V34.5003H48.2265L47.8078 35.6743H47.8034L47.3739 34.5003H46.99V35.9998H46.99ZM45.553 34.7271H46.0457V35.9998H46.3183V34.7271H46.8134V34.5003H45.553V34.7271H45.553ZM42.3846 35.9998L54.8462 24.0002H47.346L34.8849 35.9998H42.3851H42.3846ZM40.598 29.226H25.5125C20.915 29.226 20.1104 29.4607 18.1411 31.3569C16.2994 33.1304 13.3077 36 13.3077 36H19.8425L21.4015 34.4988C22.4264 33.5118 22.955 33.4096 25.1072 33.4096H36.2536L40.5977 29.2261L40.598 29.226ZM17.94 30.5012C16.5799 31.7369 13.6205 34.5051 12.0254 35.9998H5C5 35.9998 10.6293 30.5948 13.7584 27.6289C16.982 24.674 18.5889 24 24.5019 24H46.0254L41.3652 28.4875H24.9393C20.7846 28.4875 19.8512 28.7647 17.9405 30.5012L17.94 30.5012Z" fill="white"/>
</svg>
