<svg id="Слой_1" data-name="Слой 1" xmlns="http://www.w3.org/2000/svg" width="268" height="268" viewBox="0 0 268 268"><title>Artboard 1</title><path d="M94.52,185.59a44.66,44.66,0,0,0,16-17.82c4-7.71-.1-14.87-6-20.56-3.09-3-6.69-5.77-10.94-6.3-2.52-.32-5.06.19-7.6.28-4.16.15-8.27-.83-12.32-1.8a32.58,32.58,0,0,1,17.87-15.48,45.77,45.77,0,0,1,12.56-2.27,25,25,0,0,0,7.28-1c7.09-2.61,2.88-11.06,1.81-16.6a3.43,3.43,0,0,0-1.24-2.42,2.66,2.66,0,0,0-2.16,0c-4,1.38-5.25,6.53-8.76,8.84a14.64,14.64,0,0,1-5.55,1.77l-10,1.76a1.49,1.49,0,0,1-1.15-.11,1.54,1.54,0,0,1-.34-1.4q1.41-12.89,3.51-25.68c.77-4.8,1.67-9.67,3.86-14,1.18-2.36,2.89-4.63,3.63-7.18.59-2.07,0-4.34,1.5-6.12a3.29,3.29,0,0,1,3.2-1.24c2.09.52,2.8,3.36,3.68,5.07a4.87,4.87,0,0,0,.67,1.06c1.51,1.64,4.72,1.66,6.73,2.29a67.76,67.76,0,0,1,7.78,3,162.28,162.28,0,0,1,14.76,7.93c27.91,16.35,57.23,36.12,67.12,66.92,3.06,9.53,4,19.61,4.56,29.6a196.26,196.26,0,0,1-1.71,41.11A116.45,116.45,0,0,1,196.26,241a89.64,89.64,0,0,1-5.95,11.88c-1.15,1.91-2.37,3.78-3.66,5.59s-2.32,3.93-3.53,5.85a12.27,12.27,0,0,1-1.93,2.74,5,5,0,0,1-3,.72q-12.76.39-25.55.15c2.94-2.14,6.17-4.42,8.39-7.38s2.61-6.75,1.82-10.42c-1.23-5.72-4.82-12.66-10.37-15.27a32.22,32.22,0,0,0-8.41-2.22c-11.76-2-24.66-4.14-34.9,3.15-8.46,6-14,17.4-24.92,19.46l7.25-7.6c-6.54-7.3-13.22-14.82-16.69-24s-3-20.49,3.63-27.68C82.82,191.26,89.09,189,94.52,185.59Z" style="fill:#35221e"/><path d="M113.8,239.37a12.87,12.87,0,0,0-1.62,6.27,14.5,14.5,0,0,0,1.86,6,79.72,79.72,0,0,0,10.33,15.82,34.15,34.15,0,0,1-4-9.12,29.69,29.69,0,0,1-.54-5.4,18.79,18.79,0,0,1,.44-5.5c.72-2.7,2.7-4.29,4.77-6,1-.81,8.75-6.29,9.35-4.39a2,2,0,0,1,.06.69c0,1.08,0,4,1.42,4.35,1.11.29,1-2.47,1-3.08a3.09,3.09,0,0,1,.46-2.15.84.84,0,0,1,1.16-.13,1.27,1.27,0,0,1,.26.55c.12.45,1.72,6.62,1.76,6.62a81.72,81.72,0,0,0,2.87,8.73,46.16,46.16,0,0,0,9.39,15.14c-4-5.69-3.42-15.88-.3-21.82,1.76-3.34,4.74-5.92,5.95-9.57a27.79,27.79,0,0,0,1.07-13.63c-1.47-8.79-6-16.3-11.11-23.42-2.05-2.88-4.16-5.79-7.08-7.79s-6.86-2.84-10-1.25-4.6,5-5.26,8.29a27.17,27.17,0,0,1-4.41,10.76,16.54,16.54,0,0,1-4.57,4.71,10.27,10.27,0,0,1-14.14-3.27,9.33,9.33,0,0,1-.77-1.51,12.16,12.16,0,0,0,2.57,8.15,12.58,12.58,0,0,0,7.43,4.5,21.7,21.7,0,0,0,4,.29,18.31,18.31,0,0,0,5.52-.64c1.46-.46,2.84-1.67,2.92.43.06,1.89-1.39,4-2.32,5.56C120,231.4,116,235.13,113.8,239.37Z" style="fill:#b76f4b"/><path d="M140.82,191.25l-.38-.24-.12-.06-.52-.27h0l-.54-.25h0a24.64,24.64,0,0,0,.53,2.41,48.3,48.3,0,0,0,3,7.34c4.08,8.81,7.9,18.28,6.9,27.95-.42,4.05-1.91,7.86-2.47,11.87a32.36,32.36,0,0,0,.46,11.44c.45,2.1.92,4.2,1.39,6.3.74,3.31,1.54,6.75,3.43,9.52-3.57-5.78-2.94-15.5.08-21.24,1.76-3.35,4.74-5.93,5.95-9.58.27-.82.51-1.64.7-2.46a31.27,31.27,0,0,0,.39-11.17c-.19-1.09-.42-2.17-.69-3.23a40.23,40.23,0,0,0-1.52-4.66c-.2-.51-.4-1-.61-1.5a66.4,66.4,0,0,0-5.51-10l-.91-1.36c-.61-.9-1.24-1.8-1.87-2.7-1-1.43-2.06-2.89-3.22-4.24-.14-.17-.28-.34-.43-.5-.44-.49-.9-1-1.38-1.41a15.43,15.43,0,0,0-2.05-1.65C141.17,191.47,141,191.35,140.82,191.25Z" style="fill:#992816"/><path d="M135.09,189.51a7.93,7.93,0,0,0-3.74.82,9.6,9.6,0,0,0-4.43,5.4,7.81,7.81,0,0,0,7.33-1.72,8,8,0,0,0,2.38-4.27A11.44,11.44,0,0,0,135.09,189.51Z" style="fill:#992816"/><path d="M126.77,202.6a48.73,48.73,0,0,1,.09,13.43,22.61,22.61,0,0,1-2.37,7.1,3.06,3.06,0,0,0,0-1.67.87.87,0,0,0-.07-.17.57.57,0,0,0-.13-.21.49.49,0,0,0-.36-.2,2.83,2.83,0,0,0-1.08.28c-.36.15-.71.33-1.08.45a18,18,0,0,1-5.52.64,21.69,21.69,0,0,1-4-.28,10.38,10.38,0,0,1-1.22-.31,16.6,16.6,0,0,0,6.41-1.36c4.09-1.89,6.9-5.92,8.16-10.24" style="fill:#992816"/><path d="M161.26,205.3c.42.56.83,1.14,1.22,1.73a21.56,21.56,0,0,1,3.43,8.2,10.24,10.24,0,0,1-2.89,9.05c-1.29,1.4-3.23,3.62-5.36,3.3a11.8,11.8,0,0,0,2.92-4.35,7.25,7.25,0,0,0,0-4.78c-1.16-3.13-4.36-5.26-7.18-6.74-3.08-1.61-6.52-2.22-9.38-4.14-4.63-3.08-9-8.73-7.38-14.62.32-1.19,1.06-2.47,2.28-2.6a3.59,3.59,0,0,1,1.38.21A41.35,41.35,0,0,1,161.26,205.3Z" style="fill:#b76f4b"/><path d="M150.74,195.37a23.22,23.22,0,0,0-2.56,5.89,62,62,0,0,1,4.53-4.5C152.07,196.28,151.41,195.81,150.74,195.37Z" style="fill:#992816"/><path d="M155.59,199.11c-.39-.35-.79-.69-1.19-1a18.9,18.9,0,0,0-2.86,5.16A34.42,34.42,0,0,1,155.59,199.11Z" style="fill:#992816"/><path d="M142.63,209.19a.66.66,0,0,0-.45-.25c-.42-.07-.82,0-.93.48a1.05,1.05,0,0,0,.19.88.79.79,0,0,0,1.28-.92.53.53,0,0,0-.08-.17Z" style="fill:#992816"/><path d="M131.82,209.92a.83.83,0,0,0-.23-.15.78.78,0,0,0-1.07.24l0,.09a1,1,0,0,0,.15,1,.82.82,0,0,0,1,.16.92.92,0,0,0,.34-1,.88.88,0,0,0-.12-.28Z" style="fill:#992816"/><path d="M136.82,226.15a.92.92,0,0,0-1-.21c-.51.18-.5,1-.19,1.34a.81.81,0,0,0,1,.15,1,1,0,0,0,.21-1.19Z" style="fill:#872910"/><path d="M126.51,175a8,8,0,0,1,7.74-2.67c3.5.62,5.55,3,6.85,6.17l.09.22c.4,1,.78,2,1.15,3,0,0,.72,1.84.77,2s.2.58,0,.74a.54.54,0,0,1-.35.08c-.92,0-1.1-.07-1.35.85a13.48,13.48,0,0,1-.66,2.07,7.92,7.92,0,0,1-3.33,3.74,7.51,7.51,0,0,1-7.53-.16,11.25,11.25,0,0,1-4.35-6.42C124.56,181.43,124.44,177.62,126.51,175Z" style="fill:#b76f4b"/><path d="M124.36,189.52a3,3,0,0,0-1.78,3,3.56,3.56,0,0,0-1.22,2,8.69,8.69,0,0,0-.18,2.59s0,0,0-.05a4.25,4.25,0,0,0-.66,3.21,4.6,4.6,0,0,0-1.81,4.1c0,.07,0,.06,0,.13a2.76,2.76,0,0,0-1.52,2.6,2.34,2.34,0,0,0-2,1.3c-.43.08-.85-.23-1.28-.33a3,3,0,0,0-1.64.09c-.38-.08-.72-.45-1.06-.6a1.84,1.84,0,0,0-1.49,0,2.91,2.91,0,0,0-1.84-1.8c-.13.75.47,1.4,1,1.93a5.28,5.28,0,0,0,1.2,1,1.7,1.7,0,0,0,1.49.09,3.4,3.4,0,0,0,1.45.8,1.71,1.71,0,0,0,1.58-.36,1.87,1.87,0,0,0,1.78,0,2,2,0,0,0,1.06-1.51,3,3,0,0,0,2-2.57,8.82,8.82,0,0,0,1.5-2,4.1,4.1,0,0,0,.39-2.46,4.77,4.77,0,0,0,1.68-3,4,4,0,0,0,1.64-4.29,4.21,4.21,0,0,0,1.93-1.87,8.1,8.1,0,0,0,.62-2.52"/><path d="M133.71,184.49c1.11-.57,2.24-1.09,3.4-1.57a3,3,0,0,1,1.29-.32c.1.09,0,.24-.16.3l-5,2.7" style="fill:#992816"/><path d="M133.71,185.7l4-1.91a.32.32,0,0,1,.27,0,.22.22,0,0,1,.07.28.51.51,0,0,1-.23.23,21,21,0,0,1-5,2.47c-.28.11-.63.26-.64.56" style="fill:#992816"/><path d="M104.65,189.85A3.36,3.36,0,0,0,106,191a3.48,3.48,0,0,0,2.76-.07c-.28.13,2,1.68,2.3,1.75a3.35,3.35,0,0,0,3.17-.66c.07-.06,2,.33,2.31.3a5.72,5.72,0,0,0,2.59-.94c.45-.31.74-.7,1.3-.72.71,0,1.41.34,2.18.24,1-.13,1.76-.73,2.75-.85a15.05,15.05,0,0,0,3.32-.74,16.25,16.25,0,0,0,5.94-3.78,18.15,18.15,0,0,0,4.8-8.87c.61-2.71-.24-5.31-3.29-5.64a14.87,14.87,0,0,0-9.1,2c-2.61,1.54-3.72,4.46-4.11,7.38a34.59,34.59,0,0,0,.11,7.81,2.21,2.21,0,0,0-2.68,1,4.4,4.4,0,0,0-5.87,1.22,4.49,4.49,0,0,0-4.27-.5,1.21,1.21,0,0,1-.67.16,1.26,1.26,0,0,1-.55-.39,4,4,0,0,0-3.14-1.16,2.28,2.28,0,0,1-1,0c-.43-.18-.64-.66-.86-1.07a5.44,5.44,0,0,0-2.54-2.41c.06-1.05.08-2.37-.7-3.06-.32-.28-.78-.46-.93-.85a1.86,1.86,0,0,1-.09-.62,6.67,6.67,0,0,0-1.38-3.79,3.86,3.86,0,0,1,.17,2,6.75,6.75,0,0,0-.2,1.67,1.47,1.47,0,0,0,.9,1.31,7.31,7.31,0,0,0,1.11,3c.22.39.57.5.73.88.23.56-.07,1.22.32,1.86a2.56,2.56,0,0,0,1.87,1.15C103.83,188.77,104.23,189.3,104.65,189.85Z"/><path d="M129.16,178.43l.28.9a25.32,25.32,0,0,1-3.27-.86c-1-.51-1.76-1.89-1-2.77-.33.72-1.39.55-2.13.26l-2-.77a2.59,2.59,0,0,1-1.2-.74.88.88,0,0,1,.13-1.26c-.57.77-1.77.38-2.62,0l-5.71-2.94,0,0c4.58-.61,9.09,1.43,13,3.82.48.29,1,.59,1.41.92A11,11,0,0,1,129.4,179" style="fill:#fff"/><path d="M139.2,190a37.48,37.48,0,0,1,16.89,6.83,31.74,31.74,0,0,1,8,8.32" style="fill:none"/><path d="M129.68,178.7l.09.93a25.8,25.8,0,0,1-3-1.54c-.88-.7-1.3-2.23-.41-2.93-.49.63-1.48.23-2.14-.21l-1.82-1.22a2.6,2.6,0,0,1-1-1,.89.89,0,0,1,.41-1.2c-.73.62-1.81,0-2.55-.61l-4.93-4.11h0c4.6.41,8.56,3.39,11.89,6.6a14.74,14.74,0,0,1,1.15,1.21,11,11,0,0,1,2.4,4.7" style="fill:#fff"/></svg>