<svg xmlns="http://www.w3.org/2000/svg" width="274" height="259" viewBox="0 0 274 259">
  <defs>
    <linearGradient id="a" x1="94.485%" x2="50%" y1="-29.223%" y2="100%">
      <stop stop-color="#54E1FF" offset="0%"/>
      <stop stop-color="#2AC0FF" offset="100%"/>
    </linearGradient>
    <linearGradient id="b" x1="79.014%" x2="50%" y1="17.103%" y2="100%">
      <stop stop-color="#23419D" offset="0%"/>
      <stop stop-color="#0F1E64" offset="100%"/>
    </linearGradient>
    <linearGradient id="c" x1="107.43%" x2="50%" y1="0%" y2="100%">
      <stop stop-color="#5B97FF" offset="0%"/>
      <stop stop-color="#2E5EFF" offset="100%"/>
    </linearGradient>
  </defs>
  <g fill="none" fill-rule="evenodd">
    <rect width="163.897" height="269" x="52.551" y="-52.551" fill="url(#a)" transform="rotate(-90 134.5 81.949)" rx="81.949"/>
    <g transform="translate(115)">
      <ellipse cx="79.5" cy="175.974" fill="url(#b)" rx="79.5" ry="83.026"/>
      <ellipse cx="79.5" cy="83.026" fill="url(#c)" rx="79.5" ry="83.026"/>
      <path fill="#FFFFFF" d="M101.15625,86.71875 C102.30209,87.23959 102.875,88.33332 102.875,90 L102.875,102.03125 L102.875,104.21875 C102.875,105.156255 102.58854,105.963538 102.01562,106.640625 C101.44271,107.317712 100.73959,107.65625 99.90625,107.65625 L53.96875,107.65625 C53.135413,107.65625 52.432295,107.317712 51.859375,106.640625 C51.2864555,105.963538 51,105.156255 51,104.21875 L51,102.03125 L51,90 C51,88.33332 51.6249938,87.23959 52.875,86.71875 L65.84375,80.78125 L70.84375,78.4375 C68.4479,76.97916 66.62501,74.94793 65.375,72.34375 C64.22916,70.05207 63.65625,67.50001 63.65625,64.6875 C63.65625,63.54166 63.86458,62.03126 64.28125,60.15625 C65.11459,56.92707 66.70311,54.29689 69.04688,52.26563 C71.39064,50.23436 74.02082,49.21875 76.9375,49.21875 C79.95835,49.21875 82.64061,50.26041 84.98438,52.34375 C87.32814,54.42709 88.91666,57.1354 89.75,60.46875 C90.0625,61.82292 90.21875,63.22916 90.21875,64.6875 C90.21875,67.08335 89.69792,69.47915 88.65625,71.875 C87.19791,74.89585 85.42709,77.03124 83.34375,78.28125 L88.5,80.78125 L101.15625,86.71875 Z"/>
    </g>
  </g>
</svg>
