<svg xmlns="http://www.w3.org/2000/svg" width="117" height="48"><path fill="#FFF" d="M100.672 48v-3.21h15.996v3.2l-15.996.01zm0-6.399v-3.21h15.996v3.2l-15.996.01zm0-6.398v-3.197h9.598v3.199l-9.598-.002zm0-6.399v-3.21h9.598v3.2l-9.598.01zm0-6.399v-3.209h9.598v3.2l-9.598.01zm-3.2-19.195l1.091-3.2h18.105v3.2H97.472zm-2.108 6.398l1.088-3.199h20.216v3.2H95.364zm-2.112 6.4l1.091-3.2h15.927v3.2H93.252zm-2.108 6.397l1.088-3.199h8.44l-1.034 3.2h-8.494zm0 25.585l-1.093-3.2h2.178l-1.085 3.2zm-2.112-6.4l-1.088-3.198h6.4l-1.092 3.199h-4.22zm-2.108-6.398l-1.008-3.186h10.481l-1.033 3.199-8.44-.013zm-2.111-6.398l-1.089-3.2h14.84l-1.092 3.2h-12.66zm-2.18-6.399l-1.02-3.199h8.438l1.09 3.2h-8.507zM72.016 35.192v-3.186h9.598v3.199l-9.598-.013zm0-9.597h9.598v3.199h-9.598v-3.2zm0-6.399h9.598v3.2h-9.598v-3.2zm0-3.2v-3.199h15.93l1.088 3.2H72.015zM65.617 44.79h15.996v3.2H65.617v-3.2zm0-6.398h15.996v3.199H65.617v-3.2zm0-28.794v-3.2h20.216l1.09 3.2H65.618zm0-6.398V0h18.107l1.089 3.2H65.617zm-14.43 28.793h10.822c.263 1.046.4 2.12.408 3.2h-11.23v-3.2zm0-19.196h11.23a13.59 13.59 0 0 1-.408 3.2H51.186v-3.2zM31.992 35.192v-3.186h9.598v3.199l-9.598-.013zm0-9.597h26.07c1.02.883 2.109 2.04 2.721 3.199H31.993v-3.2zm0-6.399h28.791c-.612 1.158-1.7 2.326-2.721 3.2h-26.07v-3.2zm0-6.399h9.598v3.2h-9.598v-3.2zM25.594 44.79h32.469c-2.246 1.975-5.378 3.2-8.985 3.2H25.594v-3.2zm0-6.398H62.01a10.6 10.6 0 0 1-1.36 3.199H25.595v-3.2zm0-31.993H60.65a10.564 10.564 0 0 1 1.36 3.199H25.593v-3.2zm0-6.399h23.484c3.618 0 6.74 1.225 8.985 3.2H25.594V0zM6.4 35.192v-3.186h9.597v3.199L6.4 35.192zm0-9.597h9.597v3.199H6.4v-3.2zm0-6.399h9.597v3.2H6.4v-3.2zm0-6.399h9.597v3.2H6.4v-3.2zM0 44.79h22.395v3.2H0v-3.2zm0-6.398h22.395v3.199H0v-3.2zM0 6.399h22.395v3.2H0v-3.2zM0 0h22.395v3.2H0V0z"/></svg>