<svg xmlns="http://www.w3.org/2000/svg" width="300" height="240" viewBox="0 0 300 240">
  <defs>
    <linearGradient id="a" x1="50%" x2="50%" y1="0%" y2="100%">
      <stop stop-color="#383838" stop-opacity="0" offset="0%"/>
      <stop stop-color="#2C2C2C" stop-opacity=".409" offset="30.391%"/>
      <stop stop-color="#292929" stop-opacity=".517" offset="73.699%"/>
      <stop stop-color="#1A1A1A" offset="100%"/>
    </linearGradient>
  </defs>
  <g fill="none" fill-rule="evenodd">
    <rect width="300" height="240" fill="#1A1A1A"/>
    <g transform="translate(20 68)">
      <rect width="260" height="50"/>
      <rect width="24" height="24" y="13"/>
      <text fill="#FFFFFF" font-family="MuseoSansCyrl-300, Museo Sans Cyrl" font-size="15" font-weight="300" letter-spacing="1">
        <tspan x="44" y="30">Материалы</tspan>
      </text>
    </g>
    <text fill="#FFFFFF" font-family="MuseoSansCyrl-700, Museo Sans Cyrl" font-size="20" font-weight="500" letter-spacing="1.222">
      <tspan x="20" y="39">whitepaper</tspan>
    </text>
    <path fill="#FFFFFF" fill-rule="nonzero" d="M16,0 L0,0 L0,20 L16,20 L16,0 Z M2,2 L7,2 L7,10 L4.5,8.5 L2,10 L2,2 Z" transform="translate(24 83)"/>
    <g transform="translate(20 118)">
      <rect width="260" height="50"/>
      <rect width="24" height="24" y="13"/>
      <g transform="translate(0 13)">
        <polygon points="0 0 24 0 24 24 0 24"/>
        <path fill="#FFFFFF" fill-rule="nonzero" d="M4,10.18 L4,14.18 L11,18 L18,14.18 L18,10.18 L11,14 L4,10.18 Z M11,0 L0,6 L11,12 L20,7.09 L20,14 L22,14 L22,6 L11,0 Z" transform="translate(1 3)"/>
      </g>
      <text fill="#FFFFFF" font-family="MuseoSansCyrl-300, Museo Sans Cyrl" font-size="15" font-weight="300" letter-spacing="1">
        <tspan x="44" y="30">Обучение</tspan>
      </text>
    </g>
    <g transform="translate(20 168)">
      <rect width="260" height="50"/>
      <rect width="24" height="24" y="13"/>
      <g transform="translate(0 13)">
        <polygon points="0 0 24 0 24 24 0 24"/>
        <path fill="#FFFFFF" fill-rule="nonzero" d="M3.87,18.21 L3.87,9.18 L0.68,16.88 L3.87,18.21 Z M22.79,15.78 L16.31,0.14 L5.26,4.71 L11.74,20.35 L22.79,15.78 Z M7.88,6.75 C7.33,6.75 6.88,6.3 6.88,5.75 C6.88,5.2 7.33,4.75 7.88,4.75 C8.43,4.75 8.88,5.2 8.88,5.75 C8.88,6.3 8.43,6.75 7.88,6.75 Z M5.88,19.75 L9.33,19.75 L5.88,11.41 L5.88,19.75 Z" transform="translate(0 2)"/>
      </g>
      <text fill="#FFFFFF" font-family="MuseoSansCyrl-300, Museo Sans Cyrl" font-size="15" font-weight="300" letter-spacing="1">
        <tspan x="44" y="30">Тема</tspan>
      </text>
    </g>
  </g>
</svg>
