<svg xmlns="http://www.w3.org/2000/svg" width="313" height="203" viewBox="0 0 313 203">
  <defs>
    <linearGradient id="a" x1="106.683%" x2="50%" y1="-7.993%" y2="100%">
      <stop stop-color="#0299FF" offset="0%"/>
      <stop stop-color="#0160FF" offset="100%"/>
    </linearGradient>
    <linearGradient id="b" x1="106.683%" x2="51.255%" y1="-7.993%" y2="97.609%">
      <stop stop-color="#00D0FF" offset="0%"/>
      <stop stop-color="#00B2FF" offset="100%"/>
    </linearGradient>
  </defs>
  <g fill="none" fill-rule="evenodd">
    <circle cx="211.5" cy="101.5" r="101.5" fill="url(#a)"/>
    <circle cx="101.5" cy="101.5" r="101.5" fill="url(#b)"/>
    <path fill="#FFFFFF" d="M127.937504,99.0156215 C128.875004,99.9531215 128.875004,100.890621 127.937504,101.828121 L96.218754,133.546871 C95.281254,134.484376 94.343754,134.484376 93.406254,133.546871 L67.781254,107.921871 C66.739582,106.880201 66.739582,105.890621 67.781254,104.953121 L89.500004,83.2343715 L80.593754,74.1718715 C79.760414,73.3385315 79.343754,72.4010415 79.343754,71.3593715 C79.343754,70.3177015 79.760414,69.3802115 80.593754,68.5468715 C81.427094,67.7135315 82.364584,67.2968715 83.406254,67.2968715 C84.447924,67.2968715 85.385414,67.7135315 86.218754,68.5468715 L95.125004,77.6093715 L99.343754,73.3906215 C100.385424,72.4531215 101.375004,72.4531215 102.312504,73.3906215 L127.937504,99.0156215 Z M112.156254,106.359371 L118.093754,100.421871 L100.906254,83.2343715 L77.625004,106.359371 L112.156254,106.359371 Z M134.343754,119.796871 C135.281254,121.046881 135.750004,122.453111 135.750004,124.015621 C135.750004,126.098965 135.020844,127.86978 133.562504,129.328121 C132.104164,130.786462 130.385434,131.515621 128.406254,131.515621 C126.322914,131.515621 124.552094,130.76042 123.093754,129.249996 C121.635414,127.739572 120.906254,125.994798 120.906254,124.015621 C120.906254,122.453111 121.427084,120.994791 122.468754,119.640621 L127.156254,111.515621 C127.156254,111.411451 127.156254,111.359371 127.156254,111.359371 L127.312504,111.359371 L127.312504,111.203121 C127.625004,110.890621 127.989584,110.734371 128.406254,110.734371 C128.718754,110.734371 129.083334,110.942701 129.500004,111.359371 L129.500004,111.515621 L134.343754,119.796871 Z"/>
  </g>
</svg>
