<?xml version="1.0" encoding="UTF-8"?>
<svg width="460px" height="460px" viewBox="0 0 460 460" version="1.1" xmlns="http://www.w3.org/2000/svg" xmlns:xlink="http://www.w3.org/1999/xlink">
    <!-- Generator: Sketch 50.2 (55047) - http://www.bohemiancoding.com/sketch -->
    <title>pt-surface</title>
    <desc>Created with Sketch.</desc>
    <defs></defs>
    <g id="pt-surface" stroke="none" stroke-width="1" fill="none" fill-rule="evenodd">
        <g transform="translate(30.000000, 50.000000)">
            <polygon id="Rectangle-7-Copy" fill="#000000" opacity="0.100000001" points="35 8 372 75 407 316 0 361"></polygon>
            <polygon id="Rectangle-4" fill="#000000" points="79 39.1074919 310 21 310 348 79 324.566775"></polygon>
            <path d="M63,69.0840477 L63,114.915952 L229,108.080658 L229,75.9193418 L63,69.0840477 Z" id="Rectangle-3-Copy-39" stroke="#000000" stroke-width="4" fill="#FFFFFF"></path>
            <path d="M99,137 L285,137" id="Path-2-Copy-3" stroke="#FFFFFF" stroke-width="4"></path>
            <path d="M99,159 L285,159" id="Path-2-Copy-4" stroke="#FFFFFF" stroke-width="4"></path>
            <path d="M99,181 L285,181" id="Path-2-Copy-4" stroke="#FFFFFF" stroke-width="4"></path>
            <path d="M99,203 L216,203" id="Path-2-Copy-4" stroke="#FFFFFF" stroke-width="4"></path>
            <polyline id="Path-3" stroke="#1373ED" stroke-width="4" points="99 293 109.503921 282 120.040937 291.953691 130.069444 282 140.055477 291.953691 150.05055 282 161 293"></polyline>
            <polyline id="Path-3-Copy" stroke="#1373ED" stroke-width="4" points="159 293 169.503921 282 180.040937 291.953691 190.069444 282 200.055477 291.953691 210.05055 282 221 293"></polyline>
            <circle id="Oval-2" fill="#1373ED" cx="306" cy="26" r="26"></circle>
        </g>
    </g>
</svg>