<svg xmlns="http://www.w3.org/2000/svg" width="460" height="320" viewBox="0 0 460 320" xmlns:xlink="http://www.w3.org/1999/xlink" style="background:#fff">
  <defs>
    <path id="a" d="M92.974359,18.0474934 L95.4361148,18.0474934 C96.3276335,18.0474934 96.6509198,18.140319 96.9768457,18.3146261 C97.3027716,18.4889332 97.5585602,18.7447218 97.7328673,19.0706477 C97.9071744,19.3965736 98,19.7198599 98,20.6113786 L98,38.042975 C98,38.9344937 97.9071744,39.2577799 97.7328673,39.5837059 C97.5585602,39.9096318 97.3027716,40.1654204 96.9768457,40.3397275 C96.6509198,40.5140345 96.3276335,40.6068602 95.4361148,40.6068602 L92.974359,40.6068602 L92.974359,18.0474934 Z"/>
    <path id="b" d="M1,31.0817942 L7.03589744,31.0817942 L7.03589744,45.1187335 L1,45.1187335 C0.44771525,45.1187335 6.76353751e-17,44.6710183 0,44.1187335 L0,32.0817942 C-6.76353751e-17,31.5295094 0.44771525,31.0817942 1,31.0817942 Z"/>
    <path id="c" d="M1,13.5356201 L7.03589744,13.5356201 L7.03589744,27.5725594 L1,27.5725594 C0.44771525,27.5725594 1.04869017e-15,27.1248441 0,26.5725594 L0,14.5356201 C-6.76353751e-17,13.9833353 0.44771525,13.5356201 1,13.5356201 Z"/>
    <path id="d" d="M1,0 L7.03589744,0 L7.03589744,7.51978892 L1,7.51978892 C0.44771525,7.51978892 6.76353751e-17,7.07207367 0,6.51978892 L0,1 C-6.76353751e-17,0.44771525 0.44771525,1.01453063e-16 1,0 Z"/>
    <path id="e" d="M22.8943397,-8.64046151e-16 L75.1056603,8.64046151e-16 C82.5422635,-5.02035696e-16 85.2389556,0.774304798 87.9576665,2.22828734 C90.6763775,3.68226988 92.8100378,5.81593017 94.2640204,8.53464115 C95.7180029,11.2533521 96.4923077,13.9500441 96.4923077,21.3866474 L96.4923077,168.613353 C96.4923077,176.049956 95.7180029,178.746648 94.2640204,181.465359 C92.8100378,184.18407 90.6763775,186.31773 87.9576665,187.771713 C85.2389556,189.225695 82.5422635,190 75.1056603,190 L22.8943397,190 C15.4577365,190 12.7610444,189.225695 10.0423335,187.771713 C7.32362248,186.31773 5.18996219,184.18407 3.73597965,181.465359 C2.28199711,178.746648 1.50769231,176.049956 1.50769231,168.613353 L1.50769231,21.3866474 C1.50769231,13.9500441 2.28199711,11.2533521 3.73597965,8.53464115 C5.18996219,5.81593017 7.32362248,3.68226988 10.0423335,2.22828734 C12.7610444,0.774304798 15.4577365,5.02035696e-16 22.8943397,-8.64046151e-16 Z"/>
    <path id="f" d="M8.54358974,2.9945282e-06 L14.6903756,-9.25080666e-07 C16.0096425,-8.22776163e-07 17.1740845,0.861854626 17.5595017,2.12356723 C18.4542453,5.05262511 20.1395396,6.51715405 22.6153846,6.51715405 C27.1384615,6.51715405 53.2717949,6.51715405 57.7948718,6.51715405 C60.2707137,6.51715405 61.9560068,5.05262879 62.8507513,2.12357828 L62.8507393,2.12357462 C63.2361585,0.861859985 64.400603,3.58027014e-06 65.7198724,3.48626042e-06 L72.6205128,2.99452819e-06 C77.7553445,2.62862559e-06 81.9179484,4.16260587 81.9179487,9.29743757 C81.9179487,9.2974378 81.9179487,9.297438 81.9179487,9.29743823 L81.9179487,166.632203 C81.9179487,172.339237 77.2914832,176.965703 71.5844487,176.965703 L10.3335,176.965703 C4.62646555,176.965703 1.70777783e-12,172.339237 1.70707892e-12,166.632203 L1.70530257e-12,8.54359208 C1.70472472e-12,3.82509812 3.82509512,2.99452817e-06 8.54358908,2.99452817e-06 C8.54358931,2.99452817e-06 8.54358952,2.99452818e-06 8.54358974,2.99452819e-06 Z"/>
  </defs>
  <g fill="none" fill-rule="evenodd" transform="translate(181 65)">
    <g transform="translate(0 26.069)">
      <use fill="#FFFFFF" xlink:href="#a"/>
      <path stroke="#0070F0" stroke-width=".5" d="M93.224359,18.2974934 L93.224359,40.3568602 L95.4361148,40.3568602 C96.2111902,40.3568602 96.529711,40.295351 96.858946,40.1192742 C97.1413048,39.968267 97.3614069,39.748165 97.512414,39.4658061 C97.6884908,39.1365711 97.75,38.8180504 97.75,38.042975 L97.75,20.6113786 C97.75,19.8363032 97.6884908,19.5177824 97.512414,19.1885474 C97.3614069,18.9061886 97.1413048,18.6860865 96.858946,18.5350794 C96.529711,18.3590026 96.2111902,18.2974934 95.4361148,18.2974934 L93.224359,18.2974934 Z"/>
      <use fill="#FFFFFF" xlink:href="#b"/>
      <path stroke="#0070F0" stroke-width=".5" d="M6.78589744,44.8687335 L6.78589744,31.3317942 L1,31.3317942 C0.585786438,31.3317942 0.25,31.6675806 0.25,32.0817942 L0.25,44.1187335 C0.25,44.5329471 0.585786438,44.8687335 1,44.8687335 L6.78589744,44.8687335 Z"/>
      <g>
        <use fill="#FFFFFF" xlink:href="#c"/>
        <path stroke="#0070F0" stroke-width=".5" d="M6.78589744,27.3225594 L6.78589744,13.7856201 L1,13.7856201 C0.585786438,13.7856201 0.25,14.1214065 0.25,14.5356201 L0.25,26.5725594 C0.25,26.9867729 0.585786438,27.3225594 1,27.3225594 L6.78589744,27.3225594 Z"/>
      </g>
      <g>
        <use fill="#FFFFFF" xlink:href="#d"/>
        <path stroke="#0070F0" stroke-width=".5" d="M6.78589744,7.26978892 L6.78589744,0.25 L1,0.25 C0.585786438,0.25 0.25,0.585786438 0.25,1 L0.25,6.51978892 C0.25,6.93400248 0.585786438,7.26978892 1,7.26978892 L6.78589744,7.26978892 Z"/>
      </g>
    </g>
    <use fill="#EDF8FF" xlink:href="#e"/>
    <path stroke="#0070F0" d="M22.8943397,0.5 C16.1897125,0.5 13.2855208,1.06082528 10.2781329,2.66919394 C7.64655614,4.07657658 5.58426889,6.13886384 4.17688625,8.77044058 C2.56851759,11.7778285 2.00769231,14.6820202 2.00769231,21.3866474 L2.00769231,168.613353 C2.00769231,175.31798 2.56851759,178.222172 4.17688625,181.229559 C5.58426889,183.861136 7.64655614,185.923423 10.2781329,187.330806 C13.2855208,188.939175 16.1897125,189.5 22.8943397,189.5 L75.1056603,189.5 C81.8102875,189.5 84.7144792,188.939175 87.7218671,187.330806 C90.3534439,185.923423 92.4157311,183.861136 93.8231138,181.229559 C95.4314824,178.222172 95.9923077,175.31798 95.9923077,168.613353 L95.9923077,21.3866474 C95.9923077,14.6820202 95.4314824,11.7778285 93.8231138,8.77044058 C92.4157311,6.13886384 90.3534439,4.07657658 87.7218671,2.66919394 C84.7144792,1.06082528 81.8102875,0.5 75.1056603,0.5 L22.8943397,0.5 Z"/>
    <path stroke="#0070F0" stroke-width=".5" d="M22.6086805,2.75659631 C16.7535012,2.75659631 14.2005423,3.24959541 11.5562812,4.66376171 C9.23688534,5.90418818 7.41810469,7.72296883 6.17767822,10.0423647 C4.76351193,12.6866257 4.27051282,15.2395846 4.27051282,21.094764 L4.27051282,168.905236 C4.27051282,174.760415 4.76351193,177.313374 6.17767822,179.957635 C7.41810469,182.277031 9.23688534,184.095812 11.5562812,185.336238 C14.2005423,186.750405 16.7535012,187.243404 22.6086805,187.243404 L75.3913195,187.243404 C81.2464988,187.243404 83.7994577,186.750405 86.4437188,185.336238 C88.7631147,184.095812 90.5818953,182.277031 91.8223218,179.957635 C93.2364881,177.313374 93.7294872,174.760415 93.7294872,168.905236 L93.7294872,21.094764 C93.7294872,15.2395846 93.2364881,12.6866257 91.8223218,10.0423647 C90.5818953,7.72296883 88.7631147,5.90418818 86.4437188,4.66376171 C83.7994577,3.24959541 81.2464988,2.75659631 75.3913195,2.75659631 L22.6086805,2.75659631 Z"/>
    <path stroke="#0070F0" stroke-width=".5" d="M41.4596712,7.26846966 C41.1824359,7.26846966 40.9576923,7.49321326 40.9576923,7.77044855 C40.9576923,8.04768384 41.1824359,8.27242744 41.4596712,8.27242744 L50.3978787,8.27242744 C50.6751139,8.27242744 50.8998575,8.04768384 50.8998575,7.77044855 C50.8998575,7.49321326 50.6751139,7.26846966 50.3978787,7.26846966 L41.4596712,7.26846966 Z"/>
    <ellipse cx="56.134" cy="7.77" stroke="#0070F0" stroke-width=".5" rx="1.411" ry="1.505"/>
    <g transform="translate(8.041 6.517)">
      <use fill="#FFFFFF" xlink:href="#f"/>
      <path stroke="#0070F0" stroke-width=".5" d="M8.54358908,0.250002995 C3.96316631,0.250002995 0.25,3.9631693 0.25,8.54359208 L0.25,166.632203 C0.25,172.201166 4.76453674,176.715703 10.3335,176.715703 L71.5844487,176.715703 C77.153412,176.715703 81.6679487,172.201166 81.6679487,166.632203 L81.6679487,9.29743758 C81.6679484,4.30067708 77.6172733,0.250002638 72.6205128,0.250002995 L65.7198724,0.250003486 C64.5105398,0.250003572 63.4431344,1.04004039 63.0898448,2.19661476 C62.1650201,5.2241364 60.3894023,6.76715405 57.7948718,6.76715405 C54.2041178,6.76715405 54.2041178,6.76715405 47.2803079,6.76715405 C43.8272041,6.76715405 43.8272041,6.76715405 40.2051282,6.76715405 C28.7089744,6.76715405 28.7089744,6.76715405 22.6153846,6.76715405 C20.0208509,6.76715405 18.245232,5.22413256 17.3204082,2.19660348 C16.9671091,1.04003344 15.8997037,0.249999169 14.6903758,0.249999075 L8.5435899,0.250002995 Z"/>
    </g>
  </g>
</svg>
