<svg xmlns="http://www.w3.org/2000/svg" width="460" height="320" viewBox="0 0 460 320" xmlns:xlink="http://www.w3.org/1999/xlink" style="background:#fff">
  <defs>
    <path id="a" d="M12.819426,-5.7361339e-14 L160.180574,-5.63254987e-14 C164.638168,-5.71443454e-14 166.254599,0.464128056 167.884229,1.33566352 C169.513858,2.20719898 170.792801,3.48614185 171.664336,5.11577148 C172.535872,6.74540111 173,8.3618323 173,12.819426 L173,234.180574 C173,238.638168 172.535872,240.254599 171.664336,241.884229 C170.792801,243.513858 169.513858,244.792801 167.884229,245.664336 C166.254599,246.535872 164.638168,247 160.180574,247 L12.819426,247 C8.3618323,247 6.74540111,246.535872 5.11577148,245.664336 C3.48614185,244.792801 2.20719898,243.513858 1.33566352,241.884229 C0.464128056,240.254599 2.86223271e-14,238.638168 2.80764293e-14,234.180574 L2.87669895e-14,12.819426 C2.82210917e-14,8.3618323 0.464128056,6.74540111 1.33566352,5.11577148 C2.20719898,3.48614185 3.48614185,2.20719898 5.11577148,1.33566352 C6.74540111,0.464128056 8.3618323,-5.65424923e-14 12.819426,-5.7361339e-14 Z"/>
    <rect id="b" width="153.778" height="204.966" x="-.001"/>
  </defs>
  <g fill="none" fill-rule="evenodd" transform="translate(136 37)">
    <use fill="#EDF8FF" xlink:href="#a"/>
    <path stroke="#0070F0" stroke-width=".8" d="M12.819426,0.4 C8.81572876,0.4 7.09056123,0.733145218 5.30441103,1.6883888 C3.74448879,2.52264434 2.52264434,3.74448879 1.6883888,5.30441103 C0.733145218,7.09056123 0.4,8.81572876 0.4,12.819426 L0.4,234.180574 C0.4,238.184271 0.733145218,239.909439 1.6883888,241.695589 C2.52264434,243.255511 3.74448879,244.477356 5.30441103,245.311611 C7.09056123,246.266855 8.81572876,246.6 12.819426,246.6 L160.180574,246.6 C164.184271,246.6 165.909439,246.266855 167.695589,245.311611 C169.255511,244.477356 170.477356,243.255511 171.311611,241.695589 C172.266855,239.909439 172.6,238.184271 172.6,234.180574 L172.6,12.819426 C172.6,8.81572876 172.266855,7.09056123 171.311611,5.30441103 C170.477356,3.74448879 169.255511,2.52264434 167.695589,1.6883888 C165.909439,0.733145218 164.184271,0.4 160.180574,0.4 L12.819426,0.4 Z"/>
    <ellipse cx="86.5" cy="236.592" stroke="#0070F0" stroke-width=".5" rx="4.556" ry="4.554"/>
    <ellipse cx="86.3" cy="11.009" stroke="#0070F0" stroke-width=".5" rx="1.152" ry="1.151"/>
    <g transform="translate(9.611 21.217)">
      <use fill="#FFFFFF" xlink:href="#b"/>
      <rect width="154.278" height="205.466" x="-.251" y="-.25" stroke="#0070F0" stroke-width=".5"/>
    </g>
  </g>
</svg>
