<svg xmlns="http://www.w3.org/2000/svg" width="460" height="320" viewBox="0 0 460 320" xmlns:xlink="http://www.w3.org/1999/xlink" style="background:#fff">
  <defs>
    <path id="a" d="M0.449541284,1.13686838e-13 C0.183025734,1.13686838e-13 -9.9475983e-13,0.18612055 -9.9475983e-13,0.462831211 L-9.9475983e-13,186.983809 C-9.9475983e-13,187.261153 0.183025734,187.44664 0.449541284,187.44664 L298.944954,187.44664 C299.21147,187.44664 299.394495,187.261153 299.394495,186.983809 L299.394495,0.462831211 C299.394495,0.18612055 299.21147,1.13686838e-13 298.944954,1.13686838e-13 L0.449541284,1.13686838e-13 Z"/>
  </defs>
  <g fill="none" fill-rule="evenodd" transform="translate(34 46)">
    <path fill="#EDF8FF" stroke="#0070F0" stroke-width=".9" d="M39.559633,223.944664 C37.0361841,223.944664 35.9633028,222.384285 35.9633028,218.988142 L35.9633028,9.91304348 C35.9633028,4.38392086 40.3421555,0 45.853211,0 L344.348624,0 C349.859679,0 354.238532,4.38392086 354.238532,9.91304348 L354.238532,218.988142 C354.238532,222.384285 353.166275,223.944664 350.642202,223.944664 L39.559633,223.944664 Z"/>
    <path fill="#EDF8FF" stroke="#0070F0" stroke-width=".9" d="M16.1834862,228 C7.07057823,228 3.51572024,224.839932 0.899082569,223.494071 C0.331801165,223.20537 0,222.656924 0,222.142292 L0,215.833992 L392,215.833992 L392,222.142292 C392,222.657558 391.667575,223.206004 391.100917,223.494071 C388.48428,224.839932 384.929422,228 375.816514,228 L16.1834862,228 Z"/>
    <path fill="#EDF8FF" stroke="#0070F0" stroke-width=".9" d="M172.623853,219.438735 C170.430422,219.438735 169.354166,216.809612 169.027523,215.833992 L222.522936,215.833992 C222.196292,216.809612 221.120037,219.438735 218.926606,219.438735 L172.623853,219.438735 Z"/>
    <ellipse cx="195.326" cy="7.885" stroke="#0070F0" stroke-width=".5" rx="1.323" ry="1.327"/>
    <g transform="translate(45.404 15.77)">
      <use fill="#FFFFFF" xlink:href="#a"/>
      <path stroke="#0070F0" stroke-width=".5" d="M0.449541284,0.25 C0.321745774,0.25 0.25,0.323604132 0.25,0.462831211 L0.25,186.983809 C0.25,187.123391 0.321469411,187.19664 0.449541284,187.19664 L298.944954,187.19664 C299.073026,187.19664 299.144495,187.123391 299.144495,186.983809 L299.144495,0.462831211 C299.144495,0.323604132 299.07275,0.25 298.944954,0.25 L0.449541284,0.25 Z"/>
    </g>
  </g>
</svg>
