<svg xmlns="http://www.w3.org/2000/svg" width="1518" height="262" viewBox="0 0 1518 262">
  <g fill="#000000" fill-rule="evenodd" transform="translate(0 -11)">
    <path d="M31.9121068,137.927152 L0,39.0728477 L20.165319,39.0728477 L40.7221976,108.427152 C42.288436,113.506623 43.0715552,118.976821 43.267335,118.976821 L43.6588945,118.976821 C43.6588945,118.976821 44.6377935,113.506623 46.2040319,108.427152 L67.7398095,39.2682119 L85.1642113,39.2682119 L106.504209,108.427152 C108.070447,113.506623 109.245126,118.976821 109.245126,118.976821 L109.636686,118.976821 C109.636686,118.976821 110.419805,113.506623 111.986043,108.427152 L132.738702,39.0728477 L152.708241,39.0728477 L120.796134,137.927152 L99.847696,137.927152 L79.2908174,74.4337748 C77.7245791,69.3543046 76.5499003,63.6887417 76.5499003,63.6887417 L76.1583407,63.6887417 C76.1583407,63.6887417 74.9836619,69.3543046 73.4174236,74.4337748 L53.0563248,137.927152 L31.9121068,137.927152 Z M170.020769,137.927152 L170.020769,0 L189.011409,0 L189.011409,50.5993377 C189.011409,55.2880795 188.619849,58.8046358 188.619849,58.8046358 L189.011409,58.8046358 C193.318564,49.2317881 205.848471,36.7284768 225.622231,36.7284768 C248.920027,36.7284768 259.687915,49.4271523 259.687915,74.6291391 L259.687915,137.927152 L240.697275,137.927152 L240.697275,78.9271523 C240.697275,65.0562914 237.760578,54.115894 221.902415,54.115894 C207.02315,54.115894 194.689023,64.2748344 190.577647,78.5364238 C189.402969,82.4437086 189.011409,86.9370861 189.011409,91.6258278 L189.011409,137.927152 L170.020769,137.927152 Z M286.985213,19.3410596 L286.985213,0 L306.171633,0 L306.171633,19.3410596 L286.985213,19.3410596 Z M287.180992,137.927152 L287.180992,39.0728477 L306.171633,39.0728477 L306.171633,137.927152 L287.180992,137.927152 Z M339.146544,101.784768 L339.146544,55.6788079 L326.225078,55.6788079 L326.225078,40.4403974 L339.733883,40.4403974 L339.733883,11.9172185 L358.137184,11.9172185 L358.137184,40.4403974 L382.022319,40.4403974 L382.022319,55.6788079 L358.137184,55.6788079 L358.137184,99.6357616 C358.137184,119.36755 372.03755,121.907285 379.281402,121.907285 C382.022319,121.907285 383.784338,121.516556 383.784338,121.516556 L383.784338,138.317881 C383.784338,138.317881 381.04342,138.708609 377.127825,138.708609 C364.402138,138.708609 339.146544,134.801325 339.146544,101.784768 Z M397.377049,88.5 C397.377049,57.0463576 418.717047,36.7284768 446.909338,36.7284768 C474.905848,36.7284768 489.785113,57.4370861 489.785113,83.0298013 C489.785113,85.5695364 489.197774,91.2350993 489.197774,91.2350993 L416.955029,91.2350993 C417.933928,112.92053 433.400532,123.860927 451.020713,123.860927 C468.053556,123.860927 480.387683,112.334437 480.387683,112.334437 L488.218875,126.205298 C488.218875,126.205298 473.53539,140.271523 449.846035,140.271523 C418.717047,140.271523 397.377049,117.804636 397.377049,88.5 Z M417.542368,76.9735099 L470.402913,76.9735099 C469.815574,59.9768212 459.243465,51.7715232 446.517778,51.7715232 C432.030073,51.7715232 420.283285,60.7582781 417.542368,76.9735099 Z M511.992136,177 L511.992136,39.0728477 L529.416537,39.0728477 L529.416537,47.4735099 C529.416537,51.3807947 529.024978,54.7019868 529.024978,54.7019868 L529.416537,54.7019868 C529.416537,54.7019868 537.835069,36.7284768 562.699103,36.7284768 C589.325155,36.7284768 606.162218,57.8278146 606.162218,88.5 C606.162218,119.953642 587.171577,140.271523 561.328644,140.271523 C539.597087,140.271523 530.982776,124.056291 530.982776,124.056291 L530.591216,124.056291 C530.591216,124.056291 530.982776,127.572848 530.982776,132.652318 L530.982776,177 L511.992136,177 Z M530.395436,88.8907285 C530.395436,106.47351 540.184426,124.056291 558.391947,124.056291 C574.054331,124.056291 586.975798,111.162252 586.975798,88.6953642 C586.975798,67.205298 575.42479,53.3344371 558.979287,53.3344371 C544.100022,53.3344371 530.395436,63.6887417 530.395436,88.8907285 Z M620.538048,110.18543 C620.538048,77.5596026 663.609603,76.192053 680.250886,76.192053 L684.558042,76.192053 L684.558042,74.4337748 C684.558042,58.218543 675.356391,52.7483444 662.826484,52.7483444 C647.55566,52.7483444 635.221533,62.3211921 635.221533,62.3211921 L627.390341,48.4503311 C627.390341,48.4503311 641.682266,36.7284768 664.392723,36.7284768 C689.452537,36.7284768 703.548682,50.4039735 703.548682,75.410596 L703.548682,137.927152 L685.9285,137.927152 L685.9285,128.549669 C685.9285,124.056291 686.32006,120.735099 686.32006,120.735099 L685.9285,120.735099 C685.9285,120.735099 677.901529,140.271523 654.212173,140.271523 C637.179331,140.271523 620.538048,129.917219 620.538048,110.18543 Z M639.724468,109.208609 C639.724468,117.218543 645.989422,125.033113 658.323549,125.033113 C674.377492,125.033113 684.753821,108.231788 684.753821,93.5794702 L684.753821,90.4536424 L679.859327,90.4536424 C665.567401,90.4536424 639.724468,91.4304636 639.724468,109.208609 Z M731.041759,177 L731.041759,39.0728477 L748.466161,39.0728477 L748.466161,47.4735099 C748.466161,51.3807947 748.074601,54.7019868 748.074601,54.7019868 L748.466161,54.7019868 C748.466161,54.7019868 756.884692,36.7284768 781.748726,36.7284768 C808.374778,36.7284768 825.211841,57.8278146 825.211841,88.5 C825.211841,119.953642 806.221201,140.271523 780.378268,140.271523 C758.64671,140.271523 750.032399,124.056291 750.032399,124.056291 L749.64084,124.056291 C749.64084,124.056291 750.032399,127.572848 750.032399,132.652318 L750.032399,177 L731.041759,177 Z M749.44506,88.8907285 C749.44506,106.47351 759.23405,124.056291 777.441571,124.056291 C793.103954,124.056291 806.025421,111.162252 806.025421,88.6953642 C806.025421,67.205298 794.474413,53.3344371 778.02891,53.3344371 C763.149646,53.3344371 749.44506,63.6887417 749.44506,88.8907285 Z M840.76235,88.5 C840.76235,57.0463576 862.102348,36.7284768 890.294639,36.7284768 C918.29115,36.7284768 933.170414,57.4370861 933.170414,83.0298013 C933.170414,85.5695364 932.583075,91.2350993 932.583075,91.2350993 L860.34033,91.2350993 C861.319229,112.92053 876.785833,123.860927 894.406015,123.860927 C911.438857,123.860927 923.772984,112.334437 923.772984,112.334437 L931.604176,126.205298 C931.604176,126.205298 916.920691,140.271523 893.231336,140.271523 C862.102348,140.271523 840.76235,117.804636 840.76235,88.5 Z M860.927669,76.9735099 L913.788214,76.9735099 C913.200875,59.9768212 902.628766,51.7715232 889.903079,51.7715232 C875.415374,51.7715232 863.668587,60.7582781 860.927669,76.9735099 Z M955.377437,137.927152 L955.377437,39.0728477 L973.780738,39.0728477 L973.780738,56.2649007 C973.780738,60.3675497 973.389178,63.6887417 973.389178,63.6887417 L973.780738,63.6887417 C978.283673,49.2317881 989.834681,37.9006623 1005.10551,37.9006623 C1007.65064,37.9006623 1010,38.2913907 1010,38.2913907 L1010,57.0463576 C1010,57.0463576 1007.45486,56.4602649 1004.51817,56.4602649 C992.379818,56.4602649 981.22037,65.0562914 976.717435,79.7086093 C974.955416,85.3741722 974.368077,91.4304636 974.368077,97.486755 L974.368077,137.927152 L955.377437,137.927152 Z" transform="translate(508 96)"/>
    <g transform="translate(0 11)">
      <path d="M201.130868,253.206743 C192.62542,250.50171 187.831221,241.11176 190.422725,232.233703 L232.574823,87.8276844 C234.775898,80.2871712 231.659841,72.1631395 225.081536,68.2915541 C217.336364,63.7332231 207.517493,66.5917266 203.150474,74.6762005 L116.069848,235.884786 C114.327638,239.110064 111.61371,241.644453 108.349697,243.094214 C100.168129,246.72818 90.7133857,242.751063 87.2319361,234.211075 L1.28564343,23.3850223 C-1.08597947,17.5674369 -0.128711155,10.8527327 3.76296239,6.00800929 C9.47578692,-1.10385518 19.6302837,-2.03511813 26.4436658,3.92797527 L305.298176,247.982319 C306.395782,248.942947 307.582748,249.786489 308.841324,250.500333 C319.258129,256.408573 332.291175,252.38372 337.951448,241.510573 L414.114822,95.203928 C418.437196,86.9008277 416.915899,76.6070985 410.397298,70.0496247 C402.394522,61.9991255 389.654674,62.2446455 381.942052,70.5980089 L217.415447,248.792973 C213.214144,253.343307 206.922342,255.048636 201.130868,253.206743 Z"/>
      <path stroke="#000000" stroke-width="2" d="M47.2981762,183.982319 C48.3957822,184.942947 49.5827475,185.786489 50.8413238,186.500333 C61.2581287,192.408573 74.2911754,188.38372 79.9514484,177.510573 L156.114822,31.203928 C160.437196,22.9008277 158.915899,12.6070985 152.397298,6.04962472 C144.394522,-2.00087448 131.654674,-1.75535454 123.942052,6.59800886 L0,142 L47.2981762,183.982319 Z" transform="translate(258 64)"/>
    </g>
  </g>
</svg>
