<svg xmlns="http://www.w3.org/2000/svg" xmlns:xlink="http://www.w3.org/1999/xlink" width="1280" height="1216" style="background:#0070f0"><defs><path id="a" d="M0 0h1284v162H0z"/><path id="b" d="M142 96h170v26H142V96zm208 0h170v26H350V96zm207 0h170v26H557V96zm208 0h170v26H765V96zm207 0h170v26H972V96z"/><path id="c" d="M0 0h360v280H0z"/><path id="e" d="M0 0h360v280H0z"/><path id="g" d="M0 0h360v280H0z"/><path id="i" d="M0 0h262v240H0z"/><path id="k" d="M0 0h262v240H0z"/><path id="m" d="M0 0h262v240H0z"/><path id="o" d="M0 0h262v240H0z"/><path id="q" d="M0 0h556v320H0z"/><path id="s" d="M0 0h556v320H0z"/></defs><g fill="none" fill-rule="evenodd"><g stroke="#FFF" opacity=".8"><path opacity=".3" d="M68.5 192.5h65v903h-65zM166.5 192.5h65v903h-65zM264.5 192.5h65v903h-65zM362.5 192.5h65v903h-65zM460.5 192.5h65v903h-65zM558.5 192.5h65v903h-65zM656.5 192.5h65v903h-65zM754.5 192.5h65v903h-65zM852.5 192.5h65v903h-65zM950.5 192.5h65v903h-65zM1048.5 192.5h65v903h-65zM1146.5 192.5h65v903h-65z"/></g><g opacity=".3" transform="translate(-2 -2)"><use stroke="#FFF" stroke-width="4" xlink:href="#a"/><use fill="#0070F0" xlink:href="#b"/><path stroke="#FFF" d="M142.5 96.5v25h169v-25h-169zm208 0v25h169v-25h-169zm207 0v25h169v-25h-169zm208 0v25h169v-25h-169zm207 0v25h169v-25h-169z"/></g><g opacity=".3" transform="translate(68 816)"><mask id="d" fill="#fff"><use xlink:href="#c"/></mask><path stroke="#FFF" stroke-width="4" d="M2 2h356v276H2z"/><g stroke="#FFF" stroke-linecap="square" mask="url(#d)"><path d="M443.846-32L-1180 1594.346M424.846-32L-1199 1594.346M405.846-32L-1218 1594.346M386.846-32L-1237 1594.346M367.846-32L-1256 1594.346M348.846-32L-1275 1594.346M329.846-32L-1294 1594.346M310.846-32L-1313 1594.346M291.846-32L-1332 1594.346M272.846-32L-1351 1594.346M253.846-32L-1370 1594.346M234.846-32L-1389 1594.346M215.846-32L-1408 1594.346M196.846-32L-1427 1594.346M177.846-32L-1446 1594.346M158.846-32L-1465 1594.346M139.846-32L-1484 1594.346M120.846-32L-1503 1594.346M101.846-32L-1522 1594.346M82.846-32L-1541 1594.346M63.846-32L-1560 1594.346M44.846-32L-1579 1594.346M25.846-32L-1598 1594.346M6.846-32L-1617 1594.346M-12.154-32L-1636 1594.346M-31.154-32L-1655 1594.346M-50.154-32L-1674 1594.346M463-32l-1623 1626.346M483-32l-1623 1626.346M503-32l-1623 1626.346M523-32l-1623 1626.346M543-32l-1623 1626.346M563-32l-1623 1626.346M583-32l-1623 1626.346M603-32l-1623 1626.346M623-32l-1623 1626.346M643-32L-980 1594.346M663-32L-960 1594.346M683-32L-940 1594.346M703-32L-920 1594.346M723-32L-900 1594.346M743-32L-880 1594.346M763-32L-860 1594.346M783-32L-840 1594.346M803-32L-820 1594.346M823-32L-800 1594.346M843-32L-780 1594.346M863-32L-760 1594.346M883-32L-740 1594.346M903-32L-720 1594.346M923-32L-700 1594.346M943-32L-680 1594.346M963-32L-660 1594.346M983-32L-640 1594.346M997-27L-626 1599.346M1011-22L-612 1604.346M1025-17L-598 1609.346M1039-12L-584 1614.346M1053-7L-570 1619.346"/></g></g><g opacity=".33" transform="translate(460 816)"><mask id="f" fill="#fff"><use xlink:href="#e"/></mask><path stroke="#FFF" stroke-width="4" d="M2 2h356v276H2z"/><g stroke="#FFF" stroke-linecap="square" mask="url(#f)"><path d="M443.846-32L-1180 1594.346M424.846-32L-1199 1594.346M405.846-32L-1218 1594.346M386.846-32L-1237 1594.346M367.846-32L-1256 1594.346M348.846-32L-1275 1594.346M329.846-32L-1294 1594.346M310.846-32L-1313 1594.346M291.846-32L-1332 1594.346M272.846-32L-1351 1594.346M253.846-32L-1370 1594.346M234.846-32L-1389 1594.346M215.846-32L-1408 1594.346M196.846-32L-1427 1594.346M177.846-32L-1446 1594.346M158.846-32L-1465 1594.346M139.846-32L-1484 1594.346M120.846-32L-1503 1594.346M101.846-32L-1522 1594.346M82.846-32L-1541 1594.346M63.846-32L-1560 1594.346M44.846-32L-1579 1594.346M25.846-32L-1598 1594.346M6.846-32L-1617 1594.346M-12.154-32L-1636 1594.346M-31.154-32L-1655 1594.346M-50.154-32L-1674 1594.346M463-32l-1623 1626.346M483-32l-1623 1626.346M503-32l-1623 1626.346M523-32l-1623 1626.346M543-32l-1623 1626.346M563-32l-1623 1626.346M583-32l-1623 1626.346M603-32l-1623 1626.346M623-32l-1623 1626.346M643-32L-980 1594.346M663-32L-960 1594.346M683-32L-940 1594.346M703-32L-920 1594.346M723-32L-900 1594.346M743-32L-880 1594.346M763-32L-860 1594.346M783-32L-840 1594.346M803-32L-820 1594.346M823-32L-800 1594.346M843-32L-780 1594.346M863-32L-760 1594.346M883-32L-740 1594.346M903-32L-720 1594.346M923-32L-700 1594.346M943-32L-680 1594.346M963-32L-660 1594.346M983-32L-640 1594.346M997-27L-626 1599.346M1011-22L-612 1604.346M1025-17L-598 1609.346M1039-12L-584 1614.346M1053-7L-570 1619.346"/></g></g><g opacity=".3" transform="translate(852 816)"><mask id="h" fill="#fff"><use xlink:href="#g"/></mask><path stroke="#FFF" stroke-width="4" d="M2 2h356v276H2z"/><g stroke="#FFF" stroke-linecap="square" mask="url(#h)"><path d="M443.846-32L-1180 1594.346M424.846-32L-1199 1594.346M405.846-32L-1218 1594.346M386.846-32L-1237 1594.346M367.846-32L-1256 1594.346M348.846-32L-1275 1594.346M329.846-32L-1294 1594.346M310.846-32L-1313 1594.346M291.846-32L-1332 1594.346M272.846-32L-1351 1594.346M253.846-32L-1370 1594.346M234.846-32L-1389 1594.346M215.846-32L-1408 1594.346M196.846-32L-1427 1594.346M177.846-32L-1446 1594.346M158.846-32L-1465 1594.346M139.846-32L-1484 1594.346M120.846-32L-1503 1594.346M101.846-32L-1522 1594.346M82.846-32L-1541 1594.346M63.846-32L-1560 1594.346M44.846-32L-1579 1594.346M25.846-32L-1598 1594.346M6.846-32L-1617 1594.346M-12.154-32L-1636 1594.346M-31.154-32L-1655 1594.346M-50.154-32L-1674 1594.346M463-32l-1623 1626.346M483-32l-1623 1626.346M503-32l-1623 1626.346M523-32l-1623 1626.346M543-32l-1623 1626.346M563-32l-1623 1626.346M583-32l-1623 1626.346M603-32l-1623 1626.346M623-32l-1623 1626.346M643-32L-980 1594.346M663-32L-960 1594.346M683-32L-940 1594.346M703-32L-920 1594.346M723-32L-900 1594.346M743-32L-880 1594.346M763-32L-860 1594.346M783-32L-840 1594.346M803-32L-820 1594.346M823-32L-800 1594.346M843-32L-780 1594.346M863-32L-760 1594.346M883-32L-740 1594.346M903-32L-720 1594.346M923-32L-700 1594.346M943-32L-680 1594.346M963-32L-660 1594.346M983-32L-640 1594.346M997-27L-626 1599.346M1011-22L-612 1604.346M1025-17L-598 1609.346M1039-12L-584 1614.346M1053-7L-570 1619.346"/></g></g><g opacity=".3" transform="translate(950 544)"><mask id="j" fill="#fff"><use xlink:href="#i"/></mask><path stroke="#FFF" stroke-width="4" d="M2 2h258v236H2z"/><g stroke="#FFF" stroke-linecap="square" mask="url(#j)"><path d="M345.846-32L-1278 1594.346M326.846-32L-1297 1594.346M307.846-32L-1316 1594.346M288.846-32L-1335 1594.346M269.846-32L-1354 1594.346M250.846-32L-1373 1594.346M231.846-32L-1392 1594.346M212.846-32L-1411 1594.346M193.846-32L-1430 1594.346M174.846-32L-1449 1594.346M155.846-32L-1468 1594.346M136.846-32L-1487 1594.346M117.846-32L-1506 1594.346M98.846-32L-1525 1594.346M79.846-32L-1544 1594.346M60.846-32L-1563 1594.346M41.846-32L-1582 1594.346M22.846-32L-1601 1594.346M3.846-32L-1620 1594.346M-15.154-32L-1639 1594.346M-34.154-32L-1658 1594.346M-53.154-32L-1677 1594.346M-72.154-32L-1696 1594.346M-91.154-32L-1715 1594.346M-110.154-32L-1734 1594.346M-129.154-32L-1753 1594.346M-148.154-32L-1772 1594.346M365-32l-1623 1626.346M385-32l-1623 1626.346M405-32l-1623 1626.346M425-32l-1623 1626.346M445-32l-1623 1626.346M465-32l-1623 1626.346M485-32l-1623 1626.346M505-32l-1623 1626.346M525-32l-1623 1626.346M545-32l-1623 1626.346M565-32l-1623 1626.346M585-32l-1623 1626.346M605-32l-1623 1626.346M625-32L-998 1594.346M645-32L-978 1594.346M665-32L-958 1594.346M685-32L-938 1594.346M705-32L-918 1594.346M725-32L-898 1594.346M745-32L-878 1594.346M765-32L-858 1594.346M785-32L-838 1594.346M805-32L-818 1594.346M825-32L-798 1594.346M845-32L-778 1594.346M865-32L-758 1594.346M885-32L-738 1594.346"/></g></g><g opacity=".3" transform="translate(656 544)"><mask id="l" fill="#fff"><use xlink:href="#k"/></mask><path stroke="#FFF" stroke-width="4" d="M2 2h258v236H2z"/><g stroke="#FFF" stroke-linecap="square" mask="url(#l)"><path d="M345.846-32L-1278 1594.346M326.846-32L-1297 1594.346M307.846-32L-1316 1594.346M288.846-32L-1335 1594.346M269.846-32L-1354 1594.346M250.846-32L-1373 1594.346M231.846-32L-1392 1594.346M212.846-32L-1411 1594.346M193.846-32L-1430 1594.346M174.846-32L-1449 1594.346M155.846-32L-1468 1594.346M136.846-32L-1487 1594.346M117.846-32L-1506 1594.346M98.846-32L-1525 1594.346M79.846-32L-1544 1594.346M60.846-32L-1563 1594.346M41.846-32L-1582 1594.346M22.846-32L-1601 1594.346M3.846-32L-1620 1594.346M-15.154-32L-1639 1594.346M-34.154-32L-1658 1594.346M-53.154-32L-1677 1594.346M-72.154-32L-1696 1594.346M-91.154-32L-1715 1594.346M-110.154-32L-1734 1594.346M-129.154-32L-1753 1594.346M-148.154-32L-1772 1594.346M365-32l-1623 1626.346M385-32l-1623 1626.346M405-32l-1623 1626.346M425-32l-1623 1626.346M445-32l-1623 1626.346M465-32l-1623 1626.346M485-32l-1623 1626.346M505-32l-1623 1626.346M525-32l-1623 1626.346M545-32l-1623 1626.346M565-32l-1623 1626.346M585-32l-1623 1626.346M605-32l-1623 1626.346M625-32L-998 1594.346M645-32L-978 1594.346M665-32L-958 1594.346M685-32L-938 1594.346M705-32L-918 1594.346M725-32L-898 1594.346M745-32L-878 1594.346M765-32L-858 1594.346M785-32L-838 1594.346M805-32L-818 1594.346M825-32L-798 1594.346M845-32L-778 1594.346M865-32L-758 1594.346M885-32L-738 1594.346"/></g></g><g opacity=".3" transform="translate(362 544)"><mask id="n" fill="#fff"><use xlink:href="#m"/></mask><path stroke="#FFF" stroke-width="4" d="M2 2h258v236H2z"/><g stroke="#FFF" stroke-linecap="square" mask="url(#n)"><path d="M345.846-32L-1278 1594.346M326.846-32L-1297 1594.346M307.846-32L-1316 1594.346M288.846-32L-1335 1594.346M269.846-32L-1354 1594.346M250.846-32L-1373 1594.346M231.846-32L-1392 1594.346M212.846-32L-1411 1594.346M193.846-32L-1430 1594.346M174.846-32L-1449 1594.346M155.846-32L-1468 1594.346M136.846-32L-1487 1594.346M117.846-32L-1506 1594.346M98.846-32L-1525 1594.346M79.846-32L-1544 1594.346M60.846-32L-1563 1594.346M41.846-32L-1582 1594.346M22.846-32L-1601 1594.346M3.846-32L-1620 1594.346M-15.154-32L-1639 1594.346M-34.154-32L-1658 1594.346M-53.154-32L-1677 1594.346M-72.154-32L-1696 1594.346M-91.154-32L-1715 1594.346M-110.154-32L-1734 1594.346M-129.154-32L-1753 1594.346M-148.154-32L-1772 1594.346M365-32l-1623 1626.346M385-32l-1623 1626.346M405-32l-1623 1626.346M425-32l-1623 1626.346M445-32l-1623 1626.346M465-32l-1623 1626.346M485-32l-1623 1626.346M505-32l-1623 1626.346M525-32l-1623 1626.346M545-32l-1623 1626.346M565-32l-1623 1626.346M585-32l-1623 1626.346M605-32l-1623 1626.346M625-32L-998 1594.346M645-32L-978 1594.346M665-32L-958 1594.346M685-32L-938 1594.346M705-32L-918 1594.346M725-32L-898 1594.346M745-32L-878 1594.346M765-32L-858 1594.346M785-32L-838 1594.346M805-32L-818 1594.346M825-32L-798 1594.346M845-32L-778 1594.346M865-32L-758 1594.346M885-32L-738 1594.346"/></g></g><g opacity=".3" transform="translate(68 544)"><mask id="p" fill="#fff"><use xlink:href="#o"/></mask><path stroke="#FFF" stroke-width="4" d="M2 2h258v236H2z"/><g stroke="#FFF" stroke-linecap="square" mask="url(#p)"><path d="M345.846-32L-1278 1594.346M326.846-32L-1297 1594.346M307.846-32L-1316 1594.346M288.846-32L-1335 1594.346M269.846-32L-1354 1594.346M250.846-32L-1373 1594.346M231.846-32L-1392 1594.346M212.846-32L-1411 1594.346M193.846-32L-1430 1594.346M174.846-32L-1449 1594.346M155.846-32L-1468 1594.346M136.846-32L-1487 1594.346M117.846-32L-1506 1594.346M98.846-32L-1525 1594.346M79.846-32L-1544 1594.346M60.846-32L-1563 1594.346M41.846-32L-1582 1594.346M22.846-32L-1601 1594.346M3.846-32L-1620 1594.346M-15.154-32L-1639 1594.346M-34.154-32L-1658 1594.346M-53.154-32L-1677 1594.346M365-32l-1623 1626.346M385-32l-1623 1626.346M405-32l-1623 1626.346M425-32l-1623 1626.346M445-32l-1623 1626.346M465-32l-1623 1626.346M485-32l-1623 1626.346M505-32l-1623 1626.346M525-32l-1623 1626.346M545-32l-1623 1626.346M565-32l-1623 1626.346M585-32l-1623 1626.346M605-32l-1623 1626.346M625-32L-998 1594.346M645-32L-978 1594.346M665-32L-958 1594.346M685-32L-938 1594.346M705-32L-918 1594.346M725-32L-898 1594.346M745-32L-878 1594.346M765-32L-858 1594.346M785-32L-838 1594.346M805-32L-818 1594.346M825-32L-798 1594.346M845-32L-778 1594.346M865-32L-758 1594.346M885-32L-738 1594.346"/></g></g><g transform="translate(656 192)"><mask id="r" fill="#fff"><use xlink:href="#q"/></mask><path stroke="#FFF" stroke-width="4" d="M2 2h552v316H2z"/><g stroke="#FFF" stroke-linecap="square" mask="url(#r)"><path d="M443.846-32L-1180 1594.346M424.846-32L-1199 1594.346M405.846-32L-1218 1594.346M386.846-32L-1237 1594.346M367.846-32L-1256 1594.346M348.846-32L-1275 1594.346M329.846-32L-1294 1594.346M310.846-32L-1313 1594.346M291.846-32L-1332 1594.346M272.846-32L-1351 1594.346M253.846-32L-1370 1594.346M234.846-32L-1389 1594.346M215.846-32L-1408 1594.346M196.846-32L-1427 1594.346M177.846-32L-1446 1594.346M158.846-32L-1465 1594.346M139.846-32L-1484 1594.346M120.846-32L-1503 1594.346M101.846-32L-1522 1594.346M82.846-32L-1541 1594.346M63.846-32L-1560 1594.346M44.846-32L-1579 1594.346M25.846-32L-1598 1594.346M6.846-32L-1617 1594.346M-12.154-32L-1636 1594.346M-31.154-32L-1655 1594.346M-50.154-32L-1674 1594.346M463-32l-1623 1626.346M483-32l-1623 1626.346M503-32l-1623 1626.346M523-32l-1623 1626.346M543-32l-1623 1626.346M563-32l-1623 1626.346M583-32l-1623 1626.346M603-32l-1623 1626.346M623-32l-1623 1626.346M643-32L-980 1594.346M663-32L-960 1594.346M683-32L-940 1594.346M703-32L-920 1594.346M723-32L-900 1594.346M743-32L-880 1594.346M763-32L-860 1594.346M783-32L-840 1594.346M803-32L-820 1594.346M823-32L-800 1594.346M843-32L-780 1594.346M863-32L-760 1594.346M883-32L-740 1594.346M903-32L-720 1594.346M923-32L-700 1594.346M943-32L-680 1594.346M963-32L-660 1594.346M983-32L-640 1594.346M997-27L-626 1599.346M1011-22L-612 1604.346M1025-17L-598 1609.346M1039-12L-584 1614.346M1053-7L-570 1619.346"/></g></g><g transform="translate(68 192)"><mask id="t" fill="#fff"><use xlink:href="#s"/></mask><path stroke="#FFF" stroke-width="4" d="M2 2h552v316H2z"/><g stroke="#FFF" stroke-linecap="square" mask="url(#t)"><path d="M443.846-32L-1180 1594.346M424.846-32L-1199 1594.346M405.846-32L-1218 1594.346M386.846-32L-1237 1594.346M367.846-32L-1256 1594.346M348.846-32L-1275 1594.346M329.846-32L-1294 1594.346M310.846-32L-1313 1594.346M291.846-32L-1332 1594.346M272.846-32L-1351 1594.346M253.846-32L-1370 1594.346M234.846-32L-1389 1594.346M215.846-32L-1408 1594.346M196.846-32L-1427 1594.346M177.846-32L-1446 1594.346M158.846-32L-1465 1594.346M139.846-32L-1484 1594.346M120.846-32L-1503 1594.346M101.846-32L-1522 1594.346M82.846-32L-1541 1594.346M63.846-32L-1560 1594.346M44.846-32L-1579 1594.346M25.846-32L-1598 1594.346M6.846-32L-1617 1594.346M-12.154-32L-1636 1594.346M-31.154-32L-1655 1594.346M-50.154-32L-1674 1594.346M463-32l-1623 1626.346M483-32l-1623 1626.346M503-32l-1623 1626.346M523-32l-1623 1626.346M543-32l-1623 1626.346M563-32l-1623 1626.346M583-32l-1623 1626.346M603-32l-1623 1626.346M623-32l-1623 1626.346M643-32L-980 1594.346M663-32L-960 1594.346M683-32L-940 1594.346M703-32L-920 1594.346M723-32L-900 1594.346M743-32L-880 1594.346M763-32L-860 1594.346M783-32L-840 1594.346M803-32L-820 1594.346M823-32L-800 1594.346M843-32L-780 1594.346M863-32L-760 1594.346M883-32L-740 1594.346M903-32L-720 1594.346M923-32L-700 1594.346M943-32L-680 1594.346M963-32L-660 1594.346M983-32L-640 1594.346M997-27L-626 1599.346M1011-22L-612 1604.346M1025-17L-598 1609.346M1039-12L-584 1614.346M1053-7L-570 1619.346"/></g></g></g></svg>