<svg xmlns="http://www.w3.org/2000/svg" xmlns:xlink="http://www.w3.org/1999/xlink" width="1280" height="1216" style="background:#0070f0"><defs><path id="a" d="M0 0h1284v162H0z"/><path id="b" d="M142 96h170v26H142V96zm208 0h170v26H350V96zm207 0h170v26H557V96zm208 0h170v26H765V96zm207 0h170v26H972V96z"/><path id="c" d="M0 0h458v280H0z"/><path id="e" d="M0 0h654v280H0z"/><path id="g" d="M0 0h752v280H0z"/><path id="i" d="M0 0h360v280H0z"/><path id="k" d="M0 0h262v280H0z"/><path id="m" d="M0 0h850v280H0z"/></defs><g fill="none" fill-rule="evenodd"><g stroke="#FFF" opacity=".8"><path opacity=".3" d="M68.5 192.5h65v903h-65zM166.5 192.5h65v903h-65zM264.5 192.5h65v903h-65zM362.5 192.5h65v903h-65zM460.5 192.5h65v903h-65zM558.5 192.5h65v903h-65zM656.5 192.5h65v903h-65zM754.5 192.5h65v903h-65zM852.5 192.5h65v903h-65zM950.5 192.5h65v903h-65zM1048.5 192.5h65v903h-65zM1146.5 192.5h65v903h-65z"/></g><g opacity=".3" transform="translate(-2 -2)"><use stroke="#FFF" stroke-width="4" xlink:href="#a"/><use fill="#0070F0" xlink:href="#b"/><path stroke="#FFF" d="M142.5 96.5v25h169v-25h-169zm208 0v25h169v-25h-169zm207 0v25h169v-25h-169zm208 0v25h169v-25h-169zm207 0v25h169v-25h-169z"/></g><g opacity=".3" transform="translate(754 816)"><mask id="d" fill="#fff"><use xlink:href="#c"/></mask><path stroke="#FFF" stroke-width="4" d="M2 2h454v276H2z"/><g stroke="#FFF" stroke-linecap="square" mask="url(#d)"><path d="M543.846-32L-1080 1594.346M524.846-32L-1099 1594.346M505.846-32L-1118 1594.346M486.846-32L-1137 1594.346M467.846-32L-1156 1594.346M448.846-32L-1175 1594.346M429.846-32L-1194 1594.346M410.846-32L-1213 1594.346M391.846-32L-1232 1594.346M372.846-32L-1251 1594.346M353.846-32L-1270 1594.346M334.846-32L-1289 1594.346M315.846-32L-1308 1594.346M296.846-32L-1327 1594.346M277.846-32L-1346 1594.346M258.846-32L-1365 1594.346M239.846-32L-1384 1594.346M220.846-32L-1403 1594.346M201.846-32L-1422 1594.346M182.846-32L-1441 1594.346M163.846-32L-1460 1594.346M144.846-32L-1479 1594.346M125.846-32L-1498 1594.346M106.846-32L-1517 1594.346M87.846-32L-1536 1594.346M68.846-32L-1555 1594.346M49.846-32L-1574 1594.346M563-32l-1623 1626.346M583-32l-1623 1626.346M603-32l-1623 1626.346M623-32l-1623 1626.346M643-32L-980 1594.346M663-32L-960 1594.346M683-32L-940 1594.346M703-32L-920 1594.346M723-32L-900 1594.346M743-32L-880 1594.346M763-32L-860 1594.346M783-32L-840 1594.346M803-32L-820 1594.346M823-32L-800 1594.346M843-32L-780 1594.346M863-32L-760 1594.346M883-32L-740 1594.346M903-32L-720 1594.346M923-32L-700 1594.346M943-32L-680 1594.346M963-32L-660 1594.346M983-32L-640 1594.346M1003-32L-620 1594.346M1023-32L-600 1594.346M1043-32L-580 1594.346M1063-32L-560 1594.346M1083-32L-540 1594.346M1097-27L-526 1599.346M1111-22L-512 1604.346M1125-17L-498 1609.346M1139-12L-484 1614.346M1153-7L-470 1619.346"/></g></g><g opacity=".3" transform="translate(68 816)"><mask id="f" fill="#fff"><use xlink:href="#e"/></mask><path stroke="#FFF" stroke-width="4" d="M2 2h650v276H2z"/><g stroke="#FFF" stroke-linecap="square" mask="url(#f)"><path d="M543.846-32L-1080 1594.346M524.846-32L-1099 1594.346M505.846-32L-1118 1594.346M486.846-32L-1137 1594.346M467.846-32L-1156 1594.346M448.846-32L-1175 1594.346M429.846-32L-1194 1594.346M410.846-32L-1213 1594.346M391.846-32L-1232 1594.346M372.846-32L-1251 1594.346M353.846-32L-1270 1594.346M334.846-32L-1289 1594.346M315.846-32L-1308 1594.346M296.846-32L-1327 1594.346M277.846-32L-1346 1594.346M258.846-32L-1365 1594.346M239.846-32L-1384 1594.346M220.846-32L-1403 1594.346M201.846-32L-1422 1594.346M182.846-32L-1441 1594.346M163.846-32L-1460 1594.346M144.846-32L-1479 1594.346M125.846-32L-1498 1594.346M106.846-32L-1517 1594.346M87.846-32L-1536 1594.346M68.846-32L-1555 1594.346M49.846-32L-1574 1594.346M563-32l-1623 1626.346M583-32l-1623 1626.346M603-32l-1623 1626.346M623-32l-1623 1626.346M643-32L-980 1594.346M663-32L-960 1594.346M683-32L-940 1594.346M703-32L-920 1594.346M723-32L-900 1594.346M743-32L-880 1594.346M763-32L-860 1594.346M783-32L-840 1594.346M803-32L-820 1594.346M823-32L-800 1594.346M843-32L-780 1594.346M863-32L-760 1594.346M883-32L-740 1594.346M903-32L-720 1594.346M923-32L-700 1594.346M943-32L-680 1594.346M963-32L-660 1594.346M983-32L-640 1594.346M1003-32L-620 1594.346M1023-32L-600 1594.346M1043-32L-580 1594.346M1063-32L-560 1594.346M1083-32L-540 1594.346M1097-27L-526 1599.346M1111-22L-512 1604.346M1125-17L-498 1609.346M1139-12L-484 1614.346M1153-7L-470 1619.346"/></g></g><g opacity=".3" transform="translate(460 504)"><mask id="h" fill="#fff"><use xlink:href="#g"/></mask><path stroke="#FFF" stroke-width="4" d="M2 2h748v276H2z"/><g stroke="#FFF" stroke-linecap="square" mask="url(#h)"><path d="M543.846-32L-1080 1594.346M524.846-32L-1099 1594.346M505.846-32L-1118 1594.346M486.846-32L-1137 1594.346M467.846-32L-1156 1594.346M448.846-32L-1175 1594.346M429.846-32L-1194 1594.346M410.846-32L-1213 1594.346M391.846-32L-1232 1594.346M372.846-32L-1251 1594.346M353.846-32L-1270 1594.346M334.846-32L-1289 1594.346M315.846-32L-1308 1594.346M296.846-32L-1327 1594.346M277.846-32L-1346 1594.346M258.846-32L-1365 1594.346M239.846-32L-1384 1594.346M220.846-32L-1403 1594.346M201.846-32L-1422 1594.346M182.846-32L-1441 1594.346M163.846-32L-1460 1594.346M144.846-32L-1479 1594.346M125.846-32L-1498 1594.346M106.846-32L-1517 1594.346M87.846-32L-1536 1594.346M68.846-32L-1555 1594.346M49.846-32L-1574 1594.346M563-32l-1623 1626.346M583-32l-1623 1626.346M603-32l-1623 1626.346M623-32l-1623 1626.346M643-32L-980 1594.346M663-32L-960 1594.346M683-32L-940 1594.346M703-32L-920 1594.346M723-32L-900 1594.346M743-32L-880 1594.346M763-32L-860 1594.346M783-32L-840 1594.346M803-32L-820 1594.346M823-32L-800 1594.346M843-32L-780 1594.346M863-32L-760 1594.346M883-32L-740 1594.346M903-32L-720 1594.346M923-32L-700 1594.346M943-32L-680 1594.346M963-32L-660 1594.346M983-32L-640 1594.346M1003-32L-620 1594.346M1023-32L-600 1594.346M1043-32L-580 1594.346M1063-32L-560 1594.346M1083-32L-540 1594.346M1097-27L-526 1599.346M1111-22L-512 1604.346M1125-17L-498 1609.346M1139-12L-484 1614.346M1153-7L-470 1619.346"/></g></g><g opacity=".3" transform="translate(68 504)"><mask id="j" fill="#fff"><use xlink:href="#i"/></mask><path stroke="#FFF" stroke-width="4" d="M2 2h356v276H2z"/><g stroke="#FFF" stroke-linecap="square" mask="url(#j)"><path d="M543.846-32L-1080 1594.346M524.846-32L-1099 1594.346M505.846-32L-1118 1594.346M486.846-32L-1137 1594.346M467.846-32L-1156 1594.346M448.846-32L-1175 1594.346M429.846-32L-1194 1594.346M410.846-32L-1213 1594.346M391.846-32L-1232 1594.346M372.846-32L-1251 1594.346M353.846-32L-1270 1594.346M334.846-32L-1289 1594.346M315.846-32L-1308 1594.346M296.846-32L-1327 1594.346M277.846-32L-1346 1594.346M258.846-32L-1365 1594.346M239.846-32L-1384 1594.346M220.846-32L-1403 1594.346M201.846-32L-1422 1594.346M182.846-32L-1441 1594.346M163.846-32L-1460 1594.346M144.846-32L-1479 1594.346M125.846-32L-1498 1594.346M106.846-32L-1517 1594.346M87.846-32L-1536 1594.346M68.846-32L-1555 1594.346M49.846-32L-1574 1594.346M563-32l-1623 1626.346M583-32l-1623 1626.346M603-32l-1623 1626.346M623-32l-1623 1626.346M643-32L-980 1594.346M663-32L-960 1594.346M683-32L-940 1594.346M703-32L-920 1594.346M723-32L-900 1594.346M743-32L-880 1594.346M763-32L-860 1594.346M783-32L-840 1594.346M803-32L-820 1594.346M823-32L-800 1594.346M843-32L-780 1594.346M863-32L-760 1594.346M883-32L-740 1594.346M903-32L-720 1594.346M923-32L-700 1594.346M943-32L-680 1594.346M963-32L-660 1594.346M983-32L-640 1594.346M1003-32L-620 1594.346M1023-32L-600 1594.346M1043-32L-580 1594.346M1063-32L-560 1594.346M1083-32L-540 1594.346M1097-27L-526 1599.346M1111-22L-512 1604.346M1125-17L-498 1609.346M1139-12L-484 1614.346M1153-7L-470 1619.346"/></g></g><g transform="translate(950 192)"><mask id="l" fill="#fff"><use xlink:href="#k"/></mask><path stroke="#FFF" stroke-width="4" d="M2 2h258v276H2z"/><g stroke="#FFF" stroke-linecap="square" mask="url(#l)"><path d="M149.846-32L-1474 1594.346M130.846-32L-1493 1594.346M111.846-32L-1512 1594.346M92.846-32L-1531 1594.346M73.846-32L-1550 1594.346M54.846-32L-1569 1594.346M35.846-32L-1588 1594.346M16.846-32L-1607 1594.346M-2.154-32L-1626 1594.346M-21.154-32L-1645 1594.346M-40.154-32L-1664 1594.346M-59.154-32L-1683 1594.346M-78.154-32L-1702 1594.346M-97.154-32L-1721 1594.346M-116.154-32L-1740 1594.346M-135.154-32L-1759 1594.346M-154.154-32L-1778 1594.346M-173.154-32L-1797 1594.346M-192.154-32L-1816 1594.346M-211.154-32L-1835 1594.346M-230.154-32L-1854 1594.346M-249.154-32L-1873 1594.346M-268.154-32L-1892 1594.346M-287.154-32L-1911 1594.346M-306.154-32L-1930 1594.346M-325.154-32L-1949 1594.346M-344.154-32L-1968 1594.346M169-32l-1623 1626.346M189-32l-1623 1626.346M209-32l-1623 1626.346M229-32l-1623 1626.346M249-32l-1623 1626.346M269-32l-1623 1626.346M289-32l-1623 1626.346M309-32l-1623 1626.346M329-32l-1623 1626.346M349-32l-1623 1626.346M369-32l-1623 1626.346M389-32l-1623 1626.346M409-32l-1623 1626.346M429-32l-1623 1626.346M449-32l-1623 1626.346M469-32l-1623 1626.346M489-32l-1623 1626.346M509-32l-1623 1626.346M529-32l-1623 1626.346M549-32l-1623 1626.346M569-32l-1623 1626.346M589-32l-1623 1626.346M609-32l-1623 1626.346M629-32L-994 1594.346M649-32L-974 1594.346M669-32L-954 1594.346M689-32L-934 1594.346M703-27L-920 1599.346M717-22L-906 1604.346M731-17L-892 1609.346M745-12L-878 1614.346M759-7L-864 1619.346"/></g></g><g transform="translate(68 192)"><mask id="n" fill="#fff"><use xlink:href="#m"/></mask><path stroke="#FFF" stroke-width="4" d="M2 2h846v276H2z"/><g stroke="#FFF" stroke-linecap="square" mask="url(#n)"><path d="M543.846-32L-1080 1594.346M524.846-32L-1099 1594.346M505.846-32L-1118 1594.346M486.846-32L-1137 1594.346M467.846-32L-1156 1594.346M448.846-32L-1175 1594.346M429.846-32L-1194 1594.346M410.846-32L-1213 1594.346M391.846-32L-1232 1594.346M372.846-32L-1251 1594.346M353.846-32L-1270 1594.346M334.846-32L-1289 1594.346M315.846-32L-1308 1594.346M296.846-32L-1327 1594.346M277.846-32L-1346 1594.346M258.846-32L-1365 1594.346M239.846-32L-1384 1594.346M220.846-32L-1403 1594.346M201.846-32L-1422 1594.346M182.846-32L-1441 1594.346M163.846-32L-1460 1594.346M144.846-32L-1479 1594.346M125.846-32L-1498 1594.346M106.846-32L-1517 1594.346M87.846-32L-1536 1594.346M68.846-32L-1555 1594.346M49.846-32L-1574 1594.346M563-32l-1623 1626.346M583-32l-1623 1626.346M603-32l-1623 1626.346M623-32l-1623 1626.346M643-32L-980 1594.346M663-32L-960 1594.346M683-32L-940 1594.346M703-32L-920 1594.346M723-32L-900 1594.346M743-32L-880 1594.346M763-32L-860 1594.346M783-32L-840 1594.346M803-32L-820 1594.346M823-32L-800 1594.346M843-32L-780 1594.346M863-32L-760 1594.346M883-32L-740 1594.346M903-32L-720 1594.346M923-32L-700 1594.346M943-32L-680 1594.346M963-32L-660 1594.346M983-32L-640 1594.346M1003-32L-620 1594.346M1023-32L-600 1594.346M1043-32L-580 1594.346M1063-32L-560 1594.346M1083-32L-540 1594.346M1097-27L-526 1599.346M1111-22L-512 1604.346M1125-17L-498 1609.346M1139-12L-484 1614.346M1153-7L-470 1619.346"/></g></g></g></svg>