<?xml version="1.0" encoding="UTF-8"?>
<svg width="164px" height="25px" viewBox="0 0 164 25" version="1.1" xmlns="http://www.w3.org/2000/svg" xmlns:xlink="http://www.w3.org/1999/xlink">
    <!-- Generator: Sketch 52.6 (67491) - http://www.bohemiancoding.com/sketch -->
    <title>B-W Bookmate</title>
    <desc>Created with Sketch.</desc>
    <g id="Page-1" stroke="none" stroke-width="1" fill="none" fill-rule="evenodd">
        <g id="B-W-Bookmate" fill="#FFFFFF">
            <path d="M140.314533,20.5483279 L140.314533,12.3336555 L137.5,12.3336555 L137.5,11.9823829 L143.462535,6.01851852 L143.796841,6.01851852 L143.796841,9.71992128 L147.106973,9.71992128 L147.106973,12.3336555 L143.796841,12.3336555 L143.796841,20.2320161 C143.796841,21.5535889 144.430292,22.156801 145.523624,22.156801 C146.214839,22.156801 146.732762,22.0707864 147.222222,21.8693458 L147.222222,24.6268076 C146.675277,24.8276933 145.926577,25 144.861709,25 C141.868582,25 140.314533,23.3918043 140.314533,20.5483279" id="Fill-1"></path>
            <path d="M37.0083836,21.8307891 C39.5440083,21.8307891 40.7122949,20.6913018 40.7122949,18.5830709 L40.7122949,18.4691498 C40.7122949,16.3606431 39.5440083,15.3066656 36.7520249,15.3066656 L33.3329873,15.3066656 L33.3329873,21.8307891 L37.0083836,21.8307891 Z M36.4668744,12.7427501 C38.974261,12.7427501 39.9429422,11.8305534 39.9429422,9.75100969 L39.9429422,9.63681271 C39.9429422,7.69960149 38.8314089,6.87319044 36.4101212,6.87319044 L33.3329873,6.87319044 L33.3329873,12.7427501 L36.4668744,12.7427501 Z M29.6296296,4.16666667 L36.9228384,4.16666667 C41.1109519,4.16666667 43.5898234,5.76239027 43.5898234,9.4660689 L43.5898234,9.57999005 C43.5898234,11.6029869 42.6778955,13.1981589 40.3703911,13.9106488 C43.1338595,14.5089417 44.4444444,16.0188796 44.4444444,18.7254034 L44.4444444,18.8393245 C44.4444444,22.628513 41.9376116,24.537037 37.4643475,24.537037 L29.6296296,24.537037 L29.6296296,4.16666667 Z" id="Fill-2"></path>
            <path d="M58.5092482,17.2453292 L58.5092482,17.0427849 C58.5092482,13.9177767 56.973011,12.008314 54.4125236,12.008314 C51.8520362,12.008314 50.287601,13.8889218 50.287601,17.0142102 L50.287601,17.2453292 C50.287601,20.3414826 51.7950873,22.2798001 54.4125236,22.2798001 C56.973011,22.2798001 58.5092482,20.3414826 58.5092482,17.2453292 M46.7592593,17.3030389 L46.7592593,17.0716398 C46.7592593,12.3842675 50.0313311,9.25925926 54.4125236,9.25925926 C58.7655181,9.25925926 62.037037,12.3551325 62.037037,16.9847951 L62.037037,17.2161942 C62.037037,21.9327015 58.7655181,25 54.3840492,25 C50.0028567,25 46.7592593,21.9038466 46.7592593,17.3030389" id="Fill-3"></path>
            <path d="M76.101777,17.2453292 L76.101777,17.0427849 C76.101777,13.9177767 74.565512,12.008314 72.0049782,12.008314 C69.4447209,12.008314 67.879981,13.8889218 67.879981,17.0142102 L67.879981,17.2453292 C67.879981,20.3414826 69.3874945,22.2798001 72.0049782,22.2798001 C74.565512,22.2798001 76.101777,20.3414826 76.101777,17.2453292 M64.3518519,17.3030389 L64.3518519,17.0716398 C64.3518519,12.3842675 67.6237064,9.25925926 72.0049782,9.25925926 C76.3580515,9.25925926 79.6296296,12.3551325 79.6296296,16.9847951 L79.6296296,17.2161942 C79.6296296,21.9327015 76.3580515,25 71.9767797,25 C67.5952315,25 64.3518519,21.9038466 64.3518519,17.3030389" id="Fill-4"></path>
            <polyline id="Fill-5" points="82.8703704 2.77777778 86.3024644 2.77777778 86.3024644 16.2034049 91.6068854 9.66092117 95.3507123 9.66092117 89.5928867 16.4876092 95.8333333 24.537037 91.8618394 24.537037 86.3024644 17.2270363 86.3024644 24.537037 82.8703704 24.537037 82.8703704 2.77777778"></polyline>
            <path d="M98.1481481,9.57392802 L101.600343,9.57392802 L101.600343,11.8630325 C102.31329,10.4608729 103.93932,9.25925926 106.135818,9.25925926 C108.075634,9.25925926 109.61601,10.0888657 110.357508,11.9486246 C111.498723,10.0888657 113.552743,9.25925926 115.406628,9.25925926 C118.145321,9.25925926 120.37037,10.9475569 120.37037,15.0670585 L120.37037,24.537037 L116.91873,24.537037 L116.91873,15.2961351 C116.91873,13.0928998 115.977373,12.1491705 114.265967,12.1491705 C112.554284,12.1491705 110.984802,13.2931687 110.984802,15.5822732 L110.984802,24.537037 L107.533716,24.537037 L107.533716,15.2961351 C107.533716,13.0928998 106.563531,12.1491705 104.880677,12.1491705 C103.168993,12.1491705 101.600343,13.2931687 101.600343,15.5822732 L101.600343,24.537037 L98.1481481,24.537037 L98.1481481,9.57392802" id="Fill-6"></path>
            <path d="M132.656041,19.4153259 L132.656041,17.9106716 L130.88564,17.9106716 C128.259033,17.9106716 126.574641,18.5183043 126.574641,20.3700573 C126.574641,21.6433125 127.259662,22.4823443 128.972631,22.4823443 C131.085958,22.4823443 132.656041,21.3539236 132.656041,19.4153259 M123.148148,20.5146117 C123.148148,16.9845149 126.517486,15.7115398 130.800186,15.7115398 L132.656041,15.7115398 L132.656041,14.9304979 C132.656041,12.9050555 131.970465,11.8920542 129.943424,11.8920542 C128.145001,11.8920542 127.259662,12.760221 127.088476,14.2651555 L123.747715,14.2651555 C124.03321,10.7344985 126.802981,9.25925926 130.143465,9.25925926 C133.484503,9.25925926 136.111111,10.6476538 136.111111,14.7853832 L136.111111,24.7103309 L132.713196,24.7103309 L132.713196,22.8585779 C131.742402,24.1609682 130.428405,25 128.145001,25 C125.403807,25 123.148148,23.6687549 123.148148,20.5146117" id="Fill-7"></path>
            <path d="M160.492372,15.5668176 C160.322656,12.9628311 159.019668,11.8052548 156.897257,11.8052548 C154.831235,11.8052548 153.443252,13.2230897 153.104095,15.5668176 L160.492372,15.5668176 Z M149.537037,17.303182 L149.537037,17.0717788 C149.537037,12.384043 152.679393,9.25925926 156.897257,9.25925926 C160.577092,9.25925926 163.888889,11.4875657 163.888889,16.8980864 L163.888889,17.9108256 L153.047706,17.9108256 C153.160759,20.7753507 154.575699,22.3957334 157.123362,22.3957334 C159.190209,22.3957334 160.265442,21.5566867 160.520704,20.0808609 L163.832775,20.0808609 C163.351135,23.2636355 160.831804,25 157.038641,25 C152.679393,25 149.537037,22.077484 149.537037,17.303182 Z" id="Fill-8"></path>
            <path d="M13.9059004,16.5829477 C12.7984816,18.4608536 11.0792076,19.2885171 9.2718087,19.2885171 C5.65812635,19.2885171 2.96640988,16.7173194 2.96640988,12.8592862 L2.96640988,12.6685829 C2.96640988,12.4869475 2.97393954,12.3196012 2.98537348,12.1445608 L18.5185185,12.1478583 L18.5185185,0 L9.25898038,6.8183317 L0,0 L0,25 L18.5185185,25 L18.5185185,19.2882423 C16.7208803,19.2816474 15.1323994,18.4534343 13.9059004,16.5829477" id="Fill-10"></path>
            <path d="M9.01792044,17.5925926 C10.801298,17.5925926 11.8930223,16.5962381 12.037037,14.3518519 L5.55555556,14.3518519 C5.83948587,16.3727487 7.28318545,17.5925926 9.01792044,17.5925926" id="Fill-12"></path>
            <path d="M15.2777778,14.3518519 L21.7592593,14.3518519 C21.4789585,16.3727487 19.9740299,17.5925926 18.2598209,17.5925926 C16.498085,17.5925926 15.4195484,16.5962381 15.2777778,14.3518519" id="Fill-13"></path>
        </g>
    </g>
</svg>