<?xml version="1.0" encoding="UTF-8"?>
<svg width="1000px" height="197px" viewBox="0 0 1000 197" version="1.1" xmlns="http://www.w3.org/2000/svg" xmlns:xlink="http://www.w3.org/1999/xlink">
    <!-- Generator: Sketch 52.5 (67469) - http://www.bohemiancoding.com/sketch -->
    <title>dropbox-logo</title>
    <desc>Created with Sketch.</desc>
    <g id="Page-1" stroke="none" stroke-width="1" fill="none" fill-rule="evenodd">
        <g id="dropbox-logo" fill="#FFFFFF" fill-rule="nonzero">
            <path d="M116,37 L58,74 L116,111 L58,148 L0,110.8 L58,73.8 L0,37 L58,0 L116,37 Z M57.7,159.9 L115.7,122.9 L173.7,159.9 L115.7,196.9 L57.7,159.9 Z M116,110.8 L174,73.8 L116,37 L173.7,0 L231.7,37 L173.7,74 L231.7,111 L173.7,148 L116,110.8 Z" id="Shape"></path>
            <path d="M277.2,37 L324.1,37 C354,37 378.7,54.3 378.7,93.8 L378.7,102.1 C378.7,141.9 355.6,159.8 325,159.8 L277.2,159.8 L277.2,37 Z M303.4,59.3 L303.4,137.4 L323.5,137.4 C340.5,137.4 351.9,126.3 351.9,101.6 L351.9,95.1 C351.9,70.4 339.9,59.3 322.6,59.3 L303.4,59.3 Z M392.6,60.5 L413.6,60.5 L417,83.6 C421,67.9 431.2,59.5 449.7,59.5 L456.2,59.5 L456.2,86 L445.4,86 C424.1,86 418.9,93.4 418.9,114.4 L418.9,160.1 L393,160.1 L393,60.5 L392.6,60.5 Z M461.4,112.3 L461.4,109.5 C461.4,76.2 482.7,58 511.7,58 C541.3,58 562,76.2 562,109.5 L562,112.3 C562,145 541.9,162.6 511.7,162.6 C479.6,162.3 461.4,145.1 461.4,112.3 Z M535.5,112 L535.5,109.5 C535.5,91 526.2,79.9 511.4,79.9 C496.9,79.9 487.3,90.1 487.3,109.5 L487.3,112 C487.3,129.9 496.6,140.1 511.4,140.1 C526.2,139.8 535.5,129.9 535.5,112 Z M575.6,60.5 L597.2,60.5 L599.7,79.3 C604.9,66.7 616,58 632.4,58 C657.7,58 674.4,76.2 674.4,109.9 L674.4,112.7 C674.4,145.4 655.9,162.7 632.4,162.7 C616.7,162.7 605.9,155.6 600.6,144.2 L600.6,194.5 L575.3,194.5 L575.6,60.5 Z M648.1,112 L648.1,109.8 C648.1,90 637.9,80.2 624.3,80.2 C609.8,80.2 600.2,91.3 600.2,109.8 L600.2,111.7 C600.2,129.3 609.5,140.4 624,140.4 C638.9,140.1 648.1,130.6 648.1,112 Z M712.7,141.7 L710.5,159.9 L688.3,159.9 L688.3,27.2 L713.6,27.2 L713.6,78.1 C719.2,65.1 730.3,58 746,58 C769.8,58.3 787.4,74.7 787.4,107.7 L787.4,110.8 C787.4,143.8 770.7,162.7 745.4,162.7 C728.7,162.3 717.9,154.6 712.7,141.7 Z M760.8,110.8 L760.8,108.3 C760.8,90.1 750.9,79.9 737,79.9 C722.8,79.9 712.9,91.3 712.9,108.6 L712.9,110.8 C712.9,129.3 722.5,140.1 736.7,140.1 C751.9,140.1 760.8,130.6 760.8,110.8 Z M798.5,112.3 L798.5,109.5 C798.5,76.2 819.8,58 848.8,58 C878.4,58 899.1,76.2 899.1,109.5 L899.1,112.3 C899.1,145 878.7,162.6 848.8,162.6 C816.7,162.3 798.5,145.1 798.5,112.3 Z M872.8,112 L872.8,109.5 C872.8,91 863.5,79.9 848.7,79.9 C834.2,79.9 824.6,90.1 824.6,109.5 L824.6,112 C824.6,129.9 833.9,140.1 848.7,140.1 C863.6,139.8 872.8,129.9 872.8,112 Z M933,108.3 L898.1,60.5 L928,60.5 L948.1,90.4 L968.5,60.5 L998.1,60.5 L962.7,108 L1000,159.9 L970.7,159.9 L947.9,126.9 L925.7,159.9 L895.1,159.9 L933,108.3 Z" id="Shape"></path>
        </g>
    </g>
</svg>