<?xml version="1.0" encoding="UTF-8"?>
<svg width="681px" height="328px" viewBox="0 0 681 328" version="1.1" xmlns="http://www.w3.org/2000/svg" xmlns:xlink="http://www.w3.org/1999/xlink">
    <!-- Generator: Sketch 52.5 (67469) - http://www.bohemiancoding.com/sketch -->
    <title>Gazprom-Logo-rus</title>
    <desc>Created with Sketch.</desc>
    <g id="Page-1" stroke="none" stroke-width="1" fill="none" fill-rule="evenodd">
        <g id="Gazprom-Logo-rus" fill="#FFFFFF">
            <polyline id="path26" points="210.168001 213.887174 253.335991 213.887174 253.335991 227.991954 232.800601 227.991954 232.800601 327.096594 210.168001 327.096594 210.168001 213.887174"></polyline>
            <path d="M278.928771,284.596654 L282.807571,227.991954 L284.106721,227.991954 L287.985521,284.596654 L278.928771,284.596654 Z M253.864991,327.096594 L276.024291,327.096594 L278.121501,297.031134 L288.792861,297.031134 L290.899281,327.096594 L313.049361,327.096594 L301.245901,213.887174 L265.668461,213.887174 L253.864991,327.096594 Z" id="path28" fill-rule="nonzero"></path>
            <path d="M345.462541,287.473294 L345.462541,308.816034 C345.462541,311.692674 347.689601,312.527854 348.988671,312.527854 C351.123011,312.527854 352.607691,310.764754 352.607691,308.816034 L352.607691,282.462394 C352.607691,278.936184 351.958121,275.038824 343.513821,275.038824 L334.327131,275.038824 L334.327131,262.604344 L343.884971,262.604344 C350.287821,262.604344 352.607691,261.119584 352.607691,254.160044 L352.607691,231.703704 C352.607691,229.755054 351.123011,227.991954 348.988671,227.991954 C347.689601,227.991954 345.462541,228.734334 345.462541,231.703704 L345.462541,250.169874 L322.820651,250.169874 L322.820651,234.116384 C322.820651,226.228844 323.748571,213.887174 339.616451,213.887174 L358.360971,213.887174 C374.228851,213.887174 375.249581,226.228844 375.249581,234.116384 L375.249581,252.211324 C375.249581,264.552994 366.619661,267.893594 359.845661,267.615244 L359.845661,268.728774 C375.063961,268.357624 375.249581,280.049714 375.249581,284.039894 L375.249581,306.867384 C375.249581,314.847734 374.228851,327.096594 358.360971,327.096594 L339.616451,327.096594 C323.748571,327.096594 322.820651,314.847734 322.820651,306.867384 L322.820651,287.473294 L345.462541,287.473294" id="path30"></path>
            <polyline id="path32" points="390.096731 213.887174 442.525651 213.887174 442.525651 327.096594 419.883771 327.096594 419.883771 227.991954 412.738611 227.991954 412.738611 327.096594 390.096731 327.096594 390.096731 213.887174"></polyline>
            <path d="M480.014681,276.152354 L480.014681,227.991954 L482.984131,227.991954 C485.396731,227.991954 487.159841,230.033404 487.159841,233.652424 L487.159841,270.491884 C487.159841,274.110904 485.396731,276.152354 482.984131,276.152354 L480.014681,276.152354 Z M457.372811,327.096594 L480.014681,327.096594 L480.014681,288.586824 L493.005921,288.586824 C508.781001,288.586824 509.801721,276.337964 509.801721,268.357624 L509.801721,234.116384 C509.801721,226.228844 508.781001,213.887174 493.005921,213.887174 L457.372811,213.887174 L457.372811,327.096594 Z" id="path34" fill-rule="nonzero"></path>
            <path d="M554.435921,308.816034 C554.435921,310.764754 552.951231,312.527854 550.816971,312.527854 C549.517831,312.527854 547.290761,311.692674 547.290761,308.816034 L547.290761,231.703704 C547.290761,228.734334 549.517831,227.991954 550.816971,227.991954 C552.951231,227.991954 554.435921,229.755054 554.435921,231.703704 L554.435921,308.816034 Z M524.648881,306.867384 C524.648881,314.847734 525.669601,327.096594 541.444681,327.096594 L560.282001,327.096594 C576.057071,327.096594 577.077801,314.847734 577.077801,306.867384 L577.077801,234.116384 C577.077801,226.228844 576.057071,213.887174 560.282001,213.887174 L541.444681,213.887174 C525.669601,213.887174 524.648881,226.228844 524.648881,234.116384 L524.648881,306.867384 Z" id="path36" fill-rule="nonzero"></path>
            <polyline id="path38" points="650.756731 213.887174 680.265421 213.887174 680.265421 327.096594 657.623541 327.096594 657.623541 256.108694 656.788351 256.108694 645.096251 327.096594 627.001311 327.096594 615.402021 256.108694 614.566841 256.108694 614.566841 327.096594 591.924951 327.096594 591.924951 213.887174 621.340841 213.887174 636.095191 293.504924 650.756731 213.887174"></polyline>
            <path d="M180.826361,59.105744 C173.894581,28.761944 156.523461,4.078604 154.129341,0.088434 C150.343271,5.748904 136.489071,27.555604 129.445931,51.682244 C121.753291,78.685454 120.621191,102.626484 123.275101,126.103474 C125.910511,149.673274 135.867341,173.892724 135.867341,173.892724 C141.156661,186.512744 149.081321,200.153554 154.240711,206.834754 C161.803421,196.998574 179.183901,167.675494 184.603081,129.444074 C187.618921,108.101334 187.748781,89.449624 180.826361,59.105744 Z M154.129341,199.225634 C150.723781,192.822784 145.434461,180.666734 144.933381,161.736604 C144.803451,143.548844 152.106381,127.866584 154.240711,124.618794 C156.142951,127.866584 162.434431,141.507394 163.186091,160.159104 C163.696461,178.346864 157.646271,192.729974 154.129341,199.225634 Z M178.812681,110.606754 C178.552891,122.206114 177.170221,134.454974 175.407111,141.785744 C176.038121,129.165724 174.525601,111.441934 171.630401,97.522774 C168.735201,83.696344 160.541401,60.497704 153.999411,49.826334 C147.958511,60.033744 140.516371,80.077334 136.619001,97.429974 C132.703081,114.782534 132.591711,135.846924 132.591711,142.156974 C131.552421,136.867654 128.954131,117.844784 129.687231,98.821844 C130.299681,83.139584 133.974311,66.900554 135.987991,59.476974 C143.671351,34.700834 152.366231,18.832954 153.999411,16.327464 C155.632591,18.832954 166.582381,38.412584 172.261411,58.920204 C177.912601,79.427834 179.053971,99.100264 178.812681,110.606754 Z" id="path40" fill-rule="nonzero"></path>
            <path d="M165.886401,213.887174 L113.188341,213.887174 L113.188341,249.241884 C113.234741,249.241884 113.271861,249.149144 113.318271,249.149144 C125.734181,236.714674 145.870581,236.714674 158.295771,249.149144 C170.711681,261.490814 170.711681,281.627214 158.295771,294.061684 C158.240161,294.154494 158.184481,294.154494 158.128791,294.247304 C158.128791,294.247304 158.128791,294.247304 158.128791,294.247304 C158.063831,294.247304 157.998861,294.340104 157.943181,294.432914 C145.555111,306.681774 129.371761,312.806204 113.188341,312.806204 C96.930741,312.806204 80.673155,306.681774 68.275805,294.247304 C46.413345,272.440524 43.824415,238.570514 60.490285,213.887174 C62.735905,210.546574 65.324915,207.391514 68.275805,204.422144 C80.673155,191.987674 96.930741,185.863164 113.188341,185.863164 L113.188341,100.863374 C50.719065,100.863374 0.0810153,151.436384 0.0810153,213.887174 C0.0810153,276.337964 50.719065,327.003784 113.188341,327.003784 C145.759281,327.003784 175.100921,313.177354 195.738401,291.185044 L195.738401,213.887174 L165.886401,213.887174" id="path42"></path>
        </g>
    </g>
</svg>