<?xml version="1.0" encoding="UTF-8"?>
<svg width="98px" height="47px" viewBox="0 0 98 47" version="1.1" xmlns="http://www.w3.org/2000/svg" xmlns:xlink="http://www.w3.org/1999/xlink">
    <!-- Generator: Sketch 52.6 (67491) - http://www.bohemiancoding.com/sketch -->
    <title>logo</title>
    <desc>Created with Sketch.</desc>
    <g id="Page-1" stroke="none" stroke-width="1" fill="none" fill-rule="evenodd">
        <g id="logo" fill="#FFFFFF">
            <path d="M79.753,28.292 C79.375,28.292 79.067,28.007 79.067,27.655 L79.071,27.631 L79.071,16.882 L79.071,16.834 L79.075,16.789 C79.11,16.473 79.397,16.222 79.75,16.222 C80.102,16.222 80.394,16.473 80.428,16.789 L80.432,16.834 L80.432,16.882 L80.432,27.631 L80.435,27.655 C80.435,28.007 80.128,28.292 79.753,28.292 M81.026,14.237 L78.475,14.237 C76.318,14.237 76.19,15.98 76.19,17.103 L76.19,27.408 C76.19,28.533 76.318,30.275 78.475,30.275 L81.026,30.275 C83.184,30.275 83.316,28.534 83.316,27.408 L83.316,17.103 C83.315,15.979 83.184,14.237 81.026,14.237" id="XMLID_142_" fill-rule="nonzero"></path>
            <polygon id="XMLID_141_" points="33.015 14.237 38.891 14.237 38.891 16.229 36.095 16.229 36.095 30.274 33.015 30.274"></polygon>
            <path d="M39.346,30.274 L42.358,30.274 L42.647,26.011 L44.1,26.011 L44.385,30.274 L47.4,30.274 L45.792,14.236 L40.955,14.236 L39.346,30.274 Z M42.755,24.249 L43.286,16.226 L43.458,16.226 L43.986,24.249 L42.755,24.249 Z" id="XMLID_138_" fill-rule="nonzero"></path>
            <path d="M51.809,24.659 L51.809,27.678 C51.809,28.09 52.113,28.208 52.292,28.208 C52.577,28.208 52.775,27.953 52.775,27.678 L52.775,23.949 C52.775,23.446 52.689,22.898 51.54,22.898 L50.292,22.898 L50.292,21.133 L51.585,21.133 C52.464,21.133 52.775,20.923 52.775,19.944 L52.775,16.754 C52.775,16.48 52.576,16.23 52.292,16.23 C52.113,16.23 51.809,16.344 51.809,16.754 L51.809,19.37 L48.727,19.37 L48.727,17.104 C48.727,15.981 48.861,14.238 51.015,14.238 L53.569,14.238 C55.726,14.238 55.857,15.981 55.857,17.104 L55.857,19.671 C55.857,21.409 54.689,21.889 53.763,21.844 L53.763,22.005 C55.83,21.956 55.857,23.608 55.857,24.182 L55.857,27.409 C55.857,28.534 55.726,30.276 53.569,30.276 L51.015,30.276 C48.861,30.276 48.727,28.535 48.727,27.409 L48.727,24.66 L51.809,24.66 L51.809,24.659 Z" id="XMLID_137_"></path>
            <polygon id="XMLID_136_" points="57.883 14.237 65.011 14.237 65.011 30.274 62.137 30.274 62.137 16.229 60.755 16.229 60.755 30.274 57.883 30.274"></polygon>
            <path d="M67.242,30.274 L70.321,30.274 L70.321,24.822 L72.081,24.822 C74.238,24.822 74.581,23.081 74.581,21.954 L74.581,17.101 C74.581,15.978 74.238,14.235 72.081,14.235 L67.242,14.235 L67.242,30.274 Z M70.321,23.055 L70.321,16.229 L71.13,16.229 C71.464,16.229 71.706,16.526 71.706,17.028 L71.706,22.256 C71.706,22.76 71.464,23.055 71.13,23.055 L70.321,23.055 Z" id="XMLID_133_" fill-rule="nonzero"></path>
            <polygon id="XMLID_132_" points="93.145 14.237 97.151 14.237 97.151 30.274 94.069 30.274 94.069 20.218 93.959 20.218 92.372 30.274 89.912 30.274 88.326 20.218 88.219 20.218 88.219 30.274 85.136 30.274 85.136 14.237 89.138 14.237 91.137 25.508"></polygon>
            <path d="M26.445,15.867 C26.41,17.494 26.215,19.209 25.968,20.234 C26.057,18.468 25.843,15.975 25.436,14.028 C25.03,12.081 23.878,8.834 22.959,7.327 C22.112,8.759 21.067,11.57 20.52,14.012 C19.97,16.452 19.954,19.406 19.954,20.293 C19.807,19.54 19.442,16.883 19.547,14.208 C19.633,12 20.149,9.733 20.431,8.688 C21.51,5.205 22.731,2.979 22.96,2.623 C23.189,2.978 24.73,5.72 25.526,8.6 C26.319,11.482 26.478,14.242 26.445,15.867 M22.979,28.312 C22.501,27.413 21.756,25.697 21.686,23.05 C21.667,20.485 22.693,18.289 22.995,17.83 C23.265,18.289 24.144,20.202 24.25,22.818 C24.322,25.378 23.475,27.393 22.979,28.312 M26.726,8.636 C25.754,4.375 23.312,0.908 22.979,0.344 C22.447,1.138 20.501,4.197 19.513,7.592 C18.434,11.378 18.275,14.735 18.646,18.044 C19.018,21.349 20.416,24.743 20.416,24.743 C21.158,26.527 22.272,28.434 22.995,29.372 C24.055,27.993 26.499,23.878 27.258,18.503 C27.68,15.515 27.696,12.896 26.726,8.636" id="XMLID_128_" fill-rule="nonzero"></path>
            <path d="M17.007,30.271 L17.007,35.312 C17.013,35.305 17.019,35.299 17.028,35.292 C18.79,33.536 21.647,33.536 23.41,35.292 C25.175,37.045 25.175,39.895 23.41,41.649 L23.389,41.67 L23.389,41.672 C23.378,41.68 23.37,41.688 23.364,41.695 C21.603,43.432 19.305,44.303 17.008,44.303 C14.703,44.303 12.393,43.422 10.633,41.675 C7.532,38.582 7.161,33.801 9.528,30.308 C9.846,29.836 10.213,29.388 10.633,28.973 C12.393,27.218 14.703,26.344 17.008,26.344 L17.008,14.323 C8.142,14.323 0.946,21.485 0.946,30.311 C0.946,39.146 8.141,46.307 17.008,46.307 C21.635,46.307 25.799,44.357 28.727,41.243 L28.727,30.271 L17.007,30.271 Z" id="XMLID_127_"></path>
            <path d="M94.273,42.518 C94.273,44.044 93.579,44.314 91.812,44.314 L90.187,44.314 L90.187,37.352 L91.812,37.352 L91.812,40.039 L92.084,40.039 C93.682,40.039 94.273,40.411 94.273,41.804 L94.273,42.518 Z M80.707,38.667 L79.475,38.667 L79.475,44.318 L77.929,44.318 L77.929,38.667 L76.61,38.667 L76.61,37.345 L80.708,37.345 L80.708,38.667 L80.707,38.667 Z M68.198,41.83 C68.198,43.244 67.479,43.624 65.878,43.624 L65.878,44.313 L64.297,44.313 L64.297,43.624 C62.69,43.624 61.964,43.244 61.964,41.83 L61.964,39.655 C61.964,38.235 62.661,37.874 64.297,37.874 L64.297,37.352 L65.878,37.352 L65.878,37.874 C67.503,37.874 68.198,38.235 68.198,39.655 L68.198,41.83 Z M53.461,38.667 L51.237,38.667 L51.237,40.037 L53.226,40.037 L53.226,41.355 L51.237,41.355 L51.237,42.997 L53.461,42.997 L53.461,44.318 L49.559,44.318 L49.559,37.344 L53.461,37.344 L53.461,38.667 Z M39.978,44.313 L38.351,44.313 L38.351,41.265 L37.516,41.265 L37.516,44.313 L35.89,44.313 L35.89,37.351 L37.516,37.351 L37.516,40.038 L38.351,40.038 L38.351,37.351 L39.978,37.351 L39.978,44.313 Z M97.151,35.614 L33.015,35.614 L33.015,46.306 L97.152,46.306 L97.152,35.614 L97.151,35.614 Z M63.546,39.61 L63.546,41.839 C63.546,42.248 63.677,42.343 64.035,42.343 L64.297,42.343 L64.297,39.098 L64.035,39.098 C63.677,39.099 63.546,39.202 63.546,39.61 Z M92.174,41.266 L91.812,41.266 L91.812,43.083 L92.174,43.083 C92.539,43.083 92.648,42.99 92.648,42.593 L92.648,41.756 C92.647,41.355 92.539,41.266 92.174,41.266 Z M66.128,39.099 L65.878,39.099 L65.878,42.344 L66.128,42.344 C66.49,42.344 66.62,42.24 66.62,41.83 L66.62,39.592 C66.62,39.183 66.49,39.099 66.128,39.099 Z" id="XMLID_117_" fill-rule="nonzero"></path>
        </g>
    </g>
</svg>