<?xml version="1.0" encoding="UTF-8"?>
<svg width="539px" height="168px" viewBox="0 0 539 168" version="1.1" xmlns="http://www.w3.org/2000/svg" xmlns:xlink="http://www.w3.org/1999/xlink">
    <!-- Generator: Sketch 52.5 (67469) - http://www.bohemiancoding.com/sketch -->
    <title>spotify-logo</title>
    <desc>Created with Sketch.</desc>
    <g id="Page-1" stroke="none" stroke-width="1" fill="none" fill-rule="evenodd">
        <g id="spotify-logo" fill="#FFFFFF" fill-rule="nonzero">
            <path d="M83.996,0.277 C37.747,0.277 0.253,37.77 0.253,84.019 C0.253,130.27 37.747,167.76 83.996,167.76 C130.25,167.76 167.74,130.27 167.74,84.019 C167.74,37.773 130.25,0.281 83.995,0.281 L83.996,0.277 Z M122.4,121.057 C120.9,123.517 117.68,124.297 115.22,122.787 C95.558,110.777 70.806,108.057 41.656,114.717 C38.847,115.357 36.047,113.597 35.407,110.787 C34.764,107.977 36.517,105.177 39.333,104.537 C71.233,97.249 98.596,100.387 120.67,113.877 C123.13,115.387 123.91,118.597 122.4,121.057 Z M132.65,98.255 C130.76,101.327 126.74,102.297 123.67,100.407 C101.16,86.571 66.847,82.564 40.222,90.646 C36.769,91.689 33.122,89.743 32.074,86.296 C31.034,82.843 32.981,79.203 36.428,78.153 C66.841,68.925 104.65,73.395 130.5,89.28 C133.57,91.17 134.54,95.19 132.65,98.256 L132.65,98.255 Z M133.53,74.511 C106.54,58.48 62.01,57.006 36.241,64.827 C32.103,66.082 27.727,63.746 26.473,59.608 C25.219,55.468 27.553,51.095 31.694,49.837 C61.275,40.857 110.45,42.592 141.524,61.039 C145.254,63.248 146.474,68.055 144.264,71.772 C142.064,75.494 137.244,76.721 133.534,74.511 L133.53,74.511 Z M228.09,77.583 C213.63,74.135 211.06,71.715 211.06,66.63 C211.06,61.826 215.58,58.593 222.31,58.593 C228.83,58.593 235.29,61.048 242.07,66.102 C242.27,66.255 242.53,66.316 242.78,66.276 C243.04,66.238 243.26,66.099 243.41,65.89 L250.47,55.938 C250.76,55.528 250.68,54.963 250.29,54.65 C242.22,48.177 233.14,45.03 222.52,45.03 C206.91,45.03 196,54.399 196,67.804 C196,82.179 205.41,87.269 221.67,91.198 C235.5,94.385 237.84,97.055 237.84,101.827 C237.84,107.117 233.12,110.407 225.52,110.407 C217.08,110.407 210.19,107.557 202.49,100.897 C202.3,100.727 202.04,100.657 201.8,100.667 C201.54,100.687 201.31,100.807 201.15,100.997 L193.23,110.417 C192.9,110.817 192.94,111.397 193.32,111.737 C202.28,119.737 213.3,123.957 225.2,123.957 C242.02,123.957 252.89,114.767 252.89,100.537 C252.92,88.53 245.73,81.88 228.12,77.596 L228.09,77.583 Z M290.95,63.323 C283.66,63.323 277.68,66.195 272.74,72.08 L272.74,65.456 C272.74,64.933 272.32,64.507 271.8,64.507 L258.85,64.507 C258.33,64.507 257.91,64.933 257.91,65.456 L257.91,139.057 C257.91,139.577 258.33,140.007 258.85,140.007 L271.8,140.007 C272.32,140.007 272.74,139.577 272.74,139.057 L272.74,115.827 C277.68,121.357 283.66,124.067 290.95,124.067 C304.5,124.067 318.22,113.637 318.22,93.698 C318.24,73.755 304.52,63.322 290.96,63.322 L290.95,63.323 Z M303.16,93.698 C303.16,103.847 296.91,110.937 287.95,110.937 C279.1,110.937 272.42,103.527 272.42,93.698 C272.42,83.868 279.1,76.46 287.95,76.46 C296.76,76.459 303.16,83.707 303.16,93.697 L303.16,93.698 Z M353.37,63.323 C335.92,63.323 322.25,76.759 322.25,93.915 C322.25,110.887 335.83,124.177 353.16,124.177 C370.67,124.177 384.38,110.787 384.38,93.698 C384.38,76.667 370.76,63.325 353.37,63.325 L353.37,63.323 Z M353.37,111.037 C344.09,111.037 337.09,103.577 337.09,93.693 C337.09,83.764 343.85,76.559 353.16,76.559 C362.5,76.559 369.54,84.016 369.54,93.91 C369.54,103.837 362.74,111.037 353.37,111.037 Z M421.64,64.507 L407.39,64.507 L407.39,49.941 C407.39,49.419 406.97,48.993 406.45,48.993 L393.5,48.993 C392.98,48.993 392.55,49.419 392.55,49.941 L392.55,64.507 L386.33,64.507 C385.81,64.507 385.39,64.933 385.39,65.456 L385.39,76.583 C385.39,77.105 385.81,77.532 386.33,77.532 L392.55,77.532 L392.55,106.327 C392.55,117.957 398.34,123.857 409.77,123.857 C414.41,123.857 418.26,122.897 421.89,120.837 C422.19,120.677 422.37,120.357 422.37,120.017 L422.37,109.417 C422.37,109.097 422.2,108.787 421.92,108.617 C421.64,108.437 421.29,108.427 421,108.577 C418.51,109.827 416.1,110.407 413.4,110.407 C409.25,110.407 407.39,108.517 407.39,104.297 L407.39,77.537 L421.64,77.537 C422.16,77.537 422.58,77.111 422.58,76.588 L422.58,65.462 C422.6,64.939 422.18,64.513 421.65,64.513 L421.64,64.507 Z M471.28,64.564 L471.28,62.775 C471.28,57.512 473.3,55.165 477.82,55.165 C480.52,55.165 482.69,55.701 485.12,56.511 C485.42,56.605 485.73,56.558 485.97,56.379 C486.22,56.2 486.36,55.913 486.36,55.609 L486.36,44.699 C486.36,44.282 486.1,43.913 485.69,43.79 C483.13,43.027 479.85,42.244 474.93,42.244 C462.98,42.244 456.65,48.978 456.65,61.711 L456.65,64.451 L450.43,64.451 C449.91,64.451 449.48,64.877 449.48,65.399 L449.48,76.583 C449.48,77.105 449.91,77.532 450.43,77.532 L456.65,77.532 L456.65,121.937 C456.65,122.467 457.08,122.887 457.6,122.887 L470.54,122.887 C471.07,122.887 471.49,122.467 471.49,121.937 L471.49,77.535 L483.58,77.535 L502.1,121.937 C500,126.597 497.93,127.527 495.11,127.527 C492.83,127.527 490.42,126.847 487.97,125.497 C487.74,125.377 487.46,125.357 487.22,125.427 C486.97,125.517 486.76,125.697 486.66,125.937 L482.27,135.567 C482.06,136.027 482.24,136.557 482.68,136.797 C487.26,139.277 491.39,140.337 496.5,140.337 C506.06,140.337 511.35,135.877 516,123.897 L538.46,65.86 C538.58,65.568 538.54,65.238 538.36,64.979 C538.19,64.722 537.9,64.567 537.59,64.567 L524.11,64.567 C523.7,64.567 523.34,64.824 523.21,65.203 L509.4,104.637 L494.28,65.177 C494.14,64.81 493.79,64.567 493.4,64.567 L471.28,64.567 L471.28,64.564 Z M442.5,64.507 L429.55,64.507 C429.03,64.507 428.6,64.933 428.6,65.456 L428.6,121.937 C428.6,122.467 429.03,122.887 429.55,122.887 L442.5,122.887 C443.02,122.887 443.45,122.467 443.45,121.937 L443.45,65.46 C443.45,64.937 443.03,64.511 442.5,64.511 L442.5,64.507 Z M436.1,38.788 C430.97,38.788 426.81,42.94 426.81,48.069 C426.81,53.201 430.97,57.358 436.1,57.358 C441.23,57.358 445.38,53.201 445.38,48.069 C445.38,42.941 441.22,38.788 436.1,38.788 Z" id="Shape"></path>
        </g>
    </g>
</svg>