<?xml version="1.0" encoding="UTF-8"?>
<svg width="100px" height="20px" viewBox="0 0 100 20" version="1.1" xmlns="http://www.w3.org/2000/svg" xmlns:xlink="http://www.w3.org/1999/xlink">
    <!-- Generator: Sketch 52.5 (67469) - http://www.bohemiancoding.com/sketch -->
    <title>tochka</title>
    <desc>Created with Sketch.</desc>
    <g id="Page-1" stroke="none" stroke-width="1" fill="none" fill-rule="evenodd">
        <g id="tochka" fill="#FFFFFF">
            <path d="M27.5,19.7 C24.9,19.7 22.5,18.9 20.6,17.2 C18.4,15.3 17.6,12.7 17.6,9.9 C17.6,7.5 18.2,5.4 19.8,3.6 C21.2,2 23,1 25.1,0.6 C27.7,-1.99840144e-15 30.3,0.4 32.6,1.7 C35.5,3.4 37,6 37.2,9.4 C37.4,12.4 36.7,15 34.5,17.1 C32.6,18.9 30.2,19.7 27.5,19.7 M27.6,5 C25.4,5.1 23.8,6.2 23.2,8.2 C22.8,9.4 22.9,10.6 23.2,11.8 C23.7,13.6 24.9,14.6 26.7,14.9 C28.5,15.2 30.1,14.6 31,13 C32.1,11.2 32.1,9.3 31.2,7.4 C30.6,5.8 29.2,5.1 27.6,5" id="Shape" fill-rule="nonzero"></path>
            <path d="M92.8,8.3 C92.8,7.8 92.9,7.2 92.8,6.7 C92.7,5.8 92,5.3 91.2,5 C89.8,4.5 88.3,4.5 86.9,4.6 C85.5,4.7 84.2,5 82.9,5.7 C82.7,4.4 82.4,3.1 82.2,1.9 C83.3,1.3 84.4,1 85.6,0.8 C88.1,0.4 90.5,0.3 93,0.9 C95.6,1.6 97.4,3 97.9,5.8 C98,6.4 98,7.1 98,7.7 C98,9.7 98,11.8 98,13.8 C98,14.1 98,14.3 98,14.6 C98.1,16 98.2,16.2 99.7,16.4 L99.7,19.3 C98.3,19.7 96.8,19.9 95.3,19.2 C94.5,18.8 94.1,18.1 93.9,17.3 C93.9,17.1 93.9,17 93.8,16.7 C92,19.2 89.5,19.9 86.7,19.7 C83.6,19.5 81.2,17.4 80.8,15 C80.1,11 82.1,8 86.1,7.4 C88.8,7 89.5,7.1 92.8,8.3 M92.7,11.7 C91.9,11.1 90.9,10.8 89.9,10.7 C88.9,10.6 87.8,10.6 86.9,11.3 C86.1,12 85.8,13 86.1,14 C86.3,14.8 87.1,15.4 88.1,15.5 C89,15.6 89.9,15.4 90.8,15.1 C92.3,14.5 92.9,13.4 92.7,11.7" id="Shape" fill-rule="nonzero"></path>
            <path d="M69.1,11.8 C68.1,11.9 67.2,11.9 66.3,12 L66.3,19.3 L61,19.3 L61,0.9 L66.2,0.9 L66.2,7.7 C67.4,7.7 68.5,7.8 69.6,7.4 C71,6.9 72,6 72.3,4.6 C72.6,3.4 72.8,2.1 73.1,0.8 L78,0.8 C78.1,4.6 77.4,7.9 73.7,10 C73.8,10.3 74,10.5 74.1,10.7 C75.6,13.2 77.1,15.7 78.6,18.2 C78.8,18.5 78.9,18.9 79.1,19.3 L73.5,19.3 C72,16.8 70.5,14.3 69.1,11.8" id="Path"></path>
            <path d="M51.6,0.8 L56.8,0.8 L56.8,19.3 L51.6,19.3 L51.6,13.4 C50.6,13.6 49.8,13.9 48.9,14 C46.5,14.3 44.3,14 42.3,12.5 C40.8,11.3 40,9.6 39.7,7.8 C39.2,5.5 39.5,3.2 39.5,0.9 L44.9,0.9 C44.9,1.2 44.9,1.4 44.9,1.7 C44.9,3.2 44.9,4.7 45,6.2 C45.1,8.2 46.6,9.5 48.5,9.5 C49.7,9.5 50.5,9.3 51.8,8.5 L51.8,0.8 L51.6,0.8 Z" id="Path"></path>
            <polygon id="Path" points="10.9 19.2 5.7 19.2 5.7 5.6 0.3 5.6 0.3 0.9 16.3 0.9 16.3 5.5 10.9 5.5"></polygon>
        </g>
    </g>
</svg>