<svg width="230" height="32" viewBox="0 0 230 32" fill="none" xmlns="http://www.w3.org/2000/svg">
<path d="M78.4293 0.848633H18.0107C12.897 0.848633 8.1306 3.43615 5.34487 7.72448C2.09443 12.7282 2.09443 19.1765 5.34487 24.1802C8.1306 28.4685 12.897 31.056 18.0107 31.056H78.4946C81.769 31.056 84.8785 29.6191 87.0005 27.1253L87.9407 26.0205C91.5251 21.8083 97.8883 21.4093 101.971 25.1407C105.653 28.5059 111.278 28.5567 115.02 25.2586L120.777 20.1847C122.146 18.9781 123.909 18.3123 125.734 18.3123H126.386C130.165 18.3123 133.23 21.3764 133.23 25.1561C133.23 28.9359 136.294 32 140.073 32H173.424C182.027 32 189 25.0265 189 16.4243C189 7.8221 182.027 0.848633 173.424 0.848633H139.837C136.188 0.848633 133.23 3.80708 133.23 7.4565C133.23 11.1059 130.271 14.0644 126.622 14.0644H125.789C123.932 14.0644 122.141 13.3694 120.77 12.116L115.026 6.86557C111.316 3.47502 105.617 3.5267 101.97 6.98397C97.9336 10.8098 91.499 10.4071 87.9712 6.10787L86.9711 4.88899C84.8723 2.33127 81.7378 0.848633 78.4293 0.848633Z" fill="#E5E5E5"/>
<ellipse cx="213.5" cy="16.4243" rx="16.5" ry="15.5757" fill="#959595"/>
</svg>
