<?xml version="1.0" encoding="UTF-8"?>
<svg width="349px" height="134px" viewBox="0 0 349 134" version="1.1" xmlns="http://www.w3.org/2000/svg" xmlns:xlink="http://www.w3.org/1999/xlink">
    <!-- Generator: Sketch 52.5 (67469) - http://www.bohemiancoding.com/sketch -->
    <title>yandex</title>
    <desc>Created with Sketch.</desc>
    <g id="Page-1" stroke="none" stroke-width="1" fill="none" fill-rule="evenodd">
        <g id="yandex" transform="translate(-1.000000, -1.000000)" fill="#FFFFFF" fill-rule="nonzero">
            <g id="6c322349-0e2d-45c0-b018-1318df84bbc3" transform="translate(0.619410, 0.499312)">
                <g id="467390fb-e479-4223-bbac-f0546cb4ae27">
                    <path d="M35.35789,73.0717 L15.35349,117.9995 L0.75979,117.9995 L22.73189,69.9555 C12.40179,64.7085 5.51509,55.1982 5.51509,37.6533 C5.51509,13.0576 21.09229,0.7597 39.62109,0.7597 L58.47749,0.7597 L58.47749,117.9995 L45.852,117.9995 L45.852,73.0717 L35.35789,73.0717 Z M45.852,11.4179 L39.12889,11.4179 C28.96289,11.4179 19.12449,18.1406 19.12449,37.6533 C19.12449,56.5097 28.14309,62.5766 39.12889,62.5766 L45.852,62.5766 L45.852,11.4179 Z" id="e3e00503-4570-4d4f-9c94-13248eafc32d"></path>
                    <path d="M119.311,35.3574 L119.311,117.9995 L106.68509,117.9995 L106.68509,80.9419 L87.66449,80.9419 L87.66449,117.9995 L74.875,117.9995 L74.875,35.3574 L87.66449,35.3574 L87.66449,70.4472 L106.68509,70.4472 L106.68509,35.3574 L119.311,35.3574 Z M185.06349,134.2329 L173.58539,134.2329 L173.58539,117.9995 L138.16749,117.9995 L138.16749,134.2329 L126.68939,134.2329 L126.68939,107.5053 L131.77289,107.5053 C139.31539,89.9604 140.13519,64.3803 140.13519,42.4082 L140.13519,35.3574 L178.50489,35.3574 L178.50489,107.5053 L185.06349,107.5053 L185.06349,134.2329 Z M165.87889,45.688 L151.61329,45.688 L151.61329,47.1635 C151.61329,64.5444 150.79339,89.9604 143.90669,107.5053 L165.87889,107.5053 L165.87889,45.688 Z M220.31739,119.1469 C203.26459,119.1469 192.77049,105.5376 192.77049,80.1225 C192.77049,53.5586 200.14939,34.2099 217.69429,34.2099 C231.46779,34.2099 240.48629,44.54 240.48629,72.5796 L240.48629,79.6303 L206.05179,79.6303 C206.05179,98.3227 211.29879,108.1616 221.46479,108.1616 C228.67969,108.1616 234.41889,104.8823 237.69819,102.5864 L240.65039,112.4243 C234.825221,116.894865 227.65938,119.264072 220.31739,119.1469 Z M206.21579,69.1357 L227.36819,69.1357 C227.36819,55.0341 225.07229,44.7041 217.69429,44.7041 C209.82319,44.7041 207.03609,54.3784 206.21579,69.1357 Z M266.39349,76.8432 L266.39349,117.9995 L253.60349,117.9995 L253.60349,35.3574 L266.39349,35.3574 L266.39349,73.563 L286.23339,35.3574 L299.18749,35.3574 L278.69139,74.2192 L302.13869,117.9995 L288.20119,117.9995 L266.39349,76.8432 Z M303.77829,76.6792 C303.77829,50.771 313.78119,34.2099 333.12989,34.2099 C340.50779,34.2099 344.77149,36.1777 348.37889,38.4731 L346.57519,50.6069 C343.13179,47.6552 338.21289,44.8681 332.96579,44.8681 C323.78319,44.8681 317.22459,55.1982 317.22459,76.0229 C317.22459,96.6831 322.14349,108.4887 332.47359,108.4887 C337.584969,108.55739 342.544001,106.748834 346.41109,103.4057 L349.36229,112.9165 C344.616799,117.094198 338.465522,119.320217 332.14549,119.1469 C314.43649,119.1469 303.77829,104.8823 303.77829,76.6792 Z" id="426c2572-ff31-40d1-8641-2ae80a190106"></path>
                </g>
            </g>
        </g>
    </g>
</svg>