<?xml version="1.0" encoding="UTF-8"?>
<svg width="381px" height="85px" viewBox="0 0 381 85" version="1.1" xmlns="http://www.w3.org/2000/svg" xmlns:xlink="http://www.w3.org/1999/xlink">
    <!-- Generator: Sketch 52.5 (67469) - http://www.bohemiancoding.com/sketch -->
    <title>YouTube_Logo_2017</title>
    <desc>Created with Sketch.</desc>
    <g id="Page-1" stroke="none" stroke-width="1" fill="none" fill-rule="evenodd">
        <g id="YouTube_Logo_2017" fill="#FFFFFF">
            <g id="Group">
                <path d="M118.9,13.3 C121.5,22.8 121.4,42.6 121.4,42.6 C121.4,42.6 121.4,62.3 118.9,71.8 C117.5,77 113.4,81.1 108.2,82.5 C98.7,85 60.7,85 60.7,85 C60.7,85 22.8,85 13.2,82.4 C8,81 3.9,76.9 2.5,71.7 C-9.23705556e-14,62.3 -9.23705556e-14,42.5 -9.23705556e-14,42.5 C-9.23705556e-14,42.5 -9.23705556e-14,22.8 2.5,13.3 C3.9,8.1 8.1,3.9 13.2,2.5 C22.7,0 60.7,0 60.7,0 C60.7,0 98.7,0 108.2,2.6 C113.4,4 117.5,8.1 118.9,13.3 Z M48.6,60.7 L80.2,42.5 L48.6,24.3 L48.6,60.7 Z" id="Combined-Shape"></path>
            </g>
            <g id="Group" transform="translate(133.000000, 3.000000)">
                <path d="M43.3,74.4 C40.9,72.8 39.2,70.3 38.2,66.8 C37.2,63.4 36.7,58.8 36.7,53.2 L36.7,45.5 C36.7,39.8 37.3,35.2 38.4,31.7 C39.6,28.2 41.4,25.7 43.8,24.1 C46.3,22.5 49.5,21.7 53.5,21.7 C57.4,21.7 60.6,22.5 63,24.1 C65.4,25.7 67.1,28.3 68.2,31.7 C69.3,35.1 69.9,39.7 69.9,45.5 L69.9,53.2 C69.9,58.9 69.4,63.4 68.3,66.9 C67.2,70.3 65.5,72.9 63.1,74.5 C60.7,76.1 57.4,76.9 53.3,76.9 C49.1,76.8 45.7,76 43.3,74.4 Z M56.8,66 C57.5,64.3 57.8,61.4 57.8,57.5 L57.8,40.9 C57.8,37.1 57.5,34.3 56.8,32.5 C56.1,30.7 55,29.9 53.3,29.9 C51.7,29.9 50.5,30.8 49.9,32.5 C49.2,34.3 48.9,37.1 48.9,40.9 L48.9,57.5 C48.9,61.4 49.2,64.3 49.9,66 C50.5,67.7 51.7,68.6 53.4,68.6 C55,68.6 56.1,67.8 56.8,66 Z" id="Shape" fill-rule="nonzero"></path>
                <path d="M227.9,53.3 L227.9,56 C227.9,59.4 228,62 228.2,63.7 C228.4,65.4 228.8,66.7 229.5,67.4 C230.1,68.2 231.1,68.6 232.5,68.6 C234.3,68.6 235.5,67.9 236.2,66.5 C236.9,65.1 237.2,62.8 237.3,59.5 L247.6,60.1 C247.7,60.6 247.7,61.2 247.7,62 C247.7,66.9 246.4,70.6 243.7,73 C241,75.4 237.2,76.6 232.3,76.6 C226.4,76.6 222.3,74.7 219.9,71 C217.5,67.3 216.3,61.6 216.3,53.8 L216.3,44.5 C216.3,36.5 217.5,30.7 220,27 C222.5,23.3 226.7,21.5 232.6,21.5 C236.7,21.5 239.9,22.3 242.1,23.8 C244.3,25.3 245.8,27.7 246.7,30.8 C247.6,34 248,38.4 248,44 L248,53.1 L227.9,53.1 L227.9,53.3 Z M229.4,30.9 C228.8,31.7 228.4,32.9 228.2,34.6 C228,36.3 227.9,38.9 227.9,42.4 L227.9,46.2 L236.7,46.2 L236.7,42.4 C236.7,39 236.6,36.4 236.4,34.6 C236.2,32.8 235.7,31.6 235.1,30.9 C234.5,30.2 233.5,29.8 232.3,29.8 C230.9,29.7 230,30.1 229.4,30.9 Z" id="Shape" fill-rule="nonzero"></path>
                <path d="M14.1,52.3 L0.5,3 L12.4,3 L17.2,25.3 C18.4,30.8 19.3,35.5 19.9,39.4 L20.2,39.4 C20.6,36.6 21.5,32 22.9,25.4 L27.9,3 L39.8,3 L26,52.3 L26,75.9 L14.2,75.9 L14.2,52.3 L14.1,52.3 Z" id="Path"></path>
                <path d="M108.6,22.7 L108.6,76 L99.2,76 L98.2,69.5 L97.9,69.5 C95.4,74.4 91.5,76.9 86.4,76.9 C82.9,76.9 80.3,75.7 78.6,73.4 C76.9,71.1 76.1,67.5 76.1,62.5 L76.1,22.7 L88.1,22.7 L88.1,61.8 C88.1,64.2 88.4,65.9 88.9,66.9 C89.4,67.9 90.3,68.4 91.5,68.4 C92.5,68.4 93.5,68.1 94.5,67.4 C95.5,66.8 96.2,66 96.6,65 L96.6,22.7 L108.6,22.7 Z" id="Path"></path>
                <path d="M170.1,22.7 L170.1,76 L160.7,76 L159.7,69.5 L159.4,69.5 C156.9,74.4 153,76.9 147.9,76.9 C144.4,76.9 141.8,75.7 140.1,73.4 C138.4,71.1 137.6,67.5 137.6,62.5 L137.6,22.7 L149.6,22.7 L149.6,61.8 C149.6,64.2 149.9,65.9 150.4,66.9 C150.9,67.9 151.8,68.4 153,68.4 C154,68.4 155,68.1 156,67.4 C157,66.8 157.7,66 158.1,65 L158.1,22.7 L170.1,22.7 Z" id="Path"></path>
                <polygon id="Path" points="141.2 12.7 129.3 12.7 129.3 75.9 117.6 75.9 117.6 12.7 105.7 12.7 105.7 3 141.2 3 141.2 12.7"></polygon>
                <path d="M209.8,31.2 C209.1,27.8 207.9,25.4 206.3,23.9 C204.7,22.4 202.4,21.6 199.6,21.6 C197.4,21.6 195.3,22.2 193.4,23.5 C191.5,24.7 190,26.4 189,28.4 L188.9,28.4 L188.9,0.3 L177.3,0.3 L177.3,75.9 L187.2,75.9 L188.4,70.9 L188.7,70.9 C189.6,72.7 191,74.1 192.9,75.2 C194.8,76.2 196.8,76.8 199.1,76.8 C203.2,76.8 206.1,74.9 208,71.2 C209.9,67.5 210.9,61.6 210.9,53.7 L210.9,45.3 C210.8,39.2 210.5,34.5 209.8,31.2 Z M198.8,52.9 C198.8,56.8 198.6,59.8 198.3,62 C198,64.2 197.4,65.8 196.7,66.7 C195.9,67.6 194.9,68.1 193.7,68.1 C192.7,68.1 191.8,67.9 191,67.4 C190.2,66.9 189.5,66.2 189,65.3 L189,35.1 C189.4,33.7 190.1,32.5 191.1,31.5 C192.1,30.6 193.2,30.1 194.3,30.1 C195.5,30.1 196.5,30.6 197.1,31.5 C197.8,32.5 198.2,34.1 198.5,36.3 C198.8,38.6 198.9,41.8 198.9,45.9 L198.9,52.9 L198.8,52.9 Z" id="Shape" fill-rule="nonzero"></path>
            </g>
        </g>
    </g>
</svg>