<svg width="60" height="60" viewBox="0 0 60 60" fill="none" xmlns="http://www.w3.org/2000/svg">
<circle cx="30" cy="30" r="30" fill="#FC4A4A"/>
<path d="M12.2748 22.4462C12.6556 22.8173 13.1168 23.0955 13.6226 23.2595C14.5712 23.5621 15.5859 23.591 16.5502 23.3429C16.9259 23.2537 17.282 23.0964 17.601 22.879V20.2993H16.1867V21.8551C15.9146 21.9077 15.638 21.9337 15.3608 21.9328C14.9955 21.9396 14.6335 21.8621 14.3029 21.7066C13.9953 21.5584 13.7261 21.3411 13.5165 21.0715C13.2917 20.7758 13.1256 20.4397 13.0272 20.0815C12.9107 19.6674 12.854 19.2388 12.8589 18.8086C12.8504 18.3402 12.9114 17.8732 13.0399 17.4226C13.1435 17.0698 13.3161 16.741 13.5476 16.4552C13.7512 16.2097 14.01 16.0158 14.3029 15.8895C14.5962 15.7624 14.9124 15.697 15.2321 15.6972C15.5087 15.6971 15.7849 15.7188 16.058 15.7622V17.2331H17.4723V14.5459C17.1887 14.4168 16.8925 14.3172 16.5884 14.2489C16.1601 14.1561 15.7225 14.1134 15.2844 14.1216C14.7763 14.124 14.2716 14.2047 13.7881 14.3607C13.2772 14.5214 12.8066 14.7895 12.4077 15.147C11.9688 15.5486 11.6231 16.0415 11.3951 16.591C11.133 17.1897 11.0019 17.9313 11.0019 18.8157C10.9833 19.5555 11.1013 20.2924 11.3498 20.9895C11.5484 21.5366 11.8641 22.0338 12.2748 22.4462ZM20.1001 23.2397C20.3535 23.3212 20.6119 23.3859 20.8737 23.4334C21.174 23.486 21.4783 23.5116 21.7831 23.5098C22.2448 23.5131 22.7048 23.4541 23.1508 23.3344C23.5467 23.2309 23.9189 23.0518 24.2469 22.8069C24.5528 22.5743 24.8003 22.2736 24.9696 21.9286C25.148 21.548 25.2361 21.1312 25.2269 20.7109C25.2429 20.2881 25.1278 19.8707 24.8974 19.5158C24.6819 19.2003 24.406 18.9306 24.0856 18.7224C23.7518 18.5054 23.3958 18.3247 23.0235 18.1835C22.6416 18.0421 22.2881 17.8922 21.967 17.7451C21.6771 17.6168 21.4052 17.4514 21.158 17.2529C21.053 17.1701 20.9687 17.064 20.9118 16.9429C20.8548 16.8219 20.8268 16.6893 20.8299 16.5557C20.8281 16.4253 20.8598 16.2966 20.922 16.1819C20.9841 16.0673 21.0746 15.9705 21.1849 15.9008C21.4776 15.7228 21.8173 15.6375 22.1594 15.6562C22.377 15.6566 22.5943 15.6717 22.8099 15.7014C23.0166 15.7285 23.2212 15.7696 23.4223 15.8245C23.4474 15.8327 23.4737 15.837 23.5001 15.8372V17.2685H24.9144V14.6506C24.5326 14.4601 24.1238 14.3294 23.7024 14.2631C23.1921 14.1683 22.6741 14.1209 22.1551 14.1216C21.7259 14.1165 21.2987 14.1819 20.8907 14.3154C20.5347 14.432 20.2044 14.6159 19.9177 14.8571C19.6491 15.0851 19.4334 15.3689 19.2855 15.6887C19.1336 16.0224 19.0577 16.3857 19.0634 16.7522C19.0441 17.1892 19.1591 17.6216 19.393 17.9912C19.6089 18.306 19.8848 18.5751 20.2048 18.7832C20.5356 18.9986 20.8907 19.1743 21.2627 19.3065C21.6445 19.446 21.9958 19.5832 22.3163 19.718C22.6082 19.8382 22.8815 19.9991 23.1282 20.1961C23.234 20.2804 23.3189 20.3882 23.376 20.5109C23.4332 20.6336 23.4612 20.7679 23.4577 20.9032C23.4616 21.0564 23.427 21.2082 23.357 21.3446C23.2871 21.481 23.1841 21.5976 23.0574 21.6839C22.7915 21.8777 22.4168 21.9668 21.9359 21.9668C21.6835 21.9711 21.4314 21.9459 21.1849 21.8918C20.9622 21.8403 20.7445 21.7693 20.5343 21.6797L20.4565 21.6528V20.3799H19.0422V22.7843C19.154 22.8437 19.2996 22.9172 19.4807 23.0035C19.6821 23.0949 19.889 23.1738 20.1001 23.2397ZM27.8391 23.2397C28.0924 23.3213 28.351 23.3861 28.6128 23.4334C28.913 23.4862 29.2174 23.5118 29.5222 23.5098C29.9834 23.513 30.443 23.454 30.8884 23.3344C31.2845 23.2312 31.6568 23.052 31.9845 22.8069C32.2904 22.5743 32.5379 22.2736 32.7072 21.9286C32.8857 21.548 32.9738 21.1312 32.9646 20.7109C32.9816 20.2888 32.8686 19.8716 32.6407 19.5158C32.4243 19.2005 32.148 18.9309 31.8275 18.7224C31.4953 18.5069 31.1411 18.3272 30.771 18.1863C30.3883 18.0411 30.0356 17.895 29.7131 17.7479C29.4202 17.6194 29.1453 17.453 28.8956 17.2529C28.7907 17.1701 28.7064 17.064 28.6494 16.9429C28.5925 16.8219 28.5645 16.6893 28.5675 16.5557C28.5651 16.4248 28.5965 16.2955 28.6587 16.1802C28.721 16.065 28.8118 15.9678 28.9225 15.898C29.2148 15.7202 29.554 15.635 29.8955 15.6533C30.1132 15.6537 30.3306 15.6688 30.5461 15.6986C30.7533 15.7257 30.9584 15.7668 31.1599 15.8216C31.1845 15.83 31.2104 15.8343 31.2363 15.8344V17.2685H32.6506V14.6506C32.2689 14.4599 31.8602 14.3292 31.4386 14.2631C30.9283 14.1682 30.4104 14.1209 29.8913 14.1216C29.4621 14.1165 29.0349 14.1819 28.6269 14.3154C28.2709 14.432 27.9406 14.6159 27.6539 14.8571C27.3853 15.0851 27.1696 15.3689 27.0217 15.6887C26.8689 16.0222 26.7917 16.3854 26.7954 16.7522C26.7762 17.1892 26.8911 17.6216 27.1249 17.9912C27.3413 18.3056 27.6171 18.5747 27.9367 18.7832C28.268 18.998 28.623 19.1736 28.9946 19.3065C29.3775 19.4432 29.7301 19.5804 30.0525 19.718C30.3449 19.8382 30.6187 19.9991 30.8658 20.1961C30.9713 20.2807 31.0557 20.3886 31.1127 20.5113C31.1696 20.6339 31.1974 20.7681 31.1939 20.9032C31.1993 21.056 31.1662 21.2076 31.0977 21.3442C31.0293 21.4809 30.9277 21.5981 30.8021 21.6853C30.5362 21.8791 30.1614 21.9682 29.6806 21.9682C29.427 21.9701 29.174 21.9421 28.9267 21.8848C28.7036 21.8334 28.4855 21.7625 28.2748 21.6726L28.197 21.6457V20.3729H26.7827V22.7772C26.8944 22.8366 27.0415 22.9101 27.2211 22.9964C27.4219 23.0904 27.6283 23.1716 27.8391 23.2397Z" fill="white"/>
<path d="M14.5784 27.7046H14.5275L12.9888 25.2168H11.2053V34.1934H12.8728V29.2688L12.7964 28.0129H12.8601L14.3606 30.3593H14.6675L16.1045 28.0129H16.1809L16.1172 29.4103V34.1934H17.8738V25.2168H16.1045L14.5784 27.7046ZM19.5313 26.7811H21.8013V32.6292H19.5313V34.1934H25.8405V32.6292H23.5579V26.7811H25.8405V25.2168H19.5313V26.7811ZM32.1766 34.1934H33.7139V25.2168H32.0479V29.6281L32.1624 30.7058H32.0988L28.9958 25.2168H27.4571V34.1934H29.1231V29.9491L29.0467 28.8841H29.1104L32.1766 34.1934ZM37.9569 34.3731C38.4157 34.3766 38.8728 34.3185 39.316 34.2005C39.7099 34.0966 40.08 33.9179 40.4064 33.6744C40.7099 33.4457 40.9563 33.15 41.1263 32.8103C41.3037 32.4312 41.3912 32.0165 41.3823 31.5982C41.3986 31.1762 41.2844 30.7595 41.0556 30.4045C40.8402 30.0914 40.5654 29.8238 40.2466 29.6168C39.9165 29.4019 39.5642 29.2232 39.1958 29.0836C38.8187 28.9393 38.468 28.7941 38.1435 28.648C37.8543 28.5211 37.5829 28.357 37.336 28.16C37.2312 28.0784 37.147 27.9732 37.0903 27.8531C37.0336 27.733 37.0059 27.6012 37.0093 27.4684C37.007 27.3383 37.0381 27.2096 37.0998 27.095C37.1614 26.9803 37.2515 26.8834 37.3614 26.8136C37.6526 26.6372 37.9902 26.5524 38.3302 26.5703C38.547 26.5708 38.7634 26.5859 38.978 26.6156C39.1836 26.6432 39.3871 26.6838 39.5875 26.7372C39.6122 26.7456 39.638 26.7499 39.6639 26.75V28.1742H41.0782V25.5634C40.6974 25.3713 40.2889 25.2397 39.8676 25.173C39.3601 25.0789 38.845 25.0316 38.3288 25.0316C37.9021 25.0266 37.4774 25.0916 37.0715 25.2239C36.7176 25.3401 36.3892 25.5231 36.1041 25.7628C35.8343 25.9908 35.6175 26.2751 35.4691 26.5958C35.318 26.9278 35.2417 27.2889 35.2456 27.6537C35.2261 28.0876 35.3401 28.5171 35.5723 28.8841C35.7869 29.198 36.0613 29.4661 36.3799 29.6733C36.709 29.8872 37.0623 30.0613 37.4321 30.1924C37.8093 30.3291 38.1597 30.4658 38.483 30.6025C38.7738 30.722 39.0462 30.882 39.292 31.0777C39.3977 31.1622 39.4822 31.2699 39.5389 31.3927C39.5956 31.5155 39.6229 31.6497 39.6187 31.7849C39.6226 31.9371 39.5883 32.0877 39.5188 32.223C39.4494 32.3585 39.3471 32.4744 39.2212 32.5599C38.9554 32.7484 38.5834 32.8428 38.1054 32.8428C37.8526 32.8446 37.6006 32.8166 37.3544 32.7593C37.1327 32.7083 36.9159 32.6378 36.7066 32.5486L36.6302 32.5217V31.2489H35.2159V33.6334C35.3262 33.6942 35.4719 33.7663 35.6515 33.8526C35.8539 33.9464 36.0617 34.0275 36.2738 34.0959C36.5257 34.177 36.7828 34.2412 37.0432 34.2882C37.3446 34.3444 37.6504 34.3728 37.9569 34.3731ZM44.7045 30.4498H45.6153L47.8216 34.1934H49.9883L47.1414 29.5517L49.6673 25.2168H47.6675L45.6153 28.8841H44.7045V25.2168H42.9479V34.1934H44.7045V30.4498Z" fill="white"/>
<path d="M36.6134 37.8169H40.2383V42.0032C40.2383 42.5869 40.0875 43.0428 39.7857 43.3709C39.6284 43.539 39.4316 43.6649 39.2129 43.7372C39.0156 43.8068 38.8084 43.8441 38.5991 43.8475C38.3235 43.8516 38.0484 43.8212 37.7802 43.757C37.4818 43.6716 37.1962 43.546 36.9316 43.3836L36.2994 44.7979C36.6592 45.0183 37.0509 45.1815 37.4606 45.2816C37.8539 45.3724 38.2564 45.4174 38.6599 45.416C38.7886 45.416 38.9527 45.416 39.1507 45.3905C39.364 45.3707 39.5751 45.3319 39.7815 45.2745C40.0205 45.2089 40.2517 45.1184 40.4716 45.0044C40.7177 44.8768 40.942 44.7112 41.1364 44.5136C41.4539 44.1934 41.6867 43.7993 41.8138 43.3666C41.9408 42.9176 42.0038 42.4528 42.0005 41.9863V36.2442H36.6134V37.8169ZM48.8472 40.6611C48.5149 40.4452 48.1602 40.266 47.7893 40.1265C47.4074 39.985 47.0538 39.8337 46.7328 39.688C46.4416 39.5605 46.1682 39.3955 45.9195 39.1973C45.8145 39.1148 45.7299 39.009 45.6727 38.8882C45.6156 38.7675 45.5872 38.6351 45.59 38.5014C45.5876 38.3705 45.619 38.2412 45.6812 38.1261C45.7435 38.0108 45.8343 37.9136 45.945 37.8438C46.2373 37.6647 46.5772 37.5789 46.9195 37.5977C47.1371 37.5981 47.3545 37.6132 47.57 37.6429C47.7765 37.6714 47.981 37.7125 48.1824 37.766C48.2076 37.7742 48.2338 37.7786 48.2602 37.7787V39.21H49.6745V36.5921C49.2941 36.4022 48.8868 36.2715 48.4667 36.2046C47.9583 36.1101 47.4423 36.0627 46.9251 36.0632C46.4959 36.0579 46.0688 36.1234 45.6607 36.2569C45.3046 36.3732 44.9742 36.5572 44.6877 36.7986C44.4191 37.0267 44.2034 37.3104 44.0555 37.6302C43.902 37.964 43.8247 38.3277 43.8292 38.6952C43.8101 39.1316 43.9251 39.5636 44.1587 39.9327C44.3747 40.2479 44.6505 40.5175 44.9705 40.7261C45.3015 40.9411 45.6565 41.1163 46.0284 41.248C46.4103 41.3894 46.7639 41.5309 47.0863 41.661C47.3781 41.7806 47.6515 41.9412 47.8982 42.1376C48.0039 42.222 48.0888 42.3298 48.1459 42.4526C48.2031 42.5752 48.2311 42.7094 48.2277 42.8448C48.2314 42.9979 48.1967 43.1495 48.1267 43.2859C48.0568 43.4222 47.954 43.539 47.8274 43.6254C47.5616 43.8178 47.1868 43.9083 46.7059 43.9083C46.4517 43.9099 46.1983 43.8813 45.9507 43.8235C45.7279 43.7725 45.5101 43.7015 45.3001 43.6113L45.2223 43.5858V42.313H43.808V44.7173C43.9197 44.7781 44.0654 44.8517 44.2464 44.9365C44.4492 45.0317 44.6581 45.1134 44.8715 45.1812C45.1247 45.2634 45.3832 45.3281 45.6452 45.3749C45.9454 45.4281 46.2498 45.4541 46.5546 45.4527C47.0162 45.4564 47.4763 45.398 47.9222 45.2788C48.3183 45.1748 48.6904 44.9952 49.0183 44.7498C49.3242 44.5177 49.5717 44.2175 49.741 43.873C49.9195 43.4918 50.0076 43.0746 49.9984 42.6538C50.0152 42.2295 49.9001 41.8106 49.6689 41.4545C49.4505 41.138 49.1712 40.8683 48.8472 40.6611Z" fill="white"/>
<path d="M33.8821 14.9888L34.8701 14.0008L35.8583 14.9888L34.8701 15.9769L33.8821 14.9888Z" fill="white"/>
<path d="M47.8914 16.9591L48.8794 15.9711L49.8676 16.9591L48.8794 17.9472L47.8914 16.9591Z" fill="white"/>
<path d="M47.8926 20.9037L48.8806 19.9156L49.8688 20.9037L48.8806 21.8918L47.8926 20.9037Z" fill="white"/>
<path d="M33.8821 18.9727L34.8701 17.9847L35.8581 18.9727L34.8701 19.9608L33.8821 18.9727Z" fill="white"/>
<path d="M41.9756 18.8911L42.9638 17.903L43.9518 18.8911L42.9638 19.8791L41.9756 18.8911Z" fill="white"/>
<path d="M37.9902 22.8756L38.9783 21.8875L39.9663 22.8756L38.9783 23.8636L37.9902 22.8756Z" fill="white"/>
<path d="M46.9068 23.8634L47.894 22.8762L45.9224 20.9032L47.894 18.9317V18.9303L45.9224 16.9601L47.894 14.9886L46.9068 14.0014L44.9353 15.9715L42.9637 14L41.9751 14.9872L45.9196 18.9317L41.9751 22.8748L42.9637 23.862L44.9353 21.8918L46.9068 23.8634ZM41.9369 20.9032L38.9782 17.9445V17.9459L38.9768 17.9445L36.0181 20.9032L37.0067 21.8918L38.9782 19.9203L40.9497 21.8918L41.9369 20.9032Z" fill="white"/>
<path d="M37.0067 17.9473L38.9782 15.9758L40.9497 17.9473L41.9369 16.9602L38.9782 14.0014H38.9768L36.0181 16.9602L37.0067 17.9473Z" fill="white"/>
<path d="M33.8813 22.8758L34.8694 21.8877L35.8574 22.8758L34.8694 23.8638L33.8813 22.8758Z" fill="white"/>
<path d="M36.7169 40.7472L37.705 39.7592L38.6931 40.7472L37.705 41.7352L36.7169 40.7472Z" fill="white"/>
<path d="M11.9927 37.8475L11 38.8402L11.9927 39.8329L12.9854 38.8402L11.9927 37.8475Z" fill="white"/>
<path d="M18.1883 35.8652L17.1956 36.8579L18.1883 37.8506L19.1809 36.8579L18.1883 35.8652Z" fill="white"/>
<path d="M18.0629 43.7776L17.0702 44.7703L18.0629 45.763L19.0556 44.7703L18.0629 43.7776Z" fill="white"/>
<path d="M16.0836 41.771L15.0909 42.7637L16.0836 43.7564L17.0763 42.7637L16.0836 41.771Z" fill="white"/>
<path d="M24.0511 37.8462L23.0583 38.8389L24.0511 39.8316L25.0438 38.8389L24.0511 37.8462Z" fill="white"/>
<path d="M26.0388 35.8604L25.0461 36.8531L26.0388 37.8458L27.0315 36.8531L26.0388 35.8604Z" fill="white"/>
<path d="M22.0675 35.8611L21.0748 36.8538L22.0675 37.8465L23.0602 36.8538L22.0675 35.8611Z" fill="white"/>
<path d="M25.993 43.7379L25.0002 44.7306L25.993 45.7233L26.9857 44.7306L25.993 43.7379Z" fill="white"/>
<path d="M20.0843 37.9493L17.236 40.7947L20.0843 43.643L22.9296 40.7947L20.0843 37.9493ZM19.126 40.7947L20.0843 39.8394L21.0396 40.7947L20.0843 41.7529L19.126 40.7947Z" fill="white"/>
<path d="M16.9648 38.7771L14.0944 35.7803L13.1405 36.7782L15.0571 38.7771L11.2711 42.7135L14.115 45.6765L15.0689 44.6817L13.1877 42.7196L16.9648 38.7771Z" fill="white"/>
<path d="M27.9948 37.9493L26.9908 38.9253L26.9937 38.9284L26.0115 39.8774L21.0315 44.7034L22.0386 45.6765L27.0155 40.8534L29.0298 38.9014L27.9948 37.9493Z" fill="white"/>
<path d="M33.9171 35.7803L32.9244 36.773L33.9171 37.7657L34.9098 36.773L33.9171 35.7803Z" fill="white"/>
<path d="M29.9405 35.781L28.9478 36.7737L29.9405 37.7664L30.9332 36.7737L29.9405 35.781Z" fill="white"/>
<path d="M31.9878 37.9493L28.9781 40.8516L30.994 42.7923L29.9501 43.7987L28.0059 41.924L26.9963 42.9005L29.9594 45.6765L32.9818 42.7923L34.9947 40.8516L31.9878 37.9493ZM31.9878 41.8249L30.9752 40.8516L31.9878 39.8751L32.9974 40.8516L31.9878 41.8249Z" fill="white"/>
<path d="M33.9201 43.7383L32.9274 44.731L33.9201 45.7237L34.9126 44.731L33.9201 43.7383Z" fill="white"/>
</svg>
