<svg width="545" height="128" viewBox="0 0 545 128" fill="none" xmlns="http://www.w3.org/2000/svg">
<circle cx="58.2344" cy="20.5526" r="9.95199" transform="rotate(45 58.2344 20.5526)" fill="#0067FF"/>
<circle cx="79.8125" cy="42.1332" r="9.95199" transform="rotate(45 79.8125 42.1332)" fill="#0067FF"/>
<circle cx="101.396" cy="63.7137" r="9.95199" transform="rotate(45 101.396 63.7137)" fill="#0067FF"/>
<circle cx="36.6562" cy="42.1332" r="9.95199" transform="rotate(45 36.6562 42.1332)" fill="#0067FF"/>
<circle cx="79.8125" cy="85.2942" r="9.95199" transform="rotate(45 79.8125 85.2942)" fill="#0067FF"/>
<circle cx="15.0723" cy="63.7137" r="9.95199" transform="rotate(45 15.0723 63.7137)" fill="#0067FF"/>
<circle cx="36.6562" cy="85.2942" r="9.95199" transform="rotate(45 36.6562 85.2942)" fill="#0067FF"/>
<circle cx="58.2344" cy="106.875" r="9.95199" transform="rotate(45 58.2344 106.875)" fill="#0067FF"/>
<circle cx="175.039" cy="64" r="44.9123" fill="#00C2FF"/>
<rect x="112.162" width="17.9649" height="128" fill="#0067FF"/>
<path d="M237.916 39.2982L219.951 64.5195L237.916 87.5789V39.2982Z" fill="#C4C4C4" stroke="black"/>
<path d="M290.432 36.8658L286.401 23.6943H283.344L279.313 36.8658L276.579 19.381H273.846L277.321 39.4166H280.934L284.873 26.6161L288.811 39.4166H292.425L295.899 19.381H293.212L290.432 36.8658Z" fill="white"/>
<path d="M304.962 39.4166H307.696V23.5551C307.696 23.5551 309.364 21.3753 313.024 21.3753C316.777 21.3753 317.657 23.6479 317.657 27.822V39.4166H320.39V27.1263C320.39 20.2622 316.962 18.9172 313.58 18.9172C310.012 18.9172 308.53 20.4477 307.696 21.4217V10.1053H304.962V39.4166Z" fill="white"/>
<path d="M332.001 39.4166H348.959V36.9122H342.148V19.381H332.001V21.8855H339.414V36.9122H332.001V39.4166ZM338.905 13.862H342.658V10.1053H338.905V13.862Z" fill="white"/>
<path d="M357.882 21.8855H364.554V31.5323C364.554 38.3036 367.149 39.8804 371.782 39.8804C374.979 39.8804 376.6 39.1384 376.6 39.1384V36.6339C376.6 36.6339 374.376 37.376 371.875 37.376C368.307 37.376 367.288 35.8919 367.288 31.4395V21.8855H377.11V19.381H367.288V10.1053H364.554V19.381H357.882V21.8855Z" fill="white"/>
<path d="M396.18 39.8804C399.701 39.8804 404.613 38.3963 405.354 32.9236H402.62C402.064 35.8455 399.794 37.4687 396.319 37.4687C391.964 37.4687 389.694 34.9643 389.462 30.0018H405.4V29.3525C405.4 21.1898 400.304 18.9172 396.18 18.9172C391.825 18.9172 386.729 21.4217 386.729 29.4452C386.729 36.9586 391.223 39.8804 396.18 39.8804ZM395.995 21.3289C399.794 21.3289 402.064 23.416 402.574 27.7292H389.509C389.926 23.416 392.196 21.3289 395.995 21.3289Z" fill="white"/>
<path d="M416.085 47.6721H418.818V37.2832C419.698 38.2572 421.598 39.8804 424.749 39.8804C429.15 39.8804 433.042 36.6803 433.042 29.3525C433.042 21.8855 429.011 18.9172 424.702 18.9172C420.347 18.9172 418.262 21.9319 418.262 21.9319V19.381H416.085V47.6721ZM424.146 37.3296C420.671 37.3296 418.818 35.1962 418.818 35.1962V23.6015C418.818 23.6015 420.671 21.4681 424.146 21.4681C428.409 21.4681 430.216 24.7146 430.216 29.3988C430.216 34.0831 428.409 37.3296 424.146 37.3296Z" fill="white"/>
<path d="M448.962 39.8804C454.151 39.8804 456.189 36.8658 456.189 36.8658V37.2368C456.189 38.4427 456.653 39.8804 458.969 39.8804C460.498 39.8804 462.212 39.2311 462.212 39.2311V37.0977C462.212 37.0977 460.73 37.4224 459.71 37.4224C458.83 37.4224 458.552 37.1905 458.552 36.402V26.7089C458.552 21.7463 456.282 18.9172 450.954 18.9172C447.479 18.9172 442.568 20.1231 442.568 26.0132H445.301C445.301 22.9986 447.062 21.3753 450.722 21.3753C455.448 21.3753 455.819 24.1117 455.819 27.4973V29.3061C455.819 29.3061 452.992 28.5176 449.935 28.5176C446.274 28.5176 442.197 29.6307 442.197 34.2686C442.197 38.2108 445.116 39.8804 448.962 39.8804ZM449.147 37.376C446.228 37.376 444.884 36.3093 444.884 34.2222C444.884 31.6714 446.969 30.883 450.305 30.883C453.131 30.883 455.819 31.4395 455.819 31.4395V35.2426C455.819 35.2426 453.317 37.376 449.147 37.376Z" fill="white"/>
<path d="M471.646 47.6721H474.379V37.2832C475.26 38.2572 477.159 39.8804 480.31 39.8804C484.711 39.8804 488.603 36.6803 488.603 29.3525C488.603 21.8855 484.572 18.9172 480.263 18.9172C475.908 18.9172 473.823 21.9319 473.823 21.9319V19.381H471.646V47.6721ZM479.707 37.3296C476.233 37.3296 474.379 35.1962 474.379 35.1962V23.6015C474.379 23.6015 476.233 21.4681 479.707 21.4681C483.97 21.4681 485.777 24.7146 485.777 29.3988C485.777 34.0831 483.97 37.3296 479.707 37.3296Z" fill="white"/>
<path d="M507.303 39.8804C510.824 39.8804 515.735 38.3963 516.476 32.9236H513.743C513.187 35.8455 510.917 37.4687 507.442 37.4687C503.087 37.4687 500.816 34.9643 500.585 30.0018H516.523V29.3525C516.523 21.1898 511.426 18.9172 507.303 18.9172C502.948 18.9172 497.851 21.4217 497.851 29.4452C497.851 36.9586 502.345 39.8804 507.303 39.8804ZM507.117 21.3289C510.917 21.3289 513.187 23.416 513.696 27.7292H500.631C501.048 23.416 503.318 21.3289 507.117 21.3289Z" fill="white"/>
<path d="M526.466 39.4166H543.423V36.9122H534.527V25.5958C534.527 25.5958 536.242 21.7 541.106 21.7C543.006 21.7 544.442 22.3029 544.442 22.3029V19.5202C544.442 19.5202 542.913 18.9172 540.967 18.9172C535.5 18.9172 533.971 23.6943 533.971 23.6943V19.381H526.466V21.8855H531.794V36.9122H526.466V39.4166Z" fill="white"/>
<path d="M284.826 83.9402C289.181 83.9402 294.139 81.6213 294.139 73.4123C294.139 65.3424 289.32 62.977 284.919 62.977C280.564 62.977 275.606 65.296 275.606 73.505C275.606 81.5749 280.425 83.9402 284.826 83.9402ZM284.873 81.3894C280.656 81.3894 278.432 78.7458 278.432 73.4586C278.432 68.1715 280.656 65.5279 284.873 65.5279C289.089 65.5279 291.313 68.1715 291.313 73.4586C291.313 78.7458 289.089 81.3894 284.873 81.3894Z" fill="white"/>
<path d="M304.962 91.7319H307.696V81.343C308.576 82.317 310.476 83.9402 313.626 83.9402C318.028 83.9402 321.919 80.7401 321.919 73.4123C321.919 65.9453 317.889 62.977 313.58 62.977C309.225 62.977 307.14 65.9917 307.14 65.9917V63.4408H304.962V91.7319ZM313.024 81.3894C309.549 81.3894 307.696 79.256 307.696 79.256V67.6613C307.696 67.6613 309.549 65.5279 313.024 65.5279C317.286 65.5279 319.093 68.7744 319.093 73.4586C319.093 78.1429 317.286 81.3894 313.024 81.3894Z" fill="white"/>
<path d="M340.619 83.9402C344.14 83.9402 349.051 82.4561 349.793 76.9834H347.059C346.503 79.9053 344.233 81.5285 340.758 81.5285C336.403 81.5285 334.133 79.0241 333.901 74.0616H349.839V73.4123C349.839 65.2496 344.743 62.977 340.619 62.977C336.264 62.977 331.168 65.4815 331.168 73.505C331.168 81.0184 335.662 83.9402 340.619 83.9402ZM340.434 65.3887C344.233 65.3887 346.503 67.4758 347.013 71.789H333.947C334.364 67.4758 336.635 65.3887 340.434 65.3887Z" fill="white"/>
<path d="M360.523 83.4764H363.257V67.6149C363.257 67.6149 364.925 65.4351 368.585 65.4351C372.338 65.4351 373.218 67.7077 373.218 71.8818V83.4764H375.952V71.1861C375.952 64.3684 372.523 62.977 369.234 62.977C364.415 62.977 362.701 65.9917 362.701 65.9917V63.4408H360.523V83.4764Z" fill="white"/>
<path d="M396.458 83.9402C400.999 83.9402 404.752 82.4097 404.752 77.9574C404.752 74.2007 402.064 73.134 398.034 72.16C393.539 71.0933 390.621 70.8614 390.621 68.357C390.621 66.4091 392.381 65.4815 395.81 65.4815C398.219 65.4815 401.23 65.9453 401.786 69.2845H404.474C404.103 64.7394 400.582 62.977 395.856 62.977C391.362 62.977 387.841 64.5539 387.841 68.5425C387.841 72.2064 390.899 73.134 394.651 74.0152C399.284 75.1283 401.972 75.5457 401.972 78.1893C401.972 80.601 399.794 81.4358 396.644 81.4358C392.057 81.4358 390.157 79.627 389.879 77.1226H387.192C387.47 81.6677 390.945 83.9402 396.458 83.9402Z" fill="white"/>
<path d="M423.729 83.9402C428.084 83.9402 433.042 81.6213 433.042 73.4123C433.042 65.3424 428.223 62.977 423.822 62.977C419.467 62.977 414.509 65.296 414.509 73.505C414.509 81.5749 419.328 83.9402 423.729 83.9402ZM423.776 81.3894C419.559 81.3894 417.336 78.7458 417.336 73.4586C417.336 68.1715 419.559 65.5279 423.776 65.5279C427.992 65.5279 430.216 68.1715 430.216 73.4586C430.216 78.7458 427.992 81.3894 423.776 81.3894Z" fill="white"/>
<path d="M450.583 83.9402C455.402 83.9402 457.116 80.9256 457.116 80.9256V83.4764H459.293V63.4408H456.56V79.3024C456.56 79.3024 454.892 81.4822 451.232 81.4822C447.479 81.4822 446.599 79.2096 446.599 75.0355V63.4408H443.865V75.7312C443.865 82.5489 447.294 83.9402 450.583 83.9402Z" fill="white"/>
<path d="M470.904 83.4764H487.862V80.972H478.966V69.6556C478.966 69.6556 480.68 65.7598 485.545 65.7598C487.445 65.7598 488.881 66.3627 488.881 66.3627V63.58C488.881 63.58 487.352 62.977 485.406 62.977C479.939 62.977 478.41 67.7541 478.41 67.7541V63.4408H470.904V65.9453H476.233V80.972H470.904V83.4764Z" fill="white"/>
<path d="M507.303 83.9402C510.731 83.9402 515.457 82.5025 515.828 76.7979H513.048C512.677 80.3227 510.453 81.4358 507.534 81.4358C503.133 81.4358 500.631 78.8849 500.631 73.4123C500.631 67.9396 503.133 65.4815 507.534 65.4815C510.453 65.4815 512.677 66.5482 513.048 70.073H515.828C515.457 64.3684 510.87 62.977 507.442 62.977C503.272 62.977 497.851 65.0641 497.851 73.505C497.851 81.714 502.994 83.9402 507.303 83.9402Z" fill="white"/>
<path d="M535.083 83.9402C538.604 83.9402 543.516 82.4561 544.257 76.9834H541.523C540.967 79.9053 538.697 81.5285 535.222 81.5285C530.867 81.5285 528.597 79.0241 528.365 74.0616H544.303V73.4123C544.303 65.2496 539.207 62.977 535.083 62.977C530.728 62.977 525.632 65.4815 525.632 73.505C525.632 81.0184 530.126 83.9402 535.083 83.9402ZM534.898 65.3887C538.697 65.3887 540.967 67.4758 541.477 71.789H528.412C528.829 67.4758 531.099 65.3887 534.898 65.3887Z" fill="white"/>
<path d="M274.541 110.005H281.212V119.652C281.212 126.423 283.807 128 288.44 128C291.637 128 293.258 127.258 293.258 127.258V124.754C293.258 124.754 291.035 125.496 288.533 125.496C284.965 125.496 283.946 124.011 283.946 119.559V110.005H293.768V107.501H283.946V98.2249H281.212V107.501H274.541V110.005Z" fill="white"/>
<path d="M312.607 128C316.962 128 321.919 125.681 321.919 117.472C321.919 109.402 317.101 107.037 312.699 107.037C308.344 107.037 303.387 109.356 303.387 117.565C303.387 125.635 308.205 128 312.607 128ZM312.653 125.449C308.437 125.449 306.213 122.806 306.213 117.518C306.213 112.231 308.437 109.588 312.653 109.588C316.869 109.588 319.093 112.231 319.093 117.518C319.093 122.806 316.869 125.449 312.653 125.449Z" fill="white"/>
<path d="M340.387 128C344.743 128 349.7 125.681 349.7 117.472C349.7 109.402 344.882 107.037 340.48 107.037C336.125 107.037 331.168 109.356 331.168 117.565C331.168 125.635 335.986 128 340.387 128ZM340.434 125.449C336.218 125.449 333.994 122.806 333.994 117.518C333.994 112.231 336.218 109.588 340.434 109.588C344.65 109.588 346.874 112.231 346.874 117.518C346.874 122.806 344.65 125.449 340.434 125.449Z" fill="white"/>
<path d="M359.782 127.536H376.739V125.032H369.604V98.2249H359.782V100.729H366.871V125.032H359.782V127.536Z" fill="white"/>
<path d="M396.458 128C400.999 128 404.752 126.47 404.752 122.017C404.752 118.26 402.064 117.194 398.034 116.22C393.539 115.153 390.621 114.921 390.621 112.417C390.621 110.469 392.381 109.541 395.81 109.541C398.219 109.541 401.23 110.005 401.786 113.344H404.474C404.103 108.799 400.582 107.037 395.856 107.037C391.362 107.037 387.841 108.614 387.841 112.602C387.841 116.266 390.899 117.194 394.651 118.075C399.284 119.188 401.972 119.605 401.972 122.249C401.972 124.661 399.794 125.496 396.644 125.496C392.057 125.496 390.157 123.687 389.879 121.182H387.192C387.47 125.727 390.945 128 396.458 128Z" fill="white"/>
</svg>
