<svg xmlns="http://www.w3.org/2000/svg" width="60" height="60" viewBox="0 0 60 60">
  <path fill="#FFFFFF" d="M30,0 C46.5685425,-3.04359188e-15 60,13.4314575 60,30 C60,46.5685425 46.5685425,60 30,60 C13.4314575,60 2.02906125e-15,46.5685425 0,30 C-2.02906125e-15,13.4314575 13.4314575,3.04359188e-15 30,0 Z M17.7945845,23.0999412 L17.7945845,37.0182245 C17.8816205,37.5203089 17.7207846,38.0331913 17.3613445,38.3997649 L14,42.4121106 L14,42.9412111 L23.5312792,42.9412111 L23.5312792,42.4121106 L20.1699346,38.3997649 C19.8078583,38.0337981 19.6370633,37.5242954 19.706816,37.0182245 L19.706816,24.9811875 L28.0728291,42.9412111 L29.0438842,42.9412111 L36.2296918,24.9811875 L36.2296918,39.2962964 C36.2296918,39.6784245 36.2296918,39.7519106 35.9757237,40.0017637 L33.3912232,42.4708995 L33.3912232,43 L45.9402428,43 L45.9402428,42.4708995 L43.4453782,40.0605526 C43.2251417,39.895349 43.1158933,39.6238255 43.1615314,39.3550853 L43.1615314,21.6449148 C43.1158933,21.3761746 43.2251417,21.1046509 43.4453782,20.9394474 L46,18.5291005 L46,18 L37.1559292,18 L30.8515406,33.4761904 L23.6806723,18 L14.4033613,18 L14.4033613,18.5291005 L17.3912232,22.0711346 C17.6845435,22.3313055 17.8343421,22.7133791 17.7945845,23.0999412 Z"/>
</svg>
