<svg width="228" height="77" viewBox="0 0 228 77" fill="none" xmlns="http://www.w3.org/2000/svg">
<mask id="mask0" mask-type="alpha" maskUnits="userSpaceOnUse" x="0" y="0" width="228" height="77">
<rect width="228" height="77" fill="#C4C4C4"/>
</mask>
<g mask="url(#mask0)">
<path d="M75.0444 43H17.0281C10.8425 43 5.14505 46.3598 2.1515 51.7728C-0.679734 56.8922 -0.679734 63.1078 2.1515 68.2272C5.14505 73.6402 10.8425 77 17.0281 77H75.0444C78.5705 77 81.8824 75.3076 83.9483 72.45L85.2923 70.5909C88.5502 66.0846 95.0671 65.564 98.9991 69.4959C102.572 73.0687 108.381 73.0159 111.888 69.3788L116.726 64.3612C118.181 62.8524 120.187 62 122.283 62H122.503C126.645 62 130.003 65.3579 130.003 69.5C130.003 73.6421 133.361 77 137.503 77H169.003C178.392 77 186.003 69.3888 186.003 60C186.003 50.6112 178.392 43 169.003 43H137.503C133.361 43 130.003 46.3579 130.003 50.5C130.003 54.6421 126.645 58 122.503 58H122.283C120.187 58 118.181 57.1477 116.726 55.6388L111.888 50.6212C108.381 46.9841 102.572 46.9313 98.9991 50.5041C95.0671 54.436 88.5501 53.9154 85.2923 49.4091L83.9483 47.55C81.8824 44.6924 78.5705 43 75.0444 43Z" fill="#E5E5E5"/>
<circle cx="211" cy="60" r="17" fill="#959595"/>
</g>
</svg>
