<svg width="228" height="76" viewBox="0 0 228 76" fill="none" xmlns="http://www.w3.org/2000/svg">
<mask id="mask0" mask-type="alpha" maskUnits="userSpaceOnUse" x="0" y="0" width="228" height="76">
<rect width="228" height="76" fill="#C4C4C4"/>
</mask>
<g mask="url(#mask0)">
<path d="M75.0444 42H17.0281C10.8425 42 5.14505 45.3598 2.1515 50.7728C-0.679734 55.8922 -0.679734 62.1078 2.1515 67.2272C5.14505 72.6402 10.8425 76 17.0281 76H75.0444C78.5705 76 81.8824 74.3076 83.9483 71.45L85.2923 69.5909C88.5502 65.0846 95.0671 64.564 98.9991 68.4959C102.572 72.0687 108.381 72.0159 111.888 68.3788L116.726 63.3612C118.181 61.8524 120.187 61 122.283 61H122.503C126.645 61 130.003 64.3579 130.003 68.5C130.003 72.6421 133.361 76 137.503 76H169.003C178.392 76 186.003 68.3888 186.003 59C186.003 49.6112 178.392 42 169.003 42H137.503C133.361 42 130.003 45.3579 130.003 49.5C130.003 53.6421 126.645 57 122.503 57H122.283C120.187 57 118.181 56.1477 116.726 54.6388L111.888 49.6212C108.381 45.9841 102.572 45.9313 98.9991 49.5041C95.0671 53.436 88.5501 52.9154 85.2923 48.4091L83.9483 46.55C81.8824 43.6924 78.5705 42 75.0444 42Z" fill="#E5E5E5"/>
<circle cx="211" cy="59" r="17" fill="#959595"/>
<path d="M11.576 9.86L8.3 20.948L7.616 14.468L6.248 2.912H3.908L6.536 23H9.704L12.8 12.524L15.896 23H19.064L21.692 2.912H19.388L18.02 14.468L17.336 20.948L14.06 9.86H11.576ZM28.4099 23H30.5339V10.688C30.5339 10.688 31.8299 8.996 34.6739 8.996C37.5899 8.996 38.2739 10.76 38.2739 14V23H40.3979V13.46C40.3979 8.132 37.7339 7.088 35.1059 7.088C32.3339 7.088 31.1819 8.276 30.5339 9.032V0.247999H28.4099V23ZM49.4199 23H62.5959V21.056H57.3039V7.448H49.4199V9.392H55.1799V21.056H49.4199V23ZM54.7839 3.164H57.6999V0.247999H54.7839V3.164ZM69.5298 9.392H74.7138V16.88C74.7138 22.136 76.7298 23.36 80.3298 23.36C82.8138 23.36 84.0738 22.784 84.0738 22.784V20.84C84.0738 20.84 82.3458 21.416 80.4018 21.416C77.6298 21.416 76.8378 20.264 76.8378 16.808V9.392H84.4698V7.448H76.8378V0.247999H74.7138V7.448H69.5298V9.392ZM93.1678 29.408H95.2918V21.344C95.9758 22.1 97.4518 23.36 99.8998 23.36C103.32 23.36 106.344 20.876 106.344 15.188C106.344 9.392 103.212 7.088 99.8638 7.088C96.4798 7.088 94.8598 9.428 94.8598 9.428V7.448H93.1678V29.408ZM99.4318 21.38C96.7318 21.38 95.2918 19.724 95.2918 19.724V10.724C95.2918 10.724 96.7318 9.068 99.4318 9.068C102.744 9.068 104.148 11.588 104.148 15.224C104.148 18.86 102.744 21.38 99.4318 21.38ZM118.714 23.36C122.746 23.36 124.33 21.02 124.33 21.02V21.308C124.33 22.244 124.69 23.36 126.49 23.36C127.678 23.36 129.01 22.856 129.01 22.856V21.2C129.01 21.2 127.858 21.452 127.066 21.452C126.382 21.452 126.166 21.272 126.166 20.66V13.136C126.166 9.284 124.402 7.088 120.262 7.088C117.562 7.088 113.746 8.024 113.746 12.596H115.87C115.87 10.256 117.238 8.996 120.082 8.996C123.754 8.996 124.042 11.12 124.042 13.748V15.152C124.042 15.152 121.846 14.54 119.47 14.54C116.626 14.54 113.458 15.404 113.458 19.004C113.458 22.064 115.726 23.36 118.714 23.36ZM118.858 21.416C116.59 21.416 115.546 20.588 115.546 18.968C115.546 16.988 117.166 16.376 119.758 16.376C121.954 16.376 124.042 16.808 124.042 16.808V19.76C124.042 19.76 122.098 21.416 118.858 21.416ZM136.34 29.408H138.464V21.344C139.148 22.1 140.624 23.36 143.072 23.36C146.492 23.36 149.516 20.876 149.516 15.188C149.516 9.392 146.384 7.088 143.036 7.088C139.652 7.088 138.032 9.428 138.032 9.428V7.448H136.34V29.408ZM142.604 21.38C139.904 21.38 138.464 19.724 138.464 19.724V10.724C138.464 10.724 139.904 9.068 142.604 9.068C145.916 9.068 147.32 11.588 147.32 15.224C147.32 18.86 145.916 21.38 142.604 21.38ZM164.046 23.36C166.782 23.36 170.598 22.208 171.174 17.96H169.05C168.618 20.228 166.854 21.488 164.154 21.488C160.77 21.488 159.006 19.544 158.826 15.692H171.21V15.188C171.21 8.852 167.25 7.088 164.046 7.088C160.662 7.088 156.702 9.032 156.702 15.26C156.702 21.092 160.194 23.36 164.046 23.36ZM163.902 8.96C166.854 8.96 168.618 10.58 169.014 13.928H158.862C159.186 10.58 160.95 8.96 163.902 8.96ZM178.936 23H192.112V21.056H185.2V12.272C185.2 12.272 186.532 9.248 190.312 9.248C191.788 9.248 192.904 9.716 192.904 9.716V7.556C192.904 7.556 191.716 7.088 190.204 7.088C185.956 7.088 184.768 10.796 184.768 10.796V7.448H178.936V9.392H183.076V21.056H178.936V23Z" fill="white"/>
</g>
</svg>
