<svg xmlns="http://www.w3.org/2000/svg" width="72" height="59" viewBox="0 0 72 59">
  <g fill="none" fill-rule="evenodd">
    <path fill="#000" fill-rule="nonzero" stroke="#FFF" stroke-opacity=".08" d="M47.130617,13.2687882 L50.8972241,9.14000733 C55.9183441,3.63608737 63.0243707,0.5 70.4745238,0.5 L71.5,0.5 L71.5,58.5 L70.4745238,58.5 C63.0243707,58.5 55.9183441,55.3639126 50.8972241,49.8599927 L47.130617,45.7312118 C41.5225812,39.5839417 31.9930229,39.146806 25.8457529,44.7548419 C25.505546,45.0652061 25.1797473,45.3910048 24.869383,45.7312118 L21.1027759,49.8599927 C16.0816559,55.3639126 8.97562927,58.5 1.52547621,58.5 L0.5,58.5 L0.5,0.5 L1.52547621,0.5 C8.97562927,0.5 16.0816559,3.63608737 21.1027759,9.14000733 L24.869383,13.2687882 C30.4774188,19.4160583 40.0069771,19.853194 46.1542471,14.2451581 C46.494454,13.9347939 46.8202527,13.6089952 47.130617,13.2687882 Z"/>
    <rect width="2" height="57" y="1" fill="#000" fill-rule="nonzero"/>
    <rect width="2" height="57" x="70" y="1" fill="#000" fill-rule="nonzero"/>
  </g>
</svg>
