<svg xmlns="http://www.w3.org/2000/svg" width="60" height="60" viewBox="0 0 60 60">
  <g fill="none" fill-rule="evenodd">
    <circle cx="30" cy="30" r="30" fill="#FFCA01"/>
    <path fill="#000" fill-rule="nonzero" d="M15,21.5518208 L23.3497054,21.5518208 L23.3497054,24.0028012 L15,24.0028012 L15,21.5518208 Z M15,17 L23.3497054,17 L23.3497054,19.4509804 L15,19.4509804 L15,17 Z M29.9803538,26.0686275 L15,26.0686275 L15,28.519608 L29.4190291,28.519608 C30.9977549,28.519608 34.6814484,28.554622 36.0496774,30.7605043 L36.0496774,29.3949581 C35.3831043,27.2240897 33.4184678,26.0686275 29.9803538,26.0686275 Z M30.0154366,30.6204483 L15,30.6204483 L15,33.0714287 L29.4190291,33.0714287 C32.9273086,33.0714287 35.1375248,33.2114848 36.0496774,33.7016808 L36.0496774,32.6162467 C35.3480215,30.9005604 32.4010667,30.6204483 30.0154366,30.6204483 L30.0154366,30.6204483 Z M29.9803538,42.1750703 L15,42.1750703 L15,39.7240899 L29.4190291,39.7240899 C30.9977549,39.7240899 34.6814484,39.6890759 36.0496774,37.4831935 L36.0496774,38.8487397 C35.3831043,41.0196081 33.4184678,42.1750703 29.9803538,42.1750703 Z M30.0154366,37.6232495 L15,37.6232495 L15,35.1722691 L29.4190291,35.1722691 C32.9273086,35.1722691 35.1375248,35.0322131 36.0496774,34.542017 L36.0496774,35.6274512 C35.3480215,37.3431375 32.4010667,37.6232495 30.0154366,37.6232495 L30.0154366,37.6232495 Z M39.6982882,46.411765 L50.7142861,46.411765 L50.7142861,44.9061627 L40.0140334,44.9061627 C39.0667979,44.9061627 36.821499,44.8711487 36.0145947,43.5756305 L36.0145947,44.4159667 C36.4005054,45.7114849 37.5933205,46.411765 39.6982882,46.411765 Z M39.6632054,43.6456585 L50.6792033,43.6456585 L50.6792033,42.1400563 L40.0140334,42.1400563 C37.8739828,42.1400563 36.5408366,42.0700283 36.0145947,41.7549022 L36.0145947,42.4201683 C36.4355882,43.4705885 38.2248108,43.6456585 39.6632054,43.6456585 L39.6632054,43.6456585 Z"/>
  </g>
</svg>
