<svg width="150" height="150" viewBox="0 0 150 150" xmlns="http://www.w3.org/2000/svg"><g fill-rule="nonzero" fill="none"><path d="M0 75c0-41.419 33.577-74.996 74.996-74.996 41.42 0 74.997 33.577 74.997 74.996s-33.577 74.996-74.997 74.996c-41.419 0-74.996-33.577-74.996-74.996" id="Path" fill="#000" opacity=".15"/><path d="M97.736 37.858c2.496-.717 6.419-3.227 6.419-3.227s-7.488-.357-11.055-1.434c3.209-3.224 3.209-9.318 3.209-9.318s-7.845 3.223-18.899 3.223c-7.847-.356-10.699-1.433-16.405 4.305-6.776 6.808-6.776 8.602-11.055 8.602 3.566 5.017 1.783 10.038 1.783 10.038l-.356 7.528.356 1.434s0 .357.357 1.073c0 .361 0 1.077.356 1.434l1.07 5.738s-.356.357-.713 0c-1.07-1.434-2.496-2.15-4.279-2.15-1.07 0-2.853 2.867-1.427 6.808 1.07 2.87 2.14 4.661 3.21 8.605 1.07 3.943 3.209 6.811 4.279 6.094.357-.36.713-1.434 1.07-3.228 0-.356.357 0 .713.36.357 3.584 1.07 6.808 1.783 8.603l2.14 3.584c-.713 6.094-1.427 13.622-2.853 19.356-8.613 2.332-26.025 7.151-37.996 10.093 13.721 15.12 33.528 24.616 55.554 24.616 17.152 0 32.949-5.771 45.584-15.459-10.391-6.421-25.833-17.1-31.046-17.1h-13.553c-3.208 0-9.985-2.867-10.698-5.374-.713-1.794-.713-5.021-.357-7.889 0-.356.713-.356 1.07 0 2.853 3.228 4.279 5.378 7.132 5.378h6.419c2.497 0 11.056-7.528 14.622-16.847.713-2.154 1.426-5.738 1.783-9.679 0-.36.355-.72.355-.36.357 1.794 1.07 3.944 1.427 3.944 1.07.717 2.496-2.15 4.279-6.094 1.784-3.584 1.784-5.735 2.497-8.605 1.07-3.941-.357-6.808-1.427-6.808s-1.783.356-2.496 1.073c-.357 0-.713 0-.713-.357 0-2.51.355-6.454 3.209-8.605-3.923-3.584-1.426-9.678-1.426-9.678 1.426.716 3.565.716 3.565.716l-2.853-4.661c2.14-.356 3.923-2.15 3.923-2.15s-5.703-1.431-8.557-3.582" fill="#fff"/></g></svg>
