<svg xmlns="http://www.w3.org/2000/svg" width="60" height="60" viewBox="0 0 60 60">
  <g fill="none" fill-rule="evenodd">
    <path fill="#FFFFFF" fill-rule="nonzero" d="M30,60 C13.4314575,60 0,46.5685425 0,30 C0,13.4314575 13.4314575,0 30,0 C46.5685425,0 60,13.4314575 60,30 C60,46.5685425 46.5685425,60 30,60 Z M27.5386364,14.7393684 L17.1886364,20.5330526 C15.9777273,21.2117895 15,22.904421 15,24.3174737 L15,35.6909474 C15,37.1023158 15.9801818,38.7974737 17.1886364,39.4745263 L27.5386364,45.2682105 C28.7495455,45.9469474 30.7074545,45.9452632 31.9159091,45.2682105 L42.2659091,39.4745263 C43.4768182,38.7966316 44.4545455,37.104 44.4545455,35.6909474 L44.4545455,24.3174737 C44.4545455,22.9052632 43.4743636,21.2101053 42.2659091,20.5330526 L31.9159091,14.7393684 C30.705,14.0614737 28.7470909,14.0623158 27.5386364,14.7393684 Z"/>
    <path fill="#FFFFFF" d="M33.9924545 33.7448421C33.9924545 34.4303158 34.4964545 34.9726316 35.133 34.9726316 35.7695455 34.9726316 36.2727273 34.4303158 36.2727273 33.7456842L36.2727273 26.1751579C36.2727273 25.4896842 35.7695455 24.9473684 35.133 24.9473684 34.4964545 24.9473684 33.9924545 25.4896842 33.9924545 26.1751579L33.9924545 33.7448421zM32.2129091 30.0134737L32.2129091 26.1751579C32.2129091 25.4896842 31.7089091 24.9473684 31.0723636 24.9473684 30.4358182 24.9473684 29.9326364 25.4896842 29.9326364 26.176L29.9326364 30.1086316C29.9326364 31.8787368 29.0882727 32.7882105 27.6973636 32.7882105 26.3048182 32.7882105 25.4620909 31.8475789 25.4620909 30.0294737L25.4620909 26.1751579C25.4620909 25.4896842 24.9580909 24.9473684 24.3215454 24.9473684 23.685 24.9473684 23.1818182 25.4896842 23.1818182 26.1751579L23.1818182 30.0926316C23.1818182 33.3785263 24.8836364 35.0526316 27.6679091 35.0526316 30.4505455 35.0526316 32.2129091 33.3945263 32.2129091 30.0134737z"/>
    <ellipse cx="44.044" cy="21.246" fill="#007AFF" fill-rule="nonzero" rx="6.953" ry="7.246"/>
    <path fill="#FFFFFF" fill-rule="nonzero" d="M44.0454545,24.1052632 C42.8713636,24.1052632 42,23.4501053 42,22.4513684 L42,22.4345263 C42,21.7389474 42.2953636,21.3296842 42.8558182,21.0517895 C42.4467273,20.7814737 42.1816364,20.4126316 42.1816364,19.7987368 L42.1816364,19.7818947 C42.1816364,18.9069474 42.9245455,18.2105263 44.0454545,18.2105263 C45.1663636,18.2105263 45.9092727,18.8985263 45.9092727,19.7827368 L45.9092727,19.7995789 C45.9092727,20.4126316 45.6441818,20.7814737 45.2350909,21.0517895 C45.7726364,21.3549474 46.0909091,21.7229474 46.0909091,22.4025263 L46.0909091,22.4193684 C46.0909091,23.4821053 45.2195455,24.1052632 44.0454545,24.1052632 Z M44.0454545,20.6341053 C44.5077273,20.6341053 44.8030909,20.3393684 44.8030909,19.9376842 L44.8030909,19.9208421 C44.8030909,19.5696842 44.5224545,19.2505263 44.0454545,19.2505263 C43.5684545,19.2505263 43.2878182,19.5621053 43.2878182,19.9132632 L43.2878182,19.9301053 C43.2878182,20.3309474 43.5831818,20.6341053 44.0454545,20.6341053 Z M44.0454545,23.0652632 C44.6214545,23.0652632 44.9618182,22.7536842 44.9618182,22.3528421 L44.9618182,22.3368421 C44.9618182,21.8947368 44.5756364,21.6328421 44.0454545,21.6328421 C43.5152727,21.6328421 43.1290909,21.8947368 43.1290909,22.3368421 L43.1290909,22.3536842 C43.1290909,22.7461053 43.4694545,23.0652632 44.0454545,23.0652632 Z"/>
  </g>
</svg>
