<svg width="228" height="34" viewBox="0 0 228 34" fill="none" xmlns="http://www.w3.org/2000/svg">
<mask id="mask0" mask-type="alpha" maskUnits="userSpaceOnUse" x="0" y="0" width="228" height="34">
<rect width="228" height="34" fill="#C4C4C4"/>
</mask>
<g mask="url(#mask0)">
<path d="M75.0444 0H17.0281C10.8425 0 5.14505 3.3598 2.1515 8.77276C-0.679734 13.8922 -0.679734 20.1078 2.1515 25.2272C5.14505 30.6402 10.8425 34 17.0281 34H75.0444C78.5705 34 81.8824 32.3076 83.9483 29.45L85.2923 27.5909C88.5502 23.0846 95.0671 22.564 98.9991 26.4959C102.572 30.0687 108.381 30.0159 111.888 26.3788L116.726 21.3612C118.181 19.8524 120.187 19 122.283 19H122.503C126.645 19 130.003 22.3579 130.003 26.5C130.003 30.6421 133.361 34 137.503 34H169.003C178.392 34 186.003 26.3888 186.003 17C186.003 7.61116 178.392 0 169.003 0H137.503C133.361 0 130.003 3.35786 130.003 7.5C130.003 11.6421 126.645 15 122.503 15H122.283C120.187 15 118.181 14.1477 116.726 12.6388L111.888 7.62123C108.381 3.98406 102.572 3.93126 98.9991 7.50407C95.0671 11.436 88.5501 10.9154 85.2923 6.40908L83.9483 4.54998C81.8824 1.6924 78.5705 0 75.0444 0Z" fill="#E5E5E5"/>
<circle cx="211" cy="17" r="17" fill="#959595"/>
</g>
</svg>
