<svg xmlns="http://www.w3.org/2000/svg" width="60" height="60" viewBox="0 0 60 60">
  <g fill="none" fill-rule="evenodd">
    <circle cx="30" cy="30" r="30" fill="#46A7DE"/>
    <g fill="#FFF" transform="translate(8 10)">
      <path d="M31.213524,19.0206516 C33.8559787,20.8369518 35.9497569,23.3938126 37.195418,26.3917937 C33.5126859,21.9708562 27.9661644,19.1570881 21.7624521,19.1570881 C15.5587398,19.1570881 10.0122183,21.9708562 6.32948625,26.3917937 C7.64161324,23.2338465 9.89477941,20.5653501 12.7390088,18.7362804 C11.1755678,17.4860273 9.19902373,16.7395103 7.04980843,16.7395103 C4.21594076,16.7395103 1.68227908,18.0374036 -9.19516685e-11,20.0766284 C0.995246969,17.6579248 3.17568882,15.8616847 5.80943291,15.4269517 C4.30214736,14.9114999 3.2183908,13.4826955 3.2183908,11.8007663 C3.2183908,9.68473276 4.9337749,7.96934866 7.04980843,7.96934866 C9.16584195,7.96934866 10.8812261,9.68473276 10.8812261,11.8007663 C10.8812261,13.4826955 9.7974695,14.9114999 8.29018395,15.4269517 C10.2930994,15.7575584 12.0338552,16.8755698 13.190556,18.4559456 C14.9038694,17.4296587 16.8163832,16.7016996 18.8563119,16.3438541 C15.632935,15.1599273 13.3333333,12.0630734 13.3333333,8.42911877 C13.3333333,3.77384502 17.1071784,0 21.7624521,0 C26.4177259,0 30.1915709,3.77384502 30.1915709,8.42911877 C30.1915709,12.0630734 27.8919692,15.1599273 24.6685923,16.3438541 C26.9234685,16.7394058 29.0226638,17.5871783 30.8692252,18.7902185 C32.0179105,17.0339077 33.8596279,15.780413 36.0010038,15.4269517 C34.4937182,14.9114999 33.4099617,13.4826955 33.4099617,11.8007663 C33.4099617,9.68473276 35.1253458,7.96934866 37.2413793,7.96934866 C39.3574128,7.96934866 41.0727969,9.68473276 41.0727969,11.8007663 C41.0727969,13.4826955 39.9890404,14.9114999 38.4817548,15.4269517 C41.1154989,15.8616847 43.2959408,17.6579248 44.2911877,20.0766284 C42.6089087,18.0374036 40.075247,16.7395103 37.2413793,16.7395103 C34.9338594,16.7395103 32.8253845,17.6000497 31.213524,19.0206516 Z"/>
      <path fill-rule="nonzero" d="M3.41690613,37 L3.41690613,28.223659 L6.2605364,28.223659 C7.33812799,28.223659 8.04054753,28.2675602 8.36781609,28.355364 C8.87069217,28.4870696 9.29174479,28.7734253 9.63098659,29.2144397 C9.97022839,29.655454 10.1398467,30.2251721 10.1398467,30.9236111 C10.1398467,31.4624069 10.0420668,31.9153877 9.84650383,32.282567 C9.65094091,32.6497464 9.40249991,32.9380976 9.10117337,33.1476293 C8.79984683,33.357161 8.49353604,33.495849 8.1822318,33.5636973 C7.75917732,33.64751 7.14655574,33.6894157 6.34434866,33.6894157 L5.18893678,33.6894157 L5.18893678,37 L3.41690613,37 Z M5.18893678,29.7083333 L5.18893678,32.1987548 L6.15876437,32.1987548 C6.85720336,32.1987548 7.32415272,32.1528581 7.55962644,32.0610632 C7.79510016,31.9692684 7.97968484,31.8255917 8.11338602,31.6300287 C8.24708719,31.4344658 8.31393678,31.2069777 8.31393678,30.9475575 C8.31393678,30.6282711 8.22014781,30.3648637 8.03256705,30.1573276 C7.84498629,29.9497914 7.60752059,29.8200833 7.32016284,29.7681992 C7.1086356,29.7282884 6.68359195,29.7083333 6.04501916,29.7083333 L5.18893678,29.7083333 Z M11.7717912,28.223659 L13.4300766,28.223659 L13.4300766,34.0665709 L16.9861111,28.223659 L18.7521552,28.223659 L18.7521552,37 L17.0938697,37 L17.0938697,31.2708333 L13.5438218,37 L11.7717912,37 L11.7717912,28.223659 Z M22.6889368,37 L22.6889368,29.7083333 L20.0847701,29.7083333 L20.0847701,28.223659 L27.0591475,28.223659 L27.0591475,29.7083333 L24.4609674,29.7083333 L24.4609674,37 L22.6889368,37 Z M30.2715517,35.7368295 L30.2715517,33.4559387 L27.9727011,33.4559387 L27.9727011,31.8814655 L30.2715517,31.8814655 L30.2715517,29.6005747 L31.8041188,29.6005747 L31.8041188,31.8814655 L34.1089559,31.8814655 L34.1089559,33.4559387 L31.8041188,33.4559387 L31.8041188,35.7368295 L30.2715517,35.7368295 Z M37.5847701,35.7368295 L37.5847701,33.4559387 L35.2859195,33.4559387 L35.2859195,31.8814655 L37.5847701,31.8814655 L37.5847701,29.6005747 L39.1173372,29.6005747 L39.1173372,31.8814655 L41.4221743,31.8814655 L41.4221743,33.4559387 L39.1173372,33.4559387 L39.1173372,35.7368295 L37.5847701,35.7368295 Z"/>
    </g>
  </g>
</svg>
