<svg xmlns="http://www.w3.org/2000/svg" width="1353" height="363" viewBox="0 0 1353 363">
  <g fill="none" fill-rule="evenodd" transform="translate(0 -1)">
    <path fill="#0067FF" d="M142.598 265.317C135.551 272.346 135.551 283.743 142.598 290.773 149.645 297.802 161.07 297.802 168.117 290.773 175.164 283.743 175.164 272.346 168.117 265.317 161.07 258.288 149.645 258.288 142.598 265.317zM108.572 231.376C101.525 238.405 101.525 249.802 108.572 256.831 115.619 263.861 127.045 263.861 134.092 256.831 141.139 249.802 141.139 238.405 134.092 231.376 127.045 224.346 115.619 224.346 108.572 231.376zM73.836 196.727C66.789 203.757 66.789 215.154 73.836 222.183 80.883 229.212 92.308 229.212 99.355 222.183 106.403 215.154 106.403 203.757 99.355 196.727 92.308 189.698 80.883 189.698 73.836 196.727zM39.811 230.669C32.764 237.698 32.764 249.095 39.811 256.124 46.858 263.154 58.283 263.154 65.33 256.124 72.377 249.095 72.377 237.698 65.33 230.669 58.283 223.639 46.858 223.639 39.811 230.669zM5.7872 264.61C-1.2598 271.639-1.2598 283.036 5.7872 290.066 12.834 297.095 24.26 297.095 31.307 290.066 38.354 283.036 38.354 271.639 31.307 264.61 24.26 257.581 12.834 257.581 5.7872 264.61zM39.811 298.551C32.764 305.581 32.764 316.978 39.811 324.007 46.858 331.037 58.283 331.037 65.33 324.007 72.377 316.978 72.377 305.581 65.33 298.551 58.283 291.522 46.858 291.522 39.811 298.551zM73.836 264.61C66.789 271.639 66.789 283.036 73.836 290.066 80.883 297.095 92.308 297.095 99.355 290.066 106.403 283.036 106.403 271.639 99.355 264.61 92.308 257.581 80.883 257.581 73.836 264.61zM108.572 299.258C101.525 306.288 101.525 317.685 108.572 324.714 115.619 331.744 127.045 331.744 134.092 324.714 141.139 317.685 141.139 306.288 134.092 299.258 127.045 292.229 115.619 292.229 108.572 299.258zM74.545 333.2C67.498 340.229 67.498 351.626 74.545 358.656 81.592 365.685 93.017 365.685 100.064 358.656 107.111 351.626 107.111 340.229 100.064 333.2 93.017 326.17 81.592 326.17 74.545 333.2zM163.45 86C163.45 127.974 129.339 162 87.26 162 45.182 162 11.07 127.974 11.07 86 11.07 44.026 45.182 10 87.26 10 129.339 10 163.45 44.026 163.45 86z"/>
    <path fill="#00C2FF" d="M353.754,114.503 C369.394,98.902 369.394,73.607 353.754,58.005 L308.315,12.68 C292.675,-2.922 267.317,-2.922 251.676,12.68 L206.237,58.005 C190.597,73.607 190.597,98.902 206.237,114.503 L251.676,159.828 C267.317,175.43 292.675,175.43 308.315,159.828 L353.754,114.503 Z M219.847,86.253 C219.847,119.39 246.777,146.253 279.997,146.253 C313.217,146.253 340.147,119.39 340.147,86.253 C340.147,53.116 313.217,26.253 279.997,26.253 C246.777,26.253 219.847,53.116 219.847,86.253 Z"/>
    <rect width="144.18" height="144.18" x="207.472" y="205.735" fill="#00C2FF" rx="40" transform="rotate(90 279.562 277.825)"/>
    <path fill="#FFF" fill-rule="nonzero" d="M466.13,156 L451.69,73.16 L466.13,73.16 L476.39,143.27 L491.02,90.45 L507.17,90.45 L521.99,143.27 L532.25,73.16 L546.31,73.16 L531.87,156 L513.44,156 L499,105.27 L484.56,156 L466.13,156 Z M563.906,156 L563.906,34.78 L578.916,34.78 L578.916,82.09 C584.489,74.87 592.596,71.26 603.236,71.26 C622.109,71.26 631.546,82.533 631.546,105.08 L631.546,156 L616.536,156 L616.536,108.31 C616.536,99.823 615.332,93.617 612.926,89.69 C610.646,85.763 606.086,83.8 599.246,83.8 C590.506,83.8 583.729,86.713 578.916,92.54 L578.916,156 L563.906,156 Z M652.752,156 L652.752,143.27 L682.772,143.27 L682.772,85.89 L652.752,85.89 L652.752,73.16 L697.782,73.16 L697.782,143.27 L725.142,143.27 L725.142,156 L652.752,156 Z M680.682,53.97 L680.682,34.78 L699.872,34.78 L699.872,53.97 L680.682,53.97 Z M782.447,157.9 C771.807,157.9 763.954,155.367 758.887,150.3 C753.947,145.107 751.477,135.797 751.477,122.37 L751.477,85.89 L724.307,85.89 L724.307,73.16 L751.477,73.16 L751.477,34.78 L766.487,34.78 L766.487,73.16 L807.147,73.16 L807.147,85.89 L766.487,85.89 L766.487,121.8 C766.487,130.54 767.691,136.62 770.097,140.04 C772.631,143.333 777.444,144.98 784.537,144.98 C791.504,144.98 798.217,143.777 804.677,141.37 L804.677,154.1 C799.611,156.633 792.201,157.9 782.447,157.9 Z M860.653,157.9 C848.62,157.9 838.74,154.417 831.013,147.45 C823.286,140.357 819.423,129.463 819.423,114.77 C819.423,106.917 820.563,100.077 822.843,94.25 C825.25,88.297 828.416,83.737 832.343,80.57 C836.396,77.403 840.703,75.06 845.263,73.54 C849.823,72.02 854.636,71.26 859.703,71.26 C864.77,71.26 869.52,72.02 873.953,73.54 C878.513,74.933 882.82,77.213 886.873,80.38 C890.926,83.547 894.156,88.043 896.563,93.87 C898.97,99.697 900.173,106.6 900.173,114.58 L900.173,117.62 L834.433,117.62 C835.193,136.24 844.06,145.55 861.033,145.55 C867.62,145.55 873.003,144.157 877.183,141.37 C881.363,138.583 883.896,134.593 884.783,129.4 L899.983,129.4 C899.223,134.593 897.45,139.153 894.663,143.08 C892.003,147.007 888.71,149.983 884.783,152.01 C880.983,154.037 877.056,155.493 873.003,156.38 C869.076,157.393 864.96,157.9 860.653,157.9 Z M834.623,106.22 L884.783,106.22 C883.896,98.873 881.236,93.237 876.803,89.31 C872.37,85.383 866.67,83.42 859.703,83.42 C852.736,83.42 847.036,85.383 842.603,89.31 C838.17,93.237 835.51,98.873 834.623,106.22 Z M917.01,190.2 L917.01,73.16 L929.55,73.16 L929.55,83.8 C936.01,75.44 945,71.26 956.53,71.26 C966.28,71.26 974.45,74.807 981.04,81.9 C987.75,88.993 991.11,99.887 991.11,114.58 C991.11,128.893 987.82,139.723 981.23,147.07 C974.64,154.29 966.41,157.9 956.53,157.9 C950.96,157.9 946.02,156.823 941.71,154.67 C937.4,152.517 934.17,150.173 932.02,147.64 L932.02,190.2 L917.01,190.2 Z M952.54,145.36 C960.39,145.36 966.22,142.637 970.02,137.19 C973.95,131.617 975.91,124.08 975.91,114.58 C975.91,105.08 973.95,97.607 970.02,92.16 C966.22,86.587 960.39,83.8 952.54,83.8 C944.43,83.8 937.59,86.587 932.02,92.16 L932.02,137 C937.59,142.573 944.43,145.36 952.54,145.36 Z M1030.17,157.9 C1021.69,157.9 1014.78,156 1009.46,152.2 C1004.27,148.273 1001.67,142.383 1001.67,134.53 C1001.67,118.57 1012.63,110.59 1034.54,110.59 C1043.66,110.59 1051.58,111.667 1058.29,113.82 L1058.29,106.6 C1058.29,99 1057.03,93.3 1054.49,89.5 C1052.09,85.7 1046.83,83.8 1038.72,83.8 C1024.92,83.8 1018.01,89.563 1018.01,101.09 L1003.57,101.09 C1003.57,95.39 1004.65,90.513 1006.8,86.46 C1008.96,82.407 1011.87,79.367 1015.54,77.34 C1019.22,75.187 1023.02,73.667 1026.94,72.78 C1031,71.767 1035.3,71.26 1039.86,71.26 C1062.16,71.26 1073.3,82.027 1073.3,103.56 L1073.3,141.18 C1073.3,142.827 1073.62,143.967 1074.25,144.6 C1075.01,145.233 1076.22,145.55 1077.86,145.55 C1080.52,145.55 1083.63,145.107 1087.17,144.22 L1087.17,154.86 C1082.49,156.887 1077.67,157.9 1072.73,157.9 C1064.5,157.9 1060.38,154.163 1060.38,146.69 L1060.38,145.17 C1053.92,153.657 1043.85,157.9 1030.17,157.9 Z M1032.64,145.17 C1042.52,145.17 1051.07,142.573 1058.29,137.38 L1058.29,124.46 C1052.72,123.067 1045.75,122.37 1037.39,122.37 C1030.55,122.37 1025.36,123.257 1021.81,125.03 C1018.39,126.803 1016.68,129.843 1016.68,134.15 C1016.68,141.497 1022,145.17 1032.64,145.17 Z M1099.26,190.2 L1099.26,73.16 L1111.8,73.16 L1111.8,83.8 C1118.26,75.44 1127.25,71.26 1138.78,71.26 C1148.53,71.26 1156.7,74.807 1163.29,81.9 C1170,88.993 1173.36,99.887 1173.36,114.58 C1173.36,128.893 1170.07,139.723 1163.48,147.07 C1156.89,154.29 1148.66,157.9 1138.78,157.9 C1133.21,157.9 1128.27,156.823 1123.96,154.67 C1119.65,152.517 1116.42,150.173 1114.27,147.64 L1114.27,190.2 L1099.26,190.2 Z M1134.79,145.36 C1142.64,145.36 1148.47,142.637 1152.27,137.19 C1156.2,131.617 1158.16,124.08 1158.16,114.58 C1158.16,105.08 1156.2,97.607 1152.27,92.16 C1148.47,86.587 1142.64,83.8 1134.79,83.8 C1126.68,83.8 1119.84,86.587 1114.27,92.16 L1114.27,137 C1119.84,142.573 1126.68,145.36 1134.79,145.36 Z M1225.16,157.9 C1213.12,157.9 1203.24,154.417 1195.52,147.45 C1187.79,140.357 1183.93,129.463 1183.93,114.77 C1183.93,106.917 1185.07,100.077 1187.35,94.25 C1189.75,88.297 1192.92,83.737 1196.85,80.57 C1200.9,77.403 1205.21,75.06 1209.77,73.54 C1214.33,72.02 1219.14,71.26 1224.21,71.26 C1229.27,71.26 1234.02,72.02 1238.46,73.54 C1243.02,74.933 1247.32,77.213 1251.38,80.38 C1255.43,83.547 1258.66,88.043 1261.07,93.87 C1263.47,99.697 1264.68,106.6 1264.68,114.58 L1264.68,117.62 L1198.94,117.62 C1199.7,136.24 1208.56,145.55 1225.54,145.55 C1232.12,145.55 1237.51,144.157 1241.69,141.37 C1245.87,138.583 1248.4,134.593 1249.29,129.4 L1264.49,129.4 C1263.73,134.593 1261.95,139.153 1259.17,143.08 C1256.51,147.007 1253.21,149.983 1249.29,152.01 C1245.49,154.037 1241.56,155.493 1237.51,156.38 C1233.58,157.393 1229.46,157.9 1225.16,157.9 Z M1199.13,106.22 L1249.29,106.22 C1248.4,98.873 1245.74,93.237 1241.31,89.31 C1236.87,85.383 1231.17,83.42 1224.21,83.42 C1217.24,83.42 1211.54,85.383 1207.11,89.31 C1202.67,93.237 1200.01,98.873 1199.13,106.22 Z M1275.43,156 L1275.43,143.27 L1296.9,143.27 L1296.9,85.89 L1275.43,85.89 L1275.43,73.16 L1309.44,73.16 L1309.44,91.97 C1315.14,78.163 1324.77,71.26 1338.32,71.26 C1344.02,71.26 1348.84,72.147 1352.76,73.92 L1352.76,89.31 C1349.22,87.663 1344.53,86.84 1338.7,86.84 C1327.18,86.84 1318.25,91.4 1311.91,100.52 L1311.91,143.27 L1347.82,143.27 L1347.82,156 L1275.43,156 Z M512.87,317.9 C502.23,317.9 494.377,315.367 489.31,310.3 C484.37,305.107 481.9,295.797 481.9,282.37 L481.9,245.89 L454.73,245.89 L454.73,233.16 L481.9,233.16 L481.9,194.78 L496.91,194.78 L496.91,233.16 L537.57,233.16 L537.57,245.89 L496.91,245.89 L496.91,281.8 C496.91,290.54 498.113,296.62 500.52,300.04 C503.053,303.333 507.867,304.98 514.96,304.98 C521.927,304.98 528.64,303.777 535.1,301.37 L535.1,314.1 C530.033,316.633 522.623,317.9 512.87,317.9 Z M603.996,315.81 C599.562,317.203 594.812,317.9 589.746,317.9 C584.679,317.9 579.866,317.203 575.306,315.81 C570.872,314.29 566.629,311.947 562.576,308.78 C558.649,305.613 555.546,301.117 553.266,295.29 C550.986,289.463 549.846,282.623 549.846,274.77 C549.846,266.663 551.049,259.697 553.456,253.87 C555.862,247.917 559.092,243.42 563.146,240.38 C567.199,237.213 571.506,234.933 576.066,233.54 C580.626,232.02 585.439,231.26 590.506,231.26 C595.572,231.26 600.322,231.957 604.756,233.35 C609.316,234.743 613.559,237.023 617.486,240.19 C621.412,243.23 624.516,247.663 626.796,253.49 C629.202,259.317 630.406,266.22 630.406,274.2 C630.406,282.307 629.202,289.337 626.796,295.29 C624.389,301.243 621.096,305.803 616.916,308.97 C612.862,312.01 608.556,314.29 603.996,315.81 Z M564.856,274.58 C564.856,295.1 573.279,305.36 590.126,305.36 C606.972,305.36 615.396,295.1 615.396,274.58 C615.396,254.06 606.972,243.8 590.126,243.8 C573.279,243.8 564.856,254.06 564.856,274.58 Z M695.122,315.81 C690.688,317.203 685.938,317.9 680.872,317.9 C675.805,317.9 670.992,317.203 666.432,315.81 C661.998,314.29 657.755,311.947 653.702,308.78 C649.775,305.613 646.672,301.117 644.392,295.29 C642.112,289.463 640.972,282.623 640.972,274.77 C640.972,266.663 642.175,259.697 644.582,253.87 C646.988,247.917 650.218,243.42 654.272,240.38 C658.325,237.213 662.632,234.933 667.192,233.54 C671.752,232.02 676.565,231.26 681.632,231.26 C686.698,231.26 691.448,231.957 695.882,233.35 C700.442,234.743 704.685,237.023 708.612,240.19 C712.538,243.23 715.642,247.663 717.922,253.49 C720.328,259.317 721.532,266.22 721.532,274.2 C721.532,282.307 720.328,289.337 717.922,295.29 C715.515,301.243 712.222,305.803 708.042,308.97 C703.988,312.01 699.682,314.29 695.122,315.81 Z M655.982,274.58 C655.982,295.1 664.405,305.36 681.252,305.36 C698.098,305.36 706.522,295.1 706.522,274.58 C706.522,254.06 698.098,243.8 681.252,243.8 C664.405,243.8 655.982,254.06 655.982,274.58 Z M732.477,316 L732.477,303.27 L761.167,303.27 L761.167,207.32 L732.477,207.32 L732.477,194.78 L776.177,194.78 L776.177,303.27 L804.867,303.27 L804.867,316 L732.477,316 Z M860.653,317.9 C835.193,317.9 822.083,308.527 821.323,289.78 L835.383,289.78 C836.016,300.04 844.883,305.17 861.983,305.17 C876.043,305.17 883.073,301.37 883.073,293.77 C883.073,290.857 881.87,288.513 879.463,286.74 C877.183,284.84 874.46,283.447 871.293,282.56 C868.253,281.673 863.693,280.597 857.613,279.33 C855.586,278.95 854.003,278.633 852.863,278.38 C843.49,276.353 836.206,273.693 831.013,270.4 C825.82,266.98 823.223,261.723 823.223,254.63 C823.223,246.777 826.516,240.95 833.103,237.15 C839.69,233.223 848.24,231.26 858.753,231.26 C881.68,231.26 893.84,240 895.233,257.48 L881.173,257.48 C879.526,248.487 871.863,243.99 858.183,243.99 C844.883,243.99 838.233,247.22 838.233,253.68 C838.233,255.073 838.486,256.34 838.993,257.48 C839.5,258.493 840.386,259.443 841.653,260.33 C842.92,261.217 844.06,261.977 845.073,262.61 C846.213,263.117 847.923,263.687 850.203,264.32 C852.483,264.827 854.256,265.27 855.523,265.65 C856.916,265.903 859.133,266.347 862.173,266.98 C865.213,267.487 867.366,267.867 868.633,268.12 C878.26,270.147 885.543,272.87 890.483,276.29 C895.55,279.71 898.083,285.093 898.083,292.44 C898.083,301.053 894.6,307.45 887.633,311.63 C880.793,315.81 871.8,317.9 860.653,317.9 Z"/>
  </g>
</svg>
