<svg width="60" height="60" fill="none" xmlns="http://www.w3.org/2000/svg"><path d="M53.5714 0H6.42857C2.8125 0 0 2.94643 0 6.42857V53.5714C0 57.1875 2.8125 60 6.42857 60H53.5714C57.0536 60 60 57.1875 60 53.5714V6.42857C60 2.94643 57.0536 0 53.5714 0zm-6.5625 21.2946V22.5c0 11.5179-8.8393 24.9107-25.0446 24.9107-4.9554 0-9.5089-1.3393-13.39287-3.8839.66964.1339 1.33928.1339 2.00897.1339 4.1517 0 7.9017-1.4732 10.9821-3.75-3.8839-.1339-7.0982-2.6786-8.3036-6.1607 1.4732.2679 2.6786.2679 4.0179-.1339-4.0179-.8036-6.9643-4.2857-6.9643-8.5715v-.1339c1.0714.6697 2.4107 1.0714 3.8839 1.0714-2.1428-1.4732-3.8839-4.6875-3.8839-7.2321 0-1.7411.4018-3.2143 1.2054-4.5536 4.2857 5.3572 10.8482 8.8393 18.0803 9.2411-1.2053-5.8929 3.2143-10.8482 8.5714-10.8482 2.5447 0 4.8215 1.0714 6.4286 2.8125 2.0089-.4018 3.8839-1.0714 5.625-2.1429-.6696 2.1429-2.1428 3.75-3.8839 4.8215 1.7411-.134 3.4821-.6697 5.0893-1.3393-1.2054 1.741-2.8125 3.3482-4.4197 4.5535z" fill="#00B2FF"/></svg>