<svg width="60" height="60" fill="none" xmlns="http://www.w3.org/2000/svg"><path d="M30 .25c-16.5726 0-30 13.4274-30 30s13.4274 30 30 30 30-13.4274 30-30-13.4274-30-30-30zm14.6371 20.5645l-4.8387 23.2258c-.3629 1.6936-1.3307 2.0565-2.7823 1.3307l-7.5-5.5645-3.629 3.508c-.3629.3629-.7258.7258-1.4516.7258l.4839-7.6209 13.9112-12.5807c.6049-.4839-.1209-.8468-.9677-.3629L20.6855 34.3629l-7.379-2.2984c-1.5726-.4839-1.5726-1.6935.3629-2.4193l28.9112-11.1291c1.3307-.4838 2.5404.3629 2.0565 2.2984z" fill="#2c99d4"/></svg>
