<svg width="60" height="60" fill="none" xmlns="http://www.w3.org/2000/svg"><path d="M12.0536 26.3839c.8035 0 8.3035 0 16.875-2.2768-3.0804-5.3571-6.2947-9.9107-6.8304-10.5803-5.0893 2.4107-8.8393 7.0982-10.0446 12.8571zm30-10.0446c-4.4197-3.8839-10.5804-5.4911-16.3393-4.0179.4018.6697 3.75 5.2232 6.8303 10.7143 6.4286-2.4107 9.2411-6.1607 9.509-6.6964zM18.75 44.4643c5.3571 4.2857 12.4554 4.9553 18.3482 2.4107-.2678-1.6071-1.3393-7.0982-3.8839-13.7946-7.3661 2.5446-12.5893 7.5-14.4643 11.3839zM31.875 30c-.4018-1.0714-.9375-2.0089-1.4732-3.0804-9.1072 2.6786-17.9464 2.6786-18.75 2.5447v.6696c0 4.6875 1.7411 8.9732 4.6875 12.1875C19.2857 37.2321 25.3125 31.875 31.875 30zm4.6875 2.2768c2.4107 6.5625 3.3482 11.9196 3.6161 12.9911 4.1518-2.8125 6.9643-7.2322 7.7678-12.3215-.5357-.1339-5.625-1.6071-11.3839-.6696zm-2.6786-6.5625c.6697 1.3393 1.0715 2.4107 1.6072 3.6161 6.1607-.8036 12.1875.4017 12.7232.5357 0-4.2857-1.6072-8.3036-4.1518-11.384-.4018.5358-3.3482 4.4197-10.1786 7.2322zM60 6.42857C60 2.94643 57.0536 0 53.5714 0H6.42857C2.8125 0 0 2.94643 0 6.42857V53.5714C0 57.1875 2.8125 60 6.42857 60H53.5714C57.0536 60 60 57.1875 60 53.5714V6.42857zM51.4286 30c0 11.9196-9.6429 21.4286-21.4286 21.4286-11.9196 0-21.42857-9.509-21.42857-21.4286C8.57143 18.2143 18.0804 8.57143 30 8.57143c11.7857 0 21.4286 9.64287 21.4286 21.42857z" fill="#FF005C"/></svg>