<svg width="60" height="60" fill="none" xmlns="http://www.w3.org/2000/svg"><path d="M19.9597 48.3158c0-.2477-.242-.4955-.6049-.4955s-.6048.2478-.6048.4955c0 .2478.2419.4956.6048.3717.3629 0 .6049-.1239.6049-.3717zm-3.75-.6194c0 .2478.2419.6194.6048.6194.242.1239.6049 0 .7258-.2477 0-.2478-.1209-.4956-.4838-.6195-.363-.1239-.7259 0-.8468.2478zm5.4435-.1239c-.3629 0-.6048.2478-.6048.6195 0 .2477.3629.3716.7258.2477.3629-.1239.6048-.2477.4839-.4955 0-.2478-.3629-.4956-.6049-.3717zM29.5161 0C12.8226 0 0 13.132 0 30.2284 0 43.9798 8.34677 55.749 20.4435 59.9612c1.5726.2478 2.0565-.7433 2.0565-1.4866v-7.681s-8.4677 1.8583-10.2823-3.7166c0 0-1.3306-3.5927-3.26609-4.46 0 0-2.78226-1.9821.12097-1.9821 0 0 3.02422.2477 4.71772 3.221 2.6613 4.8316 7.0162 3.4688 8.8307 2.6016.2419-1.9822.9677-3.3449 1.9355-4.2121-6.7742-.7433-13.6694-1.7344-13.6694-13.6276 0-3.4688.9677-5.0793 2.9032-7.3093-.3629-.8672-1.3306-4.0882.3629-8.4243 2.4194-.7433 8.3468 3.345 8.3468 3.345 2.4194-.7434 4.9597-.9911 7.5-.9911 2.6613 0 5.2016.2477 7.621.9911 0 0 5.8064-4.2122 8.3467-3.345 1.6936 4.3361.6049 7.5571.3629 8.4243 1.9355 2.23 3.1452 3.8405 3.1452 7.3093 0 11.8932-7.1371 12.8843-13.9113 13.6276 1.0887.9911 2.0565 2.8494 2.0565 5.8227 0 4.0882-.121 9.2915-.121 10.2826 0 .8672.6048 1.8583 2.1774 1.4866C51.7742 55.749 60 43.9798 60 30.2284 60 13.132 46.3306 0 29.5161 0zM11.7339 42.7409c-.242.1239-.121.4956 0 .7434.2419.1238.4838.2477.7258.1238.1209-.1238.1209-.4955-.121-.7433-.2419-.1239-.4839-.2478-.6048-.1239zm-1.3307-.9911c-.1209.2478 0 .3717.242.4956.2419.1239.4838.1239.6048-.1239 0-.1239-.121-.2478-.3629-.3717-.2419-.1238-.3629-.1238-.4839 0zm3.871 4.46c-.121.1238-.121.4955.2419.7433.242.2478.6049.3716.7258.1239.121-.1239.121-.4956-.1209-.7434-.242-.2477-.6049-.3716-.8468-.1238zm-1.3307-1.8583c-.2419.1238-.2419.4955 0 .7433.242.2478.4839.3716.7259.2478.1209-.1239.1209-.4956 0-.7434-.242-.2477-.4839-.3716-.7259-.2477z" fill="#fff"/></svg>