<svg width="60" height="60" viewBox="0 0 60 60" fill="none" xmlns="http://www.w3.org/2000/svg"><path d="M58.8281 18.7024L31.4062 0.439024C30.4688 -0.146341 29.4141 -0.146341 28.4766 0.439024L1.05469 18.7024C0.351562 19.1707 0 19.9902 0 20.8098V39.0732C0 40.0098 0.351562 40.8293 1.05469 41.2976L28.4766 59.561C29.4141 60.1463 30.4688 60.1463 31.4062 59.561L58.8281 41.2976C59.5312 40.8293 60 40.0098 60 39.0732V20.8098C60 19.9902 59.5312 19.1707 58.8281 18.7024ZM32.5781 7.46341L52.7344 20.8098L43.7109 26.8976L32.5781 19.4049V7.46341ZM27.4219 7.46341V19.4049L16.1719 26.8976L7.14844 20.8098L27.4219 7.46341ZM5.15625 25.7268L11.6016 29.9415L5.15625 34.2732V25.7268ZM27.4219 52.5366L7.14844 39.0732L16.1719 33.1024L27.4219 40.5951V52.5366ZM30 36.0293L20.8594 29.9415L30 23.8537L39.0234 29.9415L30 36.0293ZM32.5781 52.5366V40.5951L43.7109 33.1024L52.7344 39.0732L32.5781 52.5366ZM54.8438 34.2732L48.2812 29.9415L54.8438 25.7268V34.2732Z" fill="#FAFF00"/></svg>
