<svg xmlns="http://www.w3.org/2000/svg" width="60" height="60" viewBox="0 0 60 60">
  <g fill="none" fill-rule="evenodd">
    <circle cx="30" cy="30" r="30" fill="#46A7DE"/>
    <g fill="#FFF" transform="translate(8 11)">
      <path d="M31.213524,19.0206516 C33.8559787,20.8369518 35.9497569,23.3938126 37.195418,26.3917937 C33.5126859,21.9708562 27.9661644,19.1570881 21.7624521,19.1570881 C15.5587398,19.1570881 10.0122183,21.9708562 6.32948625,26.3917937 C7.64161324,23.2338465 9.89477941,20.5653501 12.7390088,18.7362804 C11.1755678,17.4860273 9.19902373,16.7395103 7.04980843,16.7395103 C4.21594076,16.7395103 1.68227908,18.0374036 -5.99637007e-11,20.0766284 C0.995246969,17.6579248 3.17568882,15.8616847 5.80943291,15.4269517 C4.30214736,14.9114999 3.2183908,13.4826955 3.2183908,11.8007663 C3.2183908,9.68473276 4.9337749,7.96934866 7.04980843,7.96934866 C9.16584195,7.96934866 10.8812261,9.68473276 10.8812261,11.8007663 C10.8812261,13.4826955 9.7974695,14.9114999 8.29018395,15.4269517 C10.2930994,15.7575584 12.0338552,16.8755698 13.190556,18.4559456 C14.9038694,17.4296587 16.8163832,16.7016996 18.8563119,16.3438541 C15.632935,15.1599273 13.3333333,12.0630734 13.3333333,8.42911877 C13.3333333,3.77384502 17.1071784,0 21.7624521,0 C26.4177259,0 30.1915709,3.77384502 30.1915709,8.42911877 C30.1915709,12.0630734 27.8919692,15.1599273 24.6685923,16.3438541 C26.9234685,16.7394058 29.0226638,17.5871783 30.8692252,18.7902185 C32.0179105,17.0339077 33.8596279,15.780413 36.0010038,15.4269517 C34.4937182,14.9114999 33.4099617,13.4826955 33.4099617,11.8007663 C33.4099617,9.68473276 35.1253458,7.96934866 37.2413793,7.96934866 C39.3574128,7.96934866 41.0727969,9.68473276 41.0727969,11.8007663 C41.0727969,13.4826955 39.9890404,14.9114999 38.4817548,15.4269517 C41.1154989,15.8616847 43.2959408,17.6579248 44.2911877,20.0766284 C42.6089087,18.0374036 40.075247,16.7395103 37.2413793,16.7395103 C34.9338594,16.7395103 32.8253845,17.6000497 31.213524,19.0206516 Z"/>
      <path fill-rule="nonzero" d="M9,37.776341 L9,32 L10.8715975,32 C11.580838,32 12.0431508,32.0288946 12.2585498,32.0866845 C12.5895287,32.1733695 12.8666537,32.3618407 13.0899331,32.652104 C13.3132125,32.9423672 13.4248506,33.3173397 13.4248506,33.7770326 C13.4248506,34.1316529 13.3604945,34.4297921 13.2317805,34.6714592 C13.1030665,34.9131263 12.9395496,35.102911 12.741225,35.2408189 C12.5429003,35.3787268 12.3412951,35.4700073 12.1364034,35.5146631 C11.8579609,35.5698263 11.4547506,35.5974075 10.9267604,35.5974075 L10.1663008,35.5974075 L10.1663008,37.776341 L9,37.776341 Z M10.1663008,32.9771709 L10.1663008,34.6162963 L10.804614,34.6162963 C11.264307,34.6162963 11.5716399,34.5860884 11.7266221,34.5256716 C11.8816043,34.4652548 12.0030927,34.3706908 12.0910911,34.2419768 C12.1790894,34.1132628 12.223088,33.9635365 12.223088,33.7927934 C12.223088,33.5826481 12.1613587,33.4092808 12.0378983,33.2726863 C11.9144379,33.1360919 11.7581447,33.0507216 11.5690139,33.016573 C11.4297926,32.9903048 11.1500408,32.9771709 10.7297501,32.9771709 L10.1663008,32.9771709 Z M14.4989505,32 L15.5903874,32 L15.5903874,35.8456404 L17.9308694,32 L19.0932299,32 L19.0932299,37.776341 L18.0017931,37.776341 L18.0017931,34.0055645 L15.6652513,37.776341 L14.4989505,37.776341 L14.4989505,32 Z M21.684309,37.776341 L21.684309,32.9771709 L19.9703197,32.9771709 L19.9703197,32 L24.5606589,32 L24.5606589,32.9771709 L22.8506097,32.9771709 L22.8506097,37.776341 L21.684309,37.776341 Z M26.674973,36.9449577 L26.674973,35.4437395 L25.1619342,35.4437395 L25.1619342,34.4074655 L26.674973,34.4074655 L26.674973,32.9062472 L27.6836656,32.9062472 L27.6836656,34.4074655 L29.2006446,34.4074655 L29.2006446,35.4437395 L27.6836656,35.4437395 L27.6836656,36.9449577 L26.674973,36.9449577 Z M31.4883278,36.9449577 L31.4883278,35.4437395 L29.975289,35.4437395 L29.975289,34.4074655 L31.4883278,34.4074655 L31.4883278,32.9062472 L32.4970204,32.9062472 L32.4970204,34.4074655 L34.0139995,34.4074655 L34.0139995,35.4437395 L32.4970204,35.4437395 L32.4970204,36.9449577 L31.4883278,36.9449577 Z"/>
    </g>
  </g>
</svg>
