<svg xmlns="http://www.w3.org/2000/svg" width="1675" height="588" viewBox="0 0 1675 588">
  <path fill="none" stroke="#FFF" stroke-width="2" d="M945.222614,1081.63688 C926.957279,1101.41962 899.603407,1108.83361 874.424738,1100.82591 C837.446952,1089.06567 816.603973,1048.24251 827.870642,1009.64482 L1011.12863,381.834185 C1020.69789,349.051518 1007.1507,313.731983 978.551252,296.900119 C944.8788,277.082602 902.190855,289.510054 883.205057,324.657611 L504.618447,1025.51805 C497.044118,1039.54006 485.245203,1050.55842 471.054772,1056.8613 C435.48507,1072.66011 394.380183,1055.36944 379.244437,1018.24152 L5.58938781,101.66727 C-4.72134051,76.3750975 -0.559577051,47.1826666 16.3596341,26.120048 C41.1963741,-4.79905222 85.3434675,-8.84775318 114.964927,17.0770213 L1327.2964,1078.11252 C1332.06829,1082.28889 1337.22867,1085.95623 1342.70038,1089.05969 C1387.98787,1114.74598 1444.64958,1097.24778 1469.25785,1049.97637 L1800.38125,413.902684 C1819.17296,377.80464 1812.55905,333.052263 1784.21916,304.543397 C1749.42677,269.543547 1694.03975,270.610954 1660.50881,306.927518 L945.222614,1081.63688 Z" opacity=".1" transform="translate(-129 -409)"/>
</svg>
